<svg width="60" height="60" viewBox="0 0 60 60" fill="none" xmlns="http://www.w3.org/2000/svg">
<path fill-rule="evenodd" clip-rule="evenodd" d="M5.22929 25.7014C5.11539 25.7014 5.08726 25.6442 5.14398 25.5594L5.7407 24.7921C5.79695 24.7067 5.93945 24.65 6.05289 24.65H16.1952C16.3091 24.65 16.3373 24.7353 16.2805 24.8206L15.7977 25.5594C15.741 25.6442 15.599 25.7296 15.5137 25.7296L5.22929 25.7014ZM0.939295 28.3147C0.825857 28.3147 0.797264 28.2585 0.853982 28.1727L1.4507 27.4058C1.50742 27.3205 1.64945 27.2638 1.76336 27.2638H14.7177C14.8312 27.2638 14.8884 27.3491 14.8598 27.4344L14.6324 28.116C14.6043 28.2299 14.4904 28.2866 14.377 28.2866L0.939295 28.3147ZM7.81398 30.9285C7.70054 30.9285 7.67242 30.8431 7.72914 30.7578L8.12664 30.0477C8.18383 29.9624 8.29726 29.8775 8.41117 29.8775H14.0924C14.2063 29.8775 14.263 29.9624 14.263 30.0763L14.2068 30.7578C14.2068 30.8717 14.0929 30.9571 14.0076 30.9571L7.81398 30.9285ZM37.303 25.19C35.5129 25.6447 34.2913 25.9855 32.5302 26.4397C32.1037 26.5536 32.0755 26.5817 31.7062 26.1556C31.2801 25.6728 30.9674 25.3602 30.3712 25.0761C28.581 24.1958 26.848 24.4513 25.229 25.5027C23.2973 26.7524 22.303 28.5988 22.3312 30.8999C22.3593 33.1728 23.9221 35.0478 26.1665 35.3605C28.0982 35.616 29.7177 34.9339 30.996 33.4855C31.2515 33.1728 31.4788 32.8321 31.7629 32.4341H26.2799C25.6837 32.4341 25.5416 32.0647 25.7404 31.5819C26.1098 30.7011 26.7913 29.2241 27.1888 28.4853C27.2746 28.3147 27.4734 28.0306 27.8995 28.0306H38.2401C38.1838 28.798 38.1838 29.5649 38.0699 30.3322C37.7573 32.3774 36.9904 34.2524 35.7402 35.9C33.6946 38.5991 31.0246 40.2749 27.6435 40.7296C24.8596 41.0989 22.2745 40.5589 20.002 38.8546C17.8996 37.2636 16.7066 35.1613 16.394 32.548C16.0246 29.4514 16.9335 26.6671 18.8085 24.2239C20.8255 21.5821 23.496 19.9058 26.7632 19.3091C29.4337 18.8263 31.9902 19.1389 34.2913 20.7013C35.797 21.6955 36.8765 23.0591 37.5866 24.7067C37.7573 24.9627 37.6438 25.1047 37.3026 25.1896L37.303 25.19Z" fill="#C8C8D0"/>
<path d="M46.706 40.8997C44.1208 40.8425 41.7625 40.1042 39.7741 38.3994C38.0978 36.9509 37.0469 35.1041 36.7061 32.9164C36.1947 29.7064 37.075 26.8653 39.0072 24.3374C41.081 21.6097 43.5808 20.1894 46.9619 19.5927C49.8592 19.0817 52.5869 19.3658 55.0581 21.0416C57.3025 22.5758 58.6942 24.6495 59.0636 27.3767C59.5464 31.212 58.4388 34.3372 55.7964 37.0077C53.9214 38.9108 51.6203 40.1042 48.9785 40.6438C48.2116 40.7858 47.4442 40.8144 46.706 40.8997ZM53.4672 29.4224C53.4391 29.053 53.4391 28.7689 53.3819 28.4849C52.871 25.6724 50.2853 24.0814 47.5867 24.7067C44.9444 25.303 43.24 26.9792 42.6152 29.6497C42.1038 31.8655 43.1833 34.1099 45.2285 35.0188C46.7913 35.7008 48.3536 35.6155 49.8592 34.8486C52.1036 33.6838 53.3252 31.8655 53.4672 29.4224Z" fill="#C8C8D0"/>
</svg>
