<svg width="60" height="60" viewBox="0 0 60 60" fill="none" xmlns="http://www.w3.org/2000/svg">
<path d="M30.0001 15.4873C14.1845 15.4873 1.3623 21.9851 1.3623 30.0003C1.3623 38.0154 14.1845 44.5132 30.0001 44.5132C45.8157 44.5132 58.6379 38.0154 58.6379 30.0003C58.6379 21.9851 45.8157 15.4873 30.0001 15.4873ZM22.5484 32.8278C21.865 33.4671 21.1061 33.7311 20.2703 34.0029C19.4345 34.2753 18.3709 34.219 17.0776 34.219H14.1465L13.3342 38.9065H9.91184L12.9657 22.969H19.547C21.527 22.969 22.9712 23.5386 23.8792 24.5778C24.7871 25.617 25.06 27.0921 24.6981 28.9545C24.5486 29.7218 24.2968 30.4353 23.9415 31.0709C23.5733 31.7267 23.1031 32.3198 22.5484 32.8278ZM32.5379 34.219L33.8884 27.4596C34.0421 26.6684 33.9859 26.0806 33.7192 25.7932C33.452 25.5054 32.8839 25.3128 32.0153 25.3128H29.3012L27.5523 34.219H24.1567L27.2106 18.7503H30.6062L29.7943 22.969H32.8192C34.7228 22.969 36.0353 23.3511 36.7576 24.0148C37.48 24.6786 37.6965 25.5879 37.4078 27.0748L35.987 34.219H32.5379ZM51.4093 28.9793C51.2603 29.7467 51.0081 30.4479 50.6532 31.0831C50.2979 31.7192 49.8339 32.3009 49.2606 32.8278C48.5771 33.4671 47.8178 33.7311 46.9825 34.0029C46.1471 34.2753 45.0826 34.219 43.7893 34.219H40.8582L40.0464 38.9065H36.624L39.6775 22.969H46.2592C48.2392 22.969 49.6834 23.5386 50.5909 24.5778C51.4979 25.617 51.7712 27.1175 51.4093 28.9793ZM44.9622 25.3128H42.6179L41.3396 31.8753H43.4218C44.8009 31.8753 45.8293 31.7393 46.5043 31.219C47.1803 30.6996 47.6354 29.8934 47.8722 28.6779C48.099 27.5103 47.9959 26.5995 47.5628 26.1195C47.1292 25.6395 46.2625 25.3128 44.9622 25.3128ZM18.2504 25.3128H15.9057L14.6275 31.8753H16.7092C18.0887 31.8753 19.1167 31.7393 19.7921 31.219C20.4676 30.6996 20.9232 29.8934 21.1595 28.6779C21.3864 27.5103 21.2832 26.5995 20.8501 26.1195C20.417 25.6395 19.5507 25.3128 18.2504 25.3128Z" fill="#C8C8D0"/>
</svg>
