<svg width="60" height="60" viewBox="0 0 60 60" fill="none" xmlns="http://www.w3.org/2000/svg">
<path d="M14.1641 51.2908V55.2972H11.9497V44.8548H14.9924C16.4108 44.8548 17.4608 45.1131 18.1419 45.6297C18.823 46.1467 19.1633 46.9309 19.1633 47.9828C19.1633 48.5973 18.9941 49.1439 18.6556 49.622C18.3177 50.1006 17.8391 50.4761 17.2199 50.7475L20.2911 55.2967H17.8339L15.3416 51.2903H14.1641V51.2908ZM14.1641 49.4908H14.8785C15.5778 49.4908 16.0949 49.3736 16.4281 49.1406C16.761 48.9072 16.9278 48.5406 16.9278 48.0409C16.9278 47.5455 16.7577 47.1934 16.4174 46.9839C16.077 46.7744 15.5497 46.6694 14.8353 46.6694H14.1641V49.4908ZM27.0913 55.2972L26.7983 54.2758H26.6839C26.4505 54.6475 26.1191 54.9339 25.6911 55.1364C25.2622 55.3389 24.7738 55.4397 24.2267 55.4397C23.2883 55.4397 22.5819 55.1889 22.1052 54.6864C21.6289 54.1839 21.3908 53.4616 21.3908 52.5189V47.312H23.5696V51.9761C23.5696 52.5522 23.6717 52.9844 23.877 53.2727C24.0814 53.5609 24.4072 53.7044 24.8549 53.7044C25.4647 53.7044 25.9049 53.5005 26.1763 53.0941C26.4477 52.6867 26.5836 52.0122 26.5836 51.0695V47.3125H28.7619V55.2977H27.0913V55.2972ZM35.4903 47.1616C36.433 47.1616 37.1713 47.53 37.7052 48.2655C38.2381 49.0009 38.5049 50.0092 38.5049 51.2903C38.5049 52.6089 38.2297 53.6303 37.6803 54.3536C37.1305 55.0778 36.3814 55.4392 35.4336 55.4392C34.4961 55.4392 33.7602 55.0984 33.2267 54.4173H33.0767L32.713 55.2963H31.0485V44.1836H33.2267V46.7692C33.2267 47.0978 33.1977 47.6237 33.1405 48.348H33.2267C33.7358 47.5577 34.491 47.1616 35.4903 47.1616ZM34.7905 48.9048C34.2528 48.9048 33.86 49.0703 33.6125 49.4012C33.365 49.7327 33.2361 50.2787 33.2267 51.0409V51.2762C33.2267 52.1336 33.3538 52.7477 33.6083 53.1194C33.8633 53.4906 34.2669 53.6763 34.8191 53.6763C35.2667 53.6763 35.622 53.47 35.8869 53.0584C36.1513 52.6469 36.2835 52.0478 36.2835 51.2622C36.2835 50.4766 36.1494 49.8869 35.8831 49.4941C35.6169 49.1012 35.2527 48.9048 34.7905 48.9048ZM39.0191 47.312H41.4041L42.9111 51.8045C43.04 52.195 43.1281 52.6567 43.1755 53.1902H43.2186C43.2706 52.6998 43.3728 52.2377 43.5252 51.8045L45.0036 47.312H47.3394L43.9611 56.3186C43.6513 57.1516 43.2102 57.7755 42.6364 58.1898C42.0622 58.6042 41.3924 58.8109 40.6255 58.8109C40.2491 58.8109 39.8802 58.7706 39.5188 58.6895V56.9612C39.7999 57.0249 40.0874 57.0559 40.3756 57.0536C40.761 57.0536 41.098 56.9359 41.3863 56.7002C41.6745 56.4648 41.8996 56.1091 42.0613 55.6328L42.1897 55.2395L39.0191 47.312Z" fill="#C8C8D0"/>
<path d="M41.0266 27.548L18.1113 41.1548L47.7832 39.142L50.0684 9.22266L41.0266 27.548Z" fill="#C8C8D0"/>
<path d="M47.8319 39.1201L45.2814 21.5176L38.3354 30.691L47.8319 39.1201Z" fill="#C8C8D0"/>
<path d="M47.866 39.121L29.1825 37.6543L18.2114 41.116L47.866 39.121Z" fill="#C8C8D0"/>
<path d="M18.2372 41.1187L22.9046 25.8281L12.6343 28.0247L18.2372 41.1187Z" fill="white" fill-opacity="0.5"/>
<path d="M38.3329 30.742L34.0382 13.9199L21.748 25.4404L38.3329 30.742Z" fill="white" fill-opacity="0.5"/>
<path d="M49.094 14.1569L37.4761 4.66797L34.2412 15.1272L49.094 14.1569Z" fill="white" fill-opacity="0.5"/>
<path d="M43.6602 1.285L36.8277 5.06125L32.5166 1.23438L43.6602 1.285Z" fill="white" fill-opacity="0.5"/>
<path d="M9.93164 33.1542L12.7943 27.9337L10.4782 21.7148L9.93164 33.1542Z" fill="white" fill-opacity="0.5"/>
<path d="M10.3247 21.5181L12.6544 28.1266L22.7771 25.8555L34.3341 15.115L37.5956 4.75563L32.4605 1.12891L23.7291 4.39656C20.9785 6.955 15.6403 12.0175 15.4477 12.1127C15.2574 12.2102 11.9231 18.5125 10.3247 21.5181Z" fill="white" fill-opacity="0.5"/>
<path d="M18.5051 9.64676C24.4671 3.73535 32.1527 0.243163 35.1021 3.21926C38.0501 6.19488 34.924 13.4268 28.9619 19.3358C23.0004 25.2453 15.4094 28.9302 12.4624 25.9541C9.51209 22.9804 12.5435 15.5558 18.5051 9.64676Z" fill="#C8C8D0"/>
<path d="M18.2373 41.1128L22.8681 25.7734L38.2482 30.7145C32.687 35.9294 26.5023 40.337 18.2373 41.1128Z" fill="#C8C8D0"/>
<path d="M34.354 15.0842L38.3023 30.7231C42.9476 25.8392 47.1167 20.5883 49.1581 14.0938L34.354 15.0842Z" fill="#C8C8D0"/>
<path d="M49.1179 14.1728C50.698 9.40375 51.0623 2.56281 43.612 1.29297L37.498 4.66984L49.1179 14.1728Z" fill="#C8C8D0"/>
<path d="M9.93164 33.0855C10.1505 40.9553 15.829 41.073 18.2477 41.1423L12.6602 28.0938L9.93164 33.0855Z" fill="#C8C8D0"/>
<path d="M34.377 15.1091C37.9465 17.3029 45.1395 21.7091 45.2852 21.7902C45.5121 21.9177 48.387 16.9424 49.039 14.1309L34.377 15.1091Z" fill="#C8C8D0"/>
<path d="M22.8618 25.7754L29.0526 37.7191C32.7135 35.734 35.5795 33.3152 38.2054 30.7245L22.8618 25.7754Z" fill="#C8C8D0"/>
<path d="M12.6363 28.11L11.7588 38.5547C13.4144 40.8155 15.6911 41.0114 18.0799 40.8357C16.3516 36.5349 12.8997 27.9352 12.6363 28.11Z" fill="#C8C8D0"/>
<path d="M37.4619 4.69672L49.7605 6.42313C49.1038 3.64109 47.0882 1.84672 43.6527 1.28516L37.4619 4.69672Z" fill="#C8C8D0"/>
</svg>
