<svg viewBox="0 0 7 16" fill="none" xmlns="http://www.w3.org/2000/svg">
<path d="M1.14769 1.60581C0.848638 1.1415 0.982606 0.522673 1.44692 0.223619C1.61469 0.115561 1.80264 0.0640391 1.98838 0.0642094C2.31669 0.0645048 2.63813 0.2263 2.82913 0.522846L6.31813 5.93989C6.31982 5.94251 6.32151 5.94513 6.32318 5.94776L6.66688 6.48137C7.09165 7.14087 7.09165 7.98781 6.66687 8.64731L6.32316 9.18096C6.32149 9.18358 6.31981 9.18619 6.31813 9.1888L2.82913 14.6058C2.71698 14.7799 2.55986 14.9076 2.38278 14.9834C2.13309 15.0903 1.84371 15.094 1.58478 14.9794C1.53768 14.9586 1.49158 14.9338 1.44692 14.905C0.982605 14.606 0.848638 13.9872 1.14769 13.5228L4.63671 8.10583C4.63769 8.10431 4.63866 8.10279 4.63963 8.10127C4.84813 7.7737 4.84813 7.35497 4.63962 7.0274L1.14769 1.60581Z" fill="#013EDF"/>
</svg>
