<svg viewBox="0 0 196 64" fill="none" xmlns="http://www.w3.org/2000/svg">
<g clip-path="url(#clip0_560_2502)">
<path d="M7.64226 37.7353C7.28635 37.3866 6.83503 37.1502 6.34492 37.056C5.85481 36.9622 5.34778 37.0148 4.88753 37.2071C4.42725 37.3995 4.03423 37.7234 3.75783 38.1376C3.48144 38.5522 3.33398 39.0388 3.33398 39.5365C3.33398 40.0342 3.48144 40.5208 3.75783 40.9354C4.03423 41.3499 4.42725 41.6735 4.88753 41.8658C5.34778 42.0585 5.85481 42.1111 6.34492 42.0169C6.83503 41.9228 7.28635 41.6867 7.64226 41.3376C7.88068 41.1019 8.06997 40.8214 8.19912 40.5123C8.32828 40.2032 8.39478 39.8714 8.39478 39.5365C8.39478 39.2016 8.32828 38.8701 8.19912 38.561C8.06997 38.2519 7.88068 37.9711 7.64226 37.7353Z" fill="#010C2C"/>
<path d="M59.6952 26.1508C60.0494 26.5043 60.5004 26.7451 60.9918 26.8428C61.4833 26.9404 61.9927 26.8905 62.4554 26.6994C62.9184 26.5084 63.3142 26.1846 63.5926 25.7692C63.871 25.3538 64.0197 24.8653 64.0197 24.3657C64.0197 23.866 63.871 23.3776 63.5926 22.9621C63.3142 22.5467 62.9184 22.223 62.4554 22.0319C61.9927 21.8408 61.4833 21.7909 60.9918 21.8886C60.5004 21.9862 60.0494 22.2271 59.6952 22.5806C59.4588 22.8143 59.2713 23.0924 59.1435 23.3988C59.0157 23.7052 58.9497 24.0338 58.9497 24.3657C58.9497 24.6976 59.0157 25.0262 59.1435 25.3325C59.2713 25.6389 59.4588 25.917 59.6952 26.1508Z" fill="#010C2C"/>
<path d="M15.7529 17.6571C16.203 17.1788 16.4489 16.5445 16.4385 15.8886C16.4281 15.2327 16.1621 14.6065 15.697 14.1426C15.2319 13.6787 14.604 13.4136 13.9463 13.4032C13.2886 13.3927 12.6526 13.6379 12.173 14.0869L1.48666 24.7976C1.13584 25.1529 0.897787 25.6034 0.802246 26.0927C0.706704 26.5822 0.757913 27.0888 0.949471 27.5493C1.14103 28.0099 1.46445 28.4039 1.87929 28.6822C2.29414 28.9605 2.78202 29.1106 3.28196 29.1139C3.6143 29.1146 3.94341 29.049 4.24992 28.9209C4.55639 28.7927 4.83409 28.6047 5.06658 28.3679L15.7529 17.6571Z" fill="#010C2C"/>
<path d="M19.3328 27.3232C20.0049 27.3232 20.65 27.059 21.1281 26.5879L42.5968 5.15569C43.0731 4.68224 43.3411 4.03955 43.342 3.369C43.343 2.69845 43.0769 2.05497 42.6022 1.58011C42.1275 1.10525 41.483 0.837916 40.8107 0.836917C40.1384 0.835918 39.4932 1.10133 39.0169 1.57478L17.5482 23.0176C17.2106 23.3727 16.9838 23.8179 16.8952 24.2991C16.8065 24.7804 16.86 25.2769 17.049 25.7285C17.238 26.18 17.5545 26.567 17.9599 26.8426C18.3653 27.1181 18.8423 27.2703 19.3328 27.2806V27.3232Z" fill="#010C2C"/>
<path d="M53.3367 5.15595C53.1022 4.9204 52.8232 4.73345 52.516 4.60587C52.2089 4.47829 51.8794 4.4126 51.5467 4.4126C51.2138 4.4126 50.8842 4.47829 50.5771 4.60587C50.27 4.73345 49.991 4.9204 49.7568 5.15595L6.80832 48.0204C6.57213 48.254 6.38468 48.5323 6.25675 48.8385C6.12883 49.1448 6.06299 49.4734 6.06299 49.8055C6.06299 50.1373 6.12883 50.4659 6.25675 50.7722C6.38468 51.0785 6.57213 51.3568 6.80832 51.5906C7.04201 51.8273 7.32065 52.0156 7.62794 52.144C7.93524 52.2721 8.26511 52.3382 8.59829 52.3382C8.93146 52.3382 9.26133 52.2721 9.56863 52.144C9.87592 52.0156 10.1545 51.8273 10.3883 51.5906L53.3367 8.72618C53.8085 8.25122 54.073 7.60967 54.073 6.94108C54.073 6.27249 53.8085 5.63091 53.3367 5.15595Z" fill="#010C2C"/>
<path d="M60.4967 12.2961C60.2622 12.0605 59.9835 11.8736 59.676 11.746C59.3689 11.6184 59.0394 11.5527 58.7067 11.5527C58.3741 11.5527 58.0445 11.6184 57.7371 11.746C57.43 11.8736 57.1513 12.0605 56.9168 12.2961L13.9684 55.1922C13.7319 55.4271 13.5442 55.7059 13.4162 56.0135C13.2881 56.3207 13.2222 56.65 13.2222 56.9827C13.2222 57.3157 13.2881 57.645 13.4162 57.9522C13.5442 58.2594 13.7319 58.5386 13.9684 58.7731C14.2025 59.0073 14.4807 59.1927 14.787 59.319C15.0933 59.4452 15.4216 59.5097 15.753 59.5088C16.4252 59.5088 17.0702 59.2444 17.5483 58.7731L60.4967 15.8663C60.9685 15.3913 61.233 14.7498 61.233 14.0812C61.233 13.4126 60.9685 12.771 60.4967 12.2961Z" fill="#010C2C"/>
<path d="M49.7569 37.2983C49.2806 36.8277 48.6374 36.564 47.967 36.564C47.2963 36.564 46.653 36.8277 46.1767 37.2983L24.7401 58.7413C24.2899 59.2194 24.0441 59.8537 24.0545 60.5097C24.0649 61.1657 24.3309 61.7918 24.796 62.2558C25.2611 62.7195 25.889 62.9848 26.5467 62.9952C27.2044 63.0056 27.8404 62.7604 28.32 62.3115L49.7995 40.8792C50.2663 40.397 50.5236 39.7505 50.5157 39.08C50.5078 38.4098 50.2351 37.7696 49.7569 37.2983Z" fill="#010C2C"/>
<path d="M64.0765 37.2983C63.6002 36.8277 62.9569 36.564 62.2865 36.564C61.6161 36.564 60.9729 36.8277 60.4966 37.2983L46.1768 51.5902C45.7052 52.0652 45.4404 52.7067 45.4404 53.3753C45.4404 54.0439 45.7052 54.6854 46.1768 55.1604C46.4107 55.3971 46.6894 55.5853 46.9965 55.7138C47.3039 55.8422 47.6337 55.9083 47.967 55.9083C48.3 55.9083 48.6299 55.8422 48.9373 55.7138C49.2444 55.5853 49.5231 55.3971 49.757 55.1604L64.0765 40.8793C64.549 40.4027 64.8141 39.7593 64.8141 39.0888C64.8141 38.4186 64.549 37.7752 64.0765 37.2983Z" fill="#010C2C"/>
<path d="M54.6617 27.6325C54.3072 27.9856 54.0658 28.4357 53.9679 28.9257C53.8698 29.4158 53.9199 29.9237 54.1115 30.3854C54.3031 30.8471 54.6279 31.2417 55.0442 31.5194C55.4608 31.797 55.9507 31.9452 56.4516 31.9452C56.9525 31.9452 57.4424 31.797 57.859 31.5194C58.2756 31.2417 58.6001 30.8471 58.7917 30.3854C58.9833 29.9237 59.0335 29.4158 58.9353 28.9257C58.8375 28.4357 58.596 27.9856 58.2415 27.6325C58.007 27.397 57.7283 27.21 57.4212 27.0824C57.1138 26.9549 56.7843 26.8892 56.4516 26.8892C56.1189 26.8892 55.7894 26.9549 55.4823 27.0824C55.1749 27.21 54.8962 27.397 54.6617 27.6325Z" fill="#010C2C"/>
<path d="M27.85 5.94458C28.2044 5.59144 28.4459 5.1414 28.5438 4.65135C28.6417 4.16134 28.5918 3.65333 28.4001 3.19165C28.2085 2.72997 27.8839 2.33534 27.4674 2.05769C27.0508 1.78004 26.561 1.63184 26.06 1.63184C25.559 1.63184 25.0692 1.78004 24.6527 2.05769C24.2361 2.33534 23.9115 2.72997 23.7199 3.19165C23.5283 3.65333 23.4783 4.16134 23.5762 4.65135C23.6741 5.1414 23.9156 5.59144 24.2701 5.94458C24.7463 6.41511 25.3896 6.67909 26.06 6.67909C26.7304 6.67909 27.3737 6.41511 27.85 5.94458Z" fill="#010C2C"/>
<path d="M186.68 55.7578C186.273 55.7578 185.89 55.7261 185.533 55.6628C185.181 55.6044 184.89 55.5289 184.658 55.4364L185.382 53.1135C185.76 53.2255 186.099 53.2864 186.401 53.2961C186.708 53.3059 186.972 53.2377 187.193 53.0916C187.42 52.9455 187.603 52.6972 187.744 52.3466L187.933 51.8718L183.775 40.3306H187.155L189.555 48.5701H189.675L192.097 40.3306H195.5L190.996 52.7629C190.78 53.3668 190.485 53.8927 190.113 54.3407C189.746 54.7936 189.281 55.1418 188.717 55.3853C188.154 55.6336 187.475 55.7578 186.68 55.7578Z" fill="#010C2C"/>
<path d="M175.207 44.7469V51.4381H172.051V39.8641H175.059V41.9061H175.192C175.444 41.233 175.866 40.7005 176.459 40.3087C177.052 39.9118 177.77 39.7134 178.615 39.7134C179.405 39.7134 180.094 39.8892 180.682 40.2408C181.269 40.5925 181.726 41.0948 182.052 41.7479C182.378 42.3959 182.541 43.1695 182.541 44.0687V51.4381H179.385V44.6414C179.39 43.9331 179.212 43.3805 178.852 42.9836C178.491 42.5818 177.995 42.3808 177.363 42.3808C176.938 42.3808 176.563 42.4738 176.237 42.6596C175.916 42.8455 175.664 43.1168 175.481 43.4734C175.303 43.8251 175.212 44.2495 175.207 44.7469Z" fill="#010C2C"/>
<path d="M163.6 51.4381C162.852 51.4381 162.186 51.3123 161.601 51.0608C161.016 50.8044 160.553 50.4271 160.213 49.929C159.877 49.426 159.709 48.7997 159.709 48.0501C159.709 47.4189 159.829 46.8887 160.068 46.4597C160.307 46.0307 160.632 45.6854 161.044 45.4241C161.456 45.1627 161.924 44.9654 162.448 44.8323C162.977 44.6991 163.531 44.6054 164.111 44.5512C164.793 44.4822 165.342 44.418 165.759 44.3589C166.176 44.2948 166.479 44.2011 166.667 44.0778C166.855 43.9545 166.949 43.772 166.949 43.5304V43.486C166.949 43.0175 166.797 42.655 166.492 42.3986C166.191 42.1422 165.764 42.0139 165.21 42.0139C164.625 42.0139 164.16 42.1397 163.814 42.3912C163.468 42.6378 163.239 42.9485 163.127 43.3233L160.121 43.0865C160.274 42.3961 160.574 41.7994 161.021 41.2964C161.469 40.7884 162.046 40.3989 162.753 40.1276C163.465 39.8515 164.289 39.7134 165.225 39.7134C165.876 39.7134 166.499 39.7874 167.094 39.9353C167.694 40.0832 168.226 40.3126 168.689 40.6232C169.157 40.9339 169.526 41.3334 169.795 41.8216C170.065 42.3049 170.199 42.8843 170.199 43.56V51.2235H167.117V49.6479H167.026C166.837 50.003 166.586 50.3161 166.27 50.5874C165.955 50.8537 165.576 51.0633 165.134 51.2161C164.691 51.3641 164.18 51.4381 163.6 51.4381ZM164.531 49.2633C165.009 49.2633 165.431 49.172 165.797 48.9896C166.164 48.8022 166.451 48.5507 166.659 48.235C166.868 47.9194 166.972 47.5619 166.972 47.1624V45.9567C166.871 46.0208 166.731 46.08 166.553 46.1342C166.38 46.1835 166.184 46.2304 165.965 46.2748C165.746 46.3142 165.528 46.3512 165.309 46.3857C165.09 46.4153 164.892 46.4424 164.714 46.4671C164.332 46.5213 163.999 46.6076 163.714 46.726C163.43 46.8444 163.208 47.0046 163.051 47.2068C162.893 47.4041 162.814 47.6507 162.814 47.9465C162.814 48.3756 162.974 48.7035 163.295 48.9304C163.62 49.1523 164.032 49.2633 164.531 49.2633Z" fill="#010C2C"/>
<path d="M146.75 55.7577V39.8639H149.864V41.8055H150.005C150.144 41.4944 150.344 41.1783 150.606 40.8573C150.873 40.5311 151.219 40.2602 151.644 40.0445C152.074 39.8238 152.608 39.7134 153.245 39.7134C154.076 39.7134 154.842 39.9341 155.544 40.3756C156.246 40.8121 156.807 41.4718 157.227 42.3548C157.648 43.2328 157.858 44.334 157.858 45.6585C157.858 46.9479 157.652 48.0365 157.242 48.9246C156.837 49.8075 156.283 50.4773 155.581 50.9339C154.884 51.3854 154.103 51.6111 153.238 51.6111C152.625 51.6111 152.104 51.5083 151.674 51.3026C151.248 51.0969 150.9 50.8385 150.628 50.5275C150.356 50.2114 150.149 49.8928 150.005 49.5717H149.909V55.7577H146.75ZM149.842 45.6435C149.842 46.3308 149.936 46.9303 150.124 47.442C150.312 47.9538 150.584 48.3526 150.939 48.6386C151.295 48.9195 151.728 49.06 152.237 49.06C152.751 49.06 153.186 48.917 153.542 48.6311C153.898 48.3401 154.167 47.9387 154.35 47.427C154.538 46.9102 154.632 46.3157 154.632 45.6435C154.632 44.9762 154.541 44.3892 154.358 43.8825C154.175 43.3758 153.905 42.9794 153.55 42.6935C153.194 42.4075 152.756 42.2645 152.237 42.2645C151.723 42.2645 151.288 42.4025 150.932 42.6784C150.581 42.9543 150.312 43.3457 150.124 43.8524C149.936 44.3591 149.842 44.9561 149.842 45.6435Z" fill="#010C2C"/>
<path d="M128.237 51.4381V39.8641H131.268V41.9061H131.402C131.641 41.2279 132.039 40.6929 132.597 40.3011C133.154 39.9093 133.821 39.7134 134.597 39.7134C135.384 39.7134 136.053 39.9118 136.605 40.3087C137.158 40.7005 137.526 41.233 137.71 41.9061H137.83C138.063 41.243 138.486 40.713 139.099 40.3162C139.716 39.9143 140.445 39.7134 141.286 39.7134C142.356 39.7134 143.224 40.0575 143.891 40.7457C144.563 41.4289 144.899 42.3984 144.899 43.6543V51.4381H141.726V44.2872C141.726 43.6442 141.557 43.162 141.219 42.8405C140.88 42.519 140.457 42.3582 139.95 42.3582C139.372 42.3582 138.922 42.5441 138.598 42.9158C138.275 43.2825 138.113 43.7673 138.113 44.3701V51.4381H135.03V44.2194C135.03 43.6517 134.869 43.1996 134.545 42.8631C134.227 42.5265 133.806 42.3582 133.283 42.3582C132.93 42.3582 132.612 42.4486 132.328 42.6295C132.049 42.8053 131.828 43.054 131.664 43.3755C131.499 43.6919 131.417 44.0637 131.417 44.4907V51.4381H128.237Z" fill="#010C2C"/>
<path d="M120.215 51.4381C119.074 51.4381 118.087 51.1941 117.255 50.7062C116.427 50.2134 115.788 49.5283 115.337 48.651C114.887 47.7689 114.662 46.7462 114.662 45.5831C114.662 44.4102 114.887 43.385 115.337 42.5078C115.788 41.6256 116.427 40.9406 117.255 40.4526C118.087 39.9598 119.074 39.7134 120.215 39.7134C121.357 39.7134 122.341 39.9598 123.169 40.4526C124.001 40.9406 124.643 41.6256 125.093 42.5078C125.544 43.385 125.769 44.4102 125.769 45.5831C125.769 46.7462 125.544 47.7689 125.093 48.651C124.643 49.5283 124.001 50.2134 123.169 50.7062C122.341 51.1941 121.357 51.4381 120.215 51.4381ZM120.23 48.9985C120.749 48.9985 121.183 48.8506 121.53 48.5549C121.878 48.2543 122.14 47.8453 122.316 47.3278C122.498 46.8103 122.588 46.2213 122.588 45.5609C122.588 44.9005 122.498 44.3116 122.316 43.7941C122.14 43.2766 121.878 42.8676 121.53 42.5669C121.183 42.2663 120.749 42.116 120.23 42.116C119.706 42.116 119.265 42.2663 118.908 42.5669C118.555 42.8676 118.288 43.2766 118.107 43.7941C117.931 44.3116 117.843 44.9005 117.843 45.5609C117.843 46.2213 117.931 46.8103 118.107 47.3278C118.288 47.8453 118.555 48.2543 118.908 48.5549C119.265 48.8506 119.706 48.9985 120.23 48.9985Z" fill="#010C2C"/>
<path d="M112.81 41.4733H109.584C109.525 41.0578 109.405 40.6888 109.223 40.3661C109.041 40.0386 108.808 39.76 108.523 39.5303C108.238 39.3005 107.909 39.1245 107.536 39.0023C107.168 38.8801 106.768 38.819 106.335 38.819C105.555 38.819 104.874 39.0121 104.295 39.3983C103.715 39.7796 103.266 40.3368 102.947 41.07C102.628 41.7984 102.468 42.6832 102.468 43.7243C102.468 44.7949 102.628 45.6943 102.947 46.4226C103.271 47.151 103.723 47.7009 104.302 48.0724C104.882 48.4439 105.552 48.6297 106.313 48.6297C106.741 48.6297 107.136 48.5735 107.499 48.461C107.868 48.3486 108.194 48.1848 108.479 47.9698C108.764 47.7498 109 47.4834 109.186 47.1705C109.378 46.8577 109.51 46.5009 109.584 46.1L112.81 46.1147C112.727 46.8039 112.518 47.4687 112.184 48.1091C111.855 48.7445 111.411 49.314 110.851 49.8175C110.296 50.3161 109.633 50.7121 108.862 51.0054C108.096 51.2938 107.229 51.438 106.262 51.438C104.916 51.438 103.713 51.1349 102.652 50.5287C101.596 49.9226 100.762 49.0452 100.148 47.8964C99.5388 46.7477 99.2344 45.357 99.2344 43.7243C99.2344 42.0868 99.5438 40.6937 100.163 39.5449C100.781 38.3962 101.621 37.5212 102.682 36.92C103.743 36.3138 104.936 36.0107 106.262 36.0107C107.136 36.0107 107.946 36.1329 108.693 36.3774C109.444 36.6218 110.109 36.9786 110.689 37.4479C111.268 37.9123 111.74 38.4817 112.103 39.1563C112.471 39.8309 112.707 40.6032 112.81 41.4733Z" fill="#010C2C"/>
<path d="M85.0999 51.438C84.0692 51.438 83.1795 51.2523 82.4308 50.881C81.6821 50.5096 81.106 50.0064 80.7025 49.3712C80.3038 48.7312 80.1045 48.0178 80.1045 47.2312C80.1045 46.6449 80.2212 46.1245 80.4545 45.6702C80.6879 45.2158 81.0136 44.798 81.4317 44.4169C81.8498 44.0309 82.336 43.6474 82.8902 43.2663L85.7854 41.3535C86.1597 41.1141 86.4344 40.8624 86.6094 40.5986C86.7845 40.3299 86.872 40.0392 86.872 39.7265C86.872 39.4284 86.7529 39.1524 86.5146 38.8983C86.2764 38.6442 85.9385 38.5196 85.501 38.5245C85.2093 38.5245 84.9565 38.5905 84.7426 38.7224C84.5286 38.8494 84.3609 39.018 84.2394 39.2281C84.1227 39.4333 84.0643 39.6629 84.0643 39.917C84.0643 40.2297 84.1519 40.5473 84.3269 40.8698C84.5019 41.1922 84.7353 41.5342 85.027 41.8958C85.3187 42.2525 85.6371 42.6385 85.9823 43.0538L93.0634 51.2181H89.8255L83.9185 44.6075C83.5296 44.1629 83.1406 43.6987 82.7517 43.215C82.3676 42.7264 82.0467 42.2085 81.7891 41.6613C81.5314 41.1092 81.4026 40.5107 81.4026 39.8657C81.4026 39.1377 81.5703 38.483 81.9058 37.9016C82.2461 37.3202 82.7225 36.8609 83.3351 36.5238C83.9477 36.1817 84.6623 36.0107 85.4791 36.0107C86.2764 36.0107 86.9644 36.1744 87.5429 36.5018C88.1263 36.8242 88.5736 37.2542 88.8847 37.7917C89.2007 38.3242 89.3587 38.9105 89.3587 39.5506C89.3587 40.259 89.1837 40.9015 88.8337 41.4781C88.4885 42.0497 88.0023 42.5627 87.3752 43.0171L84.3269 45.2231C83.9136 45.526 83.6073 45.8363 83.408 46.1539C83.2135 46.4666 83.1163 46.767 83.1163 47.0553C83.1163 47.412 83.2038 47.732 83.3788 48.0154C83.5539 48.2988 83.8018 48.5235 84.1227 48.6896C84.4436 48.8509 84.8203 48.9315 85.253 48.9315C85.7781 48.9315 86.2959 48.8118 86.8063 48.5724C87.3217 48.3281 87.7884 47.9836 88.2065 47.539C88.6295 47.0895 88.9674 46.5569 89.2202 45.9413C89.473 45.3257 89.5994 44.6441 89.5994 43.8966H92.1737C92.1737 44.8151 92.074 45.6433 91.8747 46.3811C91.6753 47.1139 91.3982 47.754 91.0433 48.3012C90.6884 48.8435 90.2825 49.2882 89.8255 49.6351C89.6796 49.7279 89.5386 49.8158 89.4025 49.8989C89.2664 49.982 89.1254 50.0699 88.9795 50.1627C88.4253 50.6122 87.8054 50.9372 87.1199 51.1375C86.4393 51.3378 85.7659 51.438 85.0999 51.438Z" fill="#010C2C"/>
<path d="M150.523 21.9148V28.606H147.367V17.0321H150.375V19.0741H150.508C150.76 18.4009 151.183 17.8685 151.775 17.4766C152.368 17.0798 153.087 16.8813 153.931 16.8813C154.721 16.8813 155.41 17.0572 155.998 17.4088C156.586 17.7604 157.043 18.2628 157.369 18.9158C157.695 19.5639 157.858 20.3375 157.858 21.2367V28.606H154.702V21.8093C154.707 21.101 154.529 20.5485 154.168 20.1516C153.808 19.7497 153.311 19.5488 152.679 19.5488C152.254 19.5488 151.879 19.6417 151.553 19.8276C151.232 20.0135 150.98 20.2847 150.797 20.6414C150.62 20.993 150.528 21.4175 150.523 21.9148Z" fill="#010C2C"/>
<path d="M141.325 28.6058V17.2229H144.754V28.6058H141.325ZM143.048 15.7556C142.538 15.7556 142.1 15.5999 141.736 15.2887C141.376 14.9725 141.196 14.5945 141.196 14.1548C141.196 13.7201 141.376 13.3471 141.736 13.0358C142.1 12.7196 142.538 12.5615 143.048 12.5615C143.557 12.5615 143.992 12.7196 144.351 13.0358C144.716 13.3471 144.899 13.7201 144.899 14.1548C144.899 14.5945 144.716 14.9725 144.351 15.2887C143.992 15.5999 143.557 15.7556 143.048 15.7556Z" fill="#010C2C"/>
<path d="M128.237 28.4199V13.1787H131.396V18.909H131.492C131.631 18.6014 131.831 18.2889 132.093 17.9713C132.36 17.6489 132.706 17.3809 133.131 17.1676C133.561 16.9493 134.095 16.8402 134.733 16.8402C135.563 16.8402 136.329 17.0585 137.031 17.4951C137.733 17.9267 138.294 18.5791 138.715 19.4523C139.135 20.3205 139.345 21.4095 139.345 22.7193C139.345 23.9944 139.14 25.071 138.729 25.9491C138.324 26.8223 137.77 27.4847 137.069 27.9361C136.372 28.3827 135.59 28.6059 134.725 28.6059C134.112 28.6059 133.591 28.5042 133.161 28.3008C132.736 28.0974 132.387 27.8419 132.115 27.5343C131.843 27.2217 131.636 26.9067 131.492 26.5892H131.352V28.4199H128.237ZM131.329 22.7044C131.329 23.3841 131.423 23.977 131.611 24.4831C131.799 24.9891 132.071 25.3836 132.427 25.6663C132.783 25.9442 133.215 26.0831 133.724 26.0831C134.238 26.0831 134.673 25.9417 135.029 25.6589C135.385 25.3711 135.655 24.9742 135.838 24.4682C136.025 23.9572 136.119 23.3693 136.119 22.7044C136.119 22.0446 136.028 21.4641 135.845 20.963C135.662 20.4619 135.393 20.07 135.037 19.7872C134.681 19.5044 134.243 19.363 133.724 19.363C133.21 19.363 132.775 19.4994 132.419 19.7723C132.068 20.0452 131.799 20.4322 131.611 20.9332C131.423 21.4343 131.329 22.0247 131.329 22.7044Z" fill="#010C2C"/>
<path d="M122.602 24.1445V17.4985H125.769V29.0725H122.728V26.9702H122.609C122.351 27.6484 121.923 28.1934 121.323 28.6053C120.728 29.0173 120.002 29.2232 119.144 29.2232C118.381 29.2232 117.71 29.0474 117.13 28.6958C116.55 28.3441 116.096 27.8443 115.769 27.1963C115.447 26.5482 115.283 25.7721 115.278 24.8679V17.4985H118.446V24.2952C118.451 24.9784 118.631 25.5184 118.988 25.9153C119.345 26.3121 119.823 26.5106 120.423 26.5106C120.805 26.5106 121.162 26.4227 121.494 26.2468C121.826 26.066 122.094 25.7998 122.297 25.4481C122.505 25.0965 122.607 24.6619 122.602 24.1445Z" fill="#010C2C"/>
<path d="M106.639 28.606V17.0469H109.647V19.0637H109.764C109.968 18.3463 110.31 17.8045 110.791 17.4382C111.271 17.067 111.825 16.8813 112.451 16.8813C112.607 16.8813 112.774 16.8914 112.954 16.9114C113.133 16.9315 113.291 16.9591 113.427 16.9942V19.8389C113.281 19.7937 113.08 19.7536 112.823 19.7185C112.565 19.6833 112.33 19.6658 112.116 19.6658C111.66 19.6658 111.252 19.7686 110.893 19.9743C110.538 20.175 110.257 20.4559 110.048 20.8172C109.844 21.1784 109.742 21.5948 109.742 22.0664V28.606H106.639Z" fill="#010C2C"/>
<path d="M97.5712 28.606C96.8235 28.606 96.1572 28.4803 95.5723 28.2288C94.9874 27.9723 94.5245 27.5951 94.1837 27.097C93.848 26.594 93.6802 25.9677 93.6802 25.2181C93.6802 24.5868 93.7997 24.0567 94.0388 23.6277C94.2778 23.1986 94.6033 22.8534 95.0153 22.592C95.4273 22.3307 95.8953 22.1334 96.4192 22.0003C96.9481 21.8671 97.5025 21.7734 98.0824 21.7192C98.7639 21.6501 99.3133 21.586 99.7303 21.5268C100.147 21.4627 100.45 21.369 100.638 21.2457C100.826 21.1225 100.921 20.94 100.921 20.6983V20.654C100.921 20.1855 100.768 19.823 100.463 19.5666C100.163 19.3101 99.7354 19.1819 99.181 19.1819C98.5961 19.1819 98.1307 19.3077 97.7848 19.5592C97.439 19.8057 97.2101 20.1164 97.0982 20.4912L94.0922 20.2545C94.2448 19.5641 94.5448 18.9674 94.9924 18.4644C95.44 17.9564 96.0173 17.5668 96.7243 17.2956C97.4364 17.0194 98.2604 16.8813 99.1963 16.8813C99.8473 16.8813 100.47 16.9553 101.065 17.1033C101.666 17.2512 102.197 17.4805 102.66 17.7912C103.128 18.1019 103.497 18.5014 103.766 18.9896C104.036 19.4729 104.171 20.0523 104.171 20.7279V28.3915H101.088V26.8159H100.997C100.809 27.171 100.557 27.4841 100.242 27.7553C99.9262 28.0216 99.5472 28.2312 99.1047 28.3841C98.6622 28.5321 98.151 28.606 97.5712 28.606ZM98.502 26.4312C98.9801 26.4312 99.4023 26.34 99.7685 26.1575C100.135 25.9701 100.422 25.7186 100.631 25.403C100.839 25.0874 100.943 24.7299 100.943 24.3304V23.1246C100.842 23.1888 100.702 23.2479 100.524 23.3022C100.351 23.3515 100.155 23.3983 99.9363 23.4427C99.7176 23.4822 99.4989 23.5192 99.2802 23.5537C99.0615 23.5833 98.8631 23.6104 98.6851 23.6351C98.3036 23.6893 97.9705 23.7756 97.6856 23.894C97.4008 24.0123 97.1796 24.1726 97.0219 24.3748C96.8642 24.572 96.7854 24.8186 96.7854 25.1145C96.7854 25.5436 96.9456 25.8715 97.266 26.0984C97.5915 26.3203 98.0035 26.4312 98.502 26.4312Z" fill="#010C2C"/>
<path d="M80.1194 28.6059V26.67L87.7517 15.8679H80.1045V13.1787H91.8142V15.1146L84.1745 25.9167H91.8292V28.6059H80.1194Z" fill="#010C2C"/>
</g>
<defs>
<clipPath id="clip0_560_2502">
<rect width="195" height="62.326" fill="white" transform="translate(0.5 0.836914)"/>
</clipPath>
</defs>
</svg>
