<svg viewBox="0 0 71 65" fill="none" xmlns="http://www.w3.org/2000/svg">
<g clip-path="url(#clip0_2793_510)">
<mask id="mask0_2793_510" style="mask-type:alpha" maskUnits="userSpaceOnUse" x="-6" y="28" width="75" height="52">
<rect x="-5.66919" y="28.4005" width="73.9549" height="2.26103" fill="#D9D9D9"/>
<rect x="-5.66919" y="31.1137" width="73.9549" height="2.26103" fill="#D9D9D9"/>
<rect x="-5.66919" y="33.827" width="73.9549" height="2.26103" fill="#D9D9D9"/>
<rect x="-5.66919" y="36.5402" width="73.9549" height="2.26103" fill="#D9D9D9"/>
<rect x="-5.66919" y="39.2534" width="73.9549" height="2.26103" fill="#D9D9D9"/>
<rect x="-5.66919" y="41.9667" width="73.9549" height="2.26103" fill="#D9D9D9"/>
<rect x="-5.66919" y="44.6799" width="73.9549" height="2.26103" fill="#D9D9D9"/>
</mask>
<g mask="url(#mask0_2793_510)">
<path d="M58.1824 34.5439H68.8216V37.1639H65.104V46.9534H61.8645V37.1639H58.1824V34.5439Z" fill="#070707"/>
<path d="M58.1824 34.5439H68.8216V37.1639H65.104V46.9534H61.8645V37.1639H58.1824V34.5439Z" fill="url(#paint0_linear_2793_510)"/>
<path d="M45.363 34.5439H48.6026V39.6245H53.6124V34.5439H56.852V46.9534H53.6124V42.1737H48.6026V46.9534H45.363V34.5439Z" fill="#070707"/>
<path d="M45.363 34.5439H48.6026V39.6245H53.6124V34.5439H56.852V46.9534H53.6124V42.1737H48.6026V46.9534H45.363V34.5439Z" fill="url(#paint1_linear_2793_510)"/>
<path d="M41.5188 38.4387C41.0821 38.002 40.5687 37.6657 39.9787 37.4296C39.4004 37.1818 38.8221 37.0579 38.2438 37.0579C37.7363 37.0579 37.2702 37.1523 36.8453 37.3411C36.4205 37.5299 36.0487 37.7896 35.7301 38.12C35.4114 38.4505 35.1636 38.8399 34.9865 39.2884C34.8213 39.7369 34.7387 40.2207 34.7387 40.74C34.7387 41.2711 34.8272 41.7608 35.0043 42.2093C35.1813 42.6578 35.4291 43.0531 35.7478 43.3954C36.0664 43.7258 36.4382 43.9855 36.863 44.1743C37.2997 44.3631 37.7717 44.4575 38.2792 44.4575C38.7277 44.4575 39.2351 44.3513 39.8016 44.1389C40.3799 43.9146 40.9051 43.6255 41.3772 43.2715L43.2182 45.5551C42.7816 45.8619 42.2682 46.1393 41.6781 46.3871C41.0998 46.6349 40.492 46.8297 39.8547 46.9713C39.2292 47.1129 38.6274 47.1837 38.0491 47.1837C37.1049 47.1837 36.2257 47.0244 35.4114 46.7057C34.6089 46.3753 33.9067 45.9209 33.3048 45.3426C32.7029 44.7644 32.2368 44.0799 31.9063 43.2892C31.5759 42.4984 31.4106 41.6487 31.4106 40.74C31.4106 39.8313 31.5818 38.9874 31.924 38.2085C32.2663 37.4296 32.7442 36.751 33.3579 36.1728C33.9834 35.5945 34.7092 35.146 35.5353 34.8274C36.3732 34.5087 37.282 34.3494 38.2615 34.3494C38.8752 34.3494 39.4889 34.4261 40.1026 34.5795C40.7281 34.7329 41.3181 34.9454 41.8728 35.2168C42.4393 35.4883 42.935 35.8187 43.3598 36.2082L41.5188 38.4387ZM40.4212 40.6338H43.2182V45.5551H40.4212V40.6338Z" fill="#070707"/>
<path d="M41.5188 38.4387C41.0821 38.002 40.5687 37.6657 39.9787 37.4296C39.4004 37.1818 38.8221 37.0579 38.2438 37.0579C37.7363 37.0579 37.2702 37.1523 36.8453 37.3411C36.4205 37.5299 36.0487 37.7896 35.7301 38.12C35.4114 38.4505 35.1636 38.8399 34.9865 39.2884C34.8213 39.7369 34.7387 40.2207 34.7387 40.74C34.7387 41.2711 34.8272 41.7608 35.0043 42.2093C35.1813 42.6578 35.4291 43.0531 35.7478 43.3954C36.0664 43.7258 36.4382 43.9855 36.863 44.1743C37.2997 44.3631 37.7717 44.4575 38.2792 44.4575C38.7277 44.4575 39.2351 44.3513 39.8016 44.1389C40.3799 43.9146 40.9051 43.6255 41.3772 43.2715L43.2182 45.5551C42.7816 45.8619 42.2682 46.1393 41.6781 46.3871C41.0998 46.6349 40.492 46.8297 39.8547 46.9713C39.2292 47.1129 38.6274 47.1837 38.0491 47.1837C37.1049 47.1837 36.2257 47.0244 35.4114 46.7057C34.6089 46.3753 33.9067 45.9209 33.3048 45.3426C32.7029 44.7644 32.2368 44.0799 31.9063 43.2892C31.5759 42.4984 31.4106 41.6487 31.4106 40.74C31.4106 39.8313 31.5818 38.9874 31.924 38.2085C32.2663 37.4296 32.7442 36.751 33.3579 36.1728C33.9834 35.5945 34.7092 35.146 35.5353 34.8274C36.3732 34.5087 37.282 34.3494 38.2615 34.3494C38.8752 34.3494 39.4889 34.4261 40.1026 34.5795C40.7281 34.7329 41.3181 34.9454 41.8728 35.2168C42.4393 35.4883 42.935 35.8187 43.3598 36.2082L41.5188 38.4387ZM40.4212 40.6338H43.2182V45.5551H40.4212V40.6338Z" fill="url(#paint2_linear_2793_510)"/>
<path d="M26.5542 34.5439H29.7938V46.9534H26.5542V34.5439Z" fill="#070707"/>
<path d="M26.5542 34.5439H29.7938V46.9534H26.5542V34.5439Z" fill="url(#paint3_linear_2793_510)"/>
<path d="M19.3204 34.5439C20.9727 34.5439 22.2472 34.9275 23.1442 35.6946C24.0411 36.4499 24.4896 37.5179 24.4896 38.8987C24.4896 40.3503 24.0411 41.4833 23.1442 42.2976C22.2472 43.1001 20.9727 43.5014 19.3204 43.5014H16.9837V46.9534H13.7441V34.5439H19.3204ZM19.3204 40.9522C19.9931 40.9522 20.5065 40.787 20.8605 40.4565C21.2264 40.1261 21.4093 39.6363 21.4093 38.9872C21.4093 38.3618 21.2264 37.8897 20.8605 37.571C20.5065 37.2524 19.9931 37.0931 19.3204 37.0931H16.9837V40.9522H19.3204ZM18.7539 42.3153H21.905L24.8613 46.9534H21.1969L18.7539 42.3153Z" fill="#070707"/>
<path d="M19.3204 34.5439C20.9727 34.5439 22.2472 34.9275 23.1442 35.6946C24.0411 36.4499 24.4896 37.5179 24.4896 38.8987C24.4896 40.3503 24.0411 41.4833 23.1442 42.2976C22.2472 43.1001 20.9727 43.5014 19.3204 43.5014H16.9837V46.9534H13.7441V34.5439H19.3204ZM19.3204 40.9522C19.9931 40.9522 20.5065 40.787 20.8605 40.4565C21.2264 40.1261 21.4093 39.6363 21.4093 38.9872C21.4093 38.3618 21.2264 37.8897 20.8605 37.571C20.5065 37.2524 19.9931 37.0931 19.3204 37.0931H16.9837V40.9522H19.3204ZM18.7539 42.3153H21.905L24.8613 46.9534H21.1969L18.7539 42.3153Z" fill="url(#paint4_linear_2793_510)"/>
<path d="M6.9672 34.5439C7.91133 34.5439 8.72565 34.6737 9.41014 34.9334C10.0946 35.193 10.6257 35.553 11.0034 36.0132C11.381 36.4735 11.5698 37.0282 11.5698 37.6773C11.5698 38.3263 11.3751 38.8928 10.9857 39.3767C10.608 39.8606 10.0946 40.191 9.44555 40.368C10.2245 40.5215 10.8381 40.8814 11.2866 41.4479C11.7469 42.0144 11.977 42.6989 11.977 43.5014C11.977 44.2095 11.7823 44.8232 11.3928 45.3424C11.0034 45.8617 10.4487 46.263 9.72879 46.5462C9.02069 46.8176 8.17687 46.9534 7.19733 46.9534H1.07227V34.5439H6.9672ZM6.79017 39.4829C7.23864 39.4829 7.59269 39.3767 7.85232 39.1643C8.11196 38.94 8.24178 38.6332 8.24178 38.2437C8.24178 37.8543 8.11196 37.5533 7.85232 37.3409C7.59269 37.1285 7.23864 37.0282 6.79017 37.04H4.31182V39.4829H6.79017ZM6.79017 44.475C7.35665 44.475 7.80512 44.357 8.13556 44.121C8.46601 43.8731 8.63123 43.5368 8.63123 43.1119C8.63123 42.7107 8.46601 42.392 8.13556 42.156C7.80512 41.92 7.35665 41.8078 6.79017 41.8196H4.31182V44.475H6.79017Z" fill="#070707"/>
<path d="M6.9672 34.5439C7.91133 34.5439 8.72565 34.6737 9.41014 34.9334C10.0946 35.193 10.6257 35.553 11.0034 36.0132C11.381 36.4735 11.5698 37.0282 11.5698 37.6773C11.5698 38.3263 11.3751 38.8928 10.9857 39.3767C10.608 39.8606 10.0946 40.191 9.44555 40.368C10.2245 40.5215 10.8381 40.8814 11.2866 41.4479C11.7469 42.0144 11.977 42.6989 11.977 43.5014C11.977 44.2095 11.7823 44.8232 11.3928 45.3424C11.0034 45.8617 10.4487 46.263 9.72879 46.5462C9.02069 46.8176 8.17687 46.9534 7.19733 46.9534H1.07227V34.5439H6.9672ZM6.79017 39.4829C7.23864 39.4829 7.59269 39.3767 7.85232 39.1643C8.11196 38.94 8.24178 38.6332 8.24178 38.2437C8.24178 37.8543 8.11196 37.5533 7.85232 37.3409C7.59269 37.1285 7.23864 37.0282 6.79017 37.04H4.31182V39.4829H6.79017ZM6.79017 44.475C7.35665 44.475 7.80512 44.357 8.13556 44.121C8.46601 43.8731 8.63123 43.5368 8.63123 43.1119C8.63123 42.7107 8.46601 42.392 8.13556 42.156C7.80512 41.92 7.35665 41.8078 6.79017 41.8196H4.31182V44.475H6.79017Z" fill="url(#paint5_linear_2793_510)"/>
</g>
</g>
<path d="M56.5718 51.4579H67.2682V54.6325H60.7565V56.1838H66.6729V59.3584H60.7565V60.9277H67.4305V64.1024H56.5718V51.4579Z" fill="#070707"/>
<path d="M44.2046 51.4579H55.5864V54.7588H51.9789V64.1024H47.7941V54.7588H44.2046V51.4579Z" fill="#070707"/>
<path d="M30.9695 51.4579H35.1362L37.6795 56.3281L40.1327 51.4579H44.2994L37.914 63.7416H37.409L30.9695 51.4579ZM35.5872 58.3844H39.7719V64.1024H35.5872V58.3844Z" fill="#070707"/>
<path d="M25.4024 51.4579C26.4246 51.4579 27.3084 51.5902 28.054 51.8547C28.7995 52.1193 29.3768 52.4921 29.7856 52.9731C30.2065 53.442 30.4169 54.0012 30.4169 54.6506C30.4169 55.2759 30.2245 55.8351 29.8397 56.3281C29.4549 56.8091 28.9378 57.1518 28.2885 57.3562C29.0461 57.5246 29.6533 57.9034 30.1103 58.4926C30.5673 59.0698 30.7957 59.7553 30.7957 60.5489C30.7957 61.2704 30.5853 61.9018 30.1644 62.4429C29.7435 62.972 29.1543 63.3809 28.3967 63.6695C27.6391 63.9581 26.7432 64.1024 25.7091 64.1024H18.999V51.4579H25.4024ZM25.1679 56.3281C25.4565 56.3281 25.685 56.2439 25.8534 56.0756C26.0338 55.9072 26.1239 55.6847 26.1239 55.4082C26.1239 55.1316 26.0338 54.9151 25.8534 54.7588C25.685 54.6025 25.4565 54.5243 25.1679 54.5243H23.1657V56.3281H25.1679ZM25.1679 61.0359C25.5527 61.0359 25.8594 60.9458 26.0879 60.7654C26.3284 60.573 26.4486 60.3265 26.4486 60.0258C26.4486 59.7492 26.3284 59.5268 26.0879 59.3584C25.8594 59.1901 25.5527 59.1059 25.1679 59.1059H23.1657V61.0359H25.1679Z" fill="#070707"/>
<path d="M7.21508 51.2249L16.8782 60.888L16.8782 51.2249L7.21508 51.2249Z" fill="#AE5CFF"/>
<g clip-path="url(#clip1_2793_510)">
<mask id="mask1_2793_510" style="mask-type:alpha" maskUnits="userSpaceOnUse" x="0" y="1" width="62" height="58">
<rect y="1.85822" width="61.0708" height="3.41315" fill="#D9D9D9"/>
<rect y="5.95398" width="61.0708" height="3.41315" fill="#D9D9D9"/>
<rect y="10.0498" width="61.0708" height="3.41315" fill="#D9D9D9"/>
<rect y="14.1455" width="61.0708" height="3.41315" fill="#D9D9D9"/>
<rect y="18.2413" width="61.0708" height="3.41315" fill="#D9D9D9"/>
<rect y="22.3371" width="61.0708" height="3.41315" fill="#D9D9D9"/>
<rect y="26.4329" width="61.0708" height="3.41315" fill="#D9D9D9"/>
</mask>
<g mask="url(#mask1_2793_510)">
<circle cx="25.4787" cy="27.3371" r="24.7006" fill="url(#paint6_linear_2793_510)"/>
</g>
<path fill-rule="evenodd" clip-rule="evenodd" d="M16.5263 20.1693C16.4866 20.2409 16.4926 20.319 16.5247 20.3965C15.6294 21.2542 14.6885 22.2269 14.3226 22.8458C14.2432 22.9802 14.1879 23.0991 14.1527 23.2042C12.6613 25.3668 8.79331 30.7825 2.96579 37.582C0.305323 40.6862 -1.07934 42.4471 -2.20111 43.8738C-4.28732 46.527 -5.46428 48.0239 -12.2473 54.8536C-13.3032 55.9178 -14.3372 56.7073 -15.2066 57.3239C-15.2052 57.3019 -15.3052 57.3667 -15.4404 57.4885C-15.4436 57.4907 -15.4467 57.4929 -15.4498 57.495C-16.2737 57.9882 -18.9614 59.3198 -19.866 58.6139C-20.2949 58.2789 -20.8709 58.7802 -20.8709 58.7802L-20.8723 58.7826L-12.9708 63.3571C-12.825 63.2518 -12.8162 62.9911 -12.8048 62.6525C-12.7896 62.2029 -12.7697 61.616 -12.4182 61.0736C-12.3615 61.0015 -12.2817 60.9001 -12.1803 60.771C-12.1669 60.756 -12.1558 60.7419 -12.147 60.7287C-9.18761 56.9625 10.5315 31.8142 16.7726 22.4601C17.0413 22.2 17.3209 21.9275 17.5913 21.6614C16.6512 23.0185 15.7987 24.2017 15.7626 24.2517L15.6565 24.3403L16.0938 24.2339L15.2827 25.2411L15.9108 24.7829L15.0919 25.715L14.2937 26.8774L14.76 26.3159L14.4478 26.9217L14.4768 26.977L14.0139 27.4217L13.9491 27.4837L14.5177 27.3057L13.5579 27.9154L14.24 27.8352L13.696 28.2426L14.1452 28.1431C13.7954 28.2648 13.4507 28.7716 13.4507 28.7716C13.8197 28.295 14.1361 28.3529 14.1361 28.3529C14.1361 28.3529 13.3721 29.0792 13.3167 29.1306C13.2612 29.182 13.9038 28.8541 13.9038 28.8541L13.031 29.6684L13.9506 29.3499L13.0884 30.135L13.7947 29.6803L12.8621 30.7809L13.4812 30.2051C12.9212 31.0559 12.4477 31.2859 12.4477 31.2859C13.198 30.9882 13.6932 30.2604 13.6932 30.2604C15.7389 27.6653 17.5477 23.8881 18.7181 21.1391C18.8324 21.1539 18.9249 21.1645 18.9825 21.1688C18.875 22.2517 18.4446 23.1291 18.4446 23.1291L17.7963 24.7091L18.4938 23.6264L17.6359 25.2358L18.2788 24.5357L17.3097 26.2927L18.4112 25.1998L17.1614 26.804L18.1503 26.0441L16.7132 27.5782L18.1081 26.5718L16.5085 27.9317L17.6544 27.2723L16.4007 28.5339L17.7333 27.7515L16.3886 28.9763L17.7941 28.2843L16.0213 29.8103L17.7526 28.7386L16.6076 29.9732L17.5058 29.4754L16.1887 31.0406L17.5502 29.8479L16.2111 31.6507L17.515 30.3412L16.5652 31.6213L17.2693 31.0208L16.6327 32.9189C16.6327 32.9189 18.8845 29.1403 19.5212 26.3048C19.8095 25.0206 19.7226 23.6271 19.5411 22.4868L19.7846 22.3894L19.9434 23.4349L20.1335 23.0345L20.1041 24.1444L20.3075 23.4049L20.3719 25.6671L20.5985 24.3053L20.5481 26.7547L20.9187 25.5213L20.9279 27.1191L21.2028 26.3504L21.1857 27.7884L21.3635 26.8768L21.1202 29.1438L21.5684 27.3326L21.4745 29.4967L21.8457 27.8463L21.8029 30.4156L21.9853 29.6736L22.0434 31.8968L22.4567 29.6801L22.7296 30.7338C22.7296 30.7338 22.7216 24.276 21.7938 22.6344C21.7227 22.5089 21.6437 22.3867 21.5583 22.2678L21.5488 21.9596L23.2146 23.624L22.5977 22.66L24.1142 23.9778L23.5128 22.7596L24.9987 25.1673L24.455 23.4945L25.5697 25.4786L25.1048 23.7807L26.129 26.0432L25.7692 23.9696L26.7355 27.0364L26.4192 24.821L27.2915 27.246L27.1287 24.9653L28.2445 27.0528L27.6869 25.2211L28.7948 26.8288L28.4999 25.8908L29.7305 27.3032L28.999 25.9936L30.5556 27.7969L29.6093 26.2538L31.2939 28.1408L30.3522 26.8893L32.4468 28.606C32.4468 28.606 28.7836 23.7981 25.4912 21.6769C24.008 20.7227 22.1961 20.2439 20.653 20.0058C21.5886 19.9333 22.4859 19.9306 22.4859 19.9306L21.2762 19.5802L22.7915 19.8186L22.5265 19.5111L23.672 20.0169L22.9463 19.3849L24.7897 20.2434L23.6507 19.2662L25.3428 20.3196L25.0326 19.469L25.8385 20.1732L25.6535 19.4946L26.6027 20.4005L26.0172 19.5318L27.1078 20.4874L26.5205 19.5054L27.5526 20.623L26.5856 19.0935C27.1767 19.5642 27.8846 20.9147 27.8846 20.9147L27.4474 19.7177C27.7668 20.1457 27.9752 20.8469 28.0932 21.2442C28.1576 21.4609 28.1951 21.5872 28.2092 21.5296C28.211 21.521 28.2131 21.5062 28.2129 21.49C28.2228 21.2454 28.0402 20.3242 28.0402 20.3242C28.4525 21.1536 29.0638 21.6616 29.1056 21.5895L28.6094 20.7885C28.6094 20.7885 29.2268 20.8699 29.7537 22.2889C29.7537 22.2889 29.641 21.8513 29.4369 21.2002C29.3668 20.983 28.9861 20.4095 28.9861 20.4095L30.7125 22.5904C30.3131 21.2451 29.2649 20.0443 29.2649 20.0443C30.2489 20.8291 30.879 22.5134 30.879 22.5134C29.6301 17.9827 25.0706 17.9949 23.6546 18.0838C23.2702 18.1079 22.7275 18.2282 22.1409 18.3906L22.1003 18.2177L23.1132 18.0818L22.7577 17.8696L23.8109 17.9303L23.4954 17.5935L25.2932 17.6936L24.3832 17.1026L26.3521 17.5394L25.3438 16.9075L26.744 17.1563L26.0482 16.8498L27.4126 16.9109L26.5691 16.6986L28.7488 17.0263L28.0291 16.5615L29.2448 16.8961L28.4285 16.1987L29.8965 16.2749L29.3084 16.1206L30.4998 15.9981C30.4998 15.9981 26.1459 15.4358 23.7378 15.7927C24.2564 15.2499 24.6929 14.7065 24.9745 14.1959C26.3889 11.6308 25.2066 8.43247 25.2066 8.43247L25.409 10.6172L24.9326 9.28837L25.1242 10.7541L24.7404 9.8866L24.9321 11.33C24.9321 11.33 24.3026 10.0216 24.3806 10.192C24.4561 10.3609 24.9751 11.8268 24.9751 11.8268L24.2322 10.7033L24.7354 11.9802L23.9369 11.0138L24.6285 12.7306L24.0872 12.0352L24.1108 13.1757L23.8841 12.2418L23.7904 13.3851L23.6117 12.4405L23.5618 13.6027L23.012 12.8221L23.0891 14.4302L22.7246 13.1854L22.7553 13.7831L21.8206 14.2865L22.4679 13.4733L21.8582 13.7945L22.4461 13.1172L21.928 13.3983L21.9349 13.3752L22.7267 12.3775L22.0434 13.0014L22.0496 12.9795L23.2322 11.6042L22.255 12.2328L22.9344 11.6084L22.3527 11.7947L22.3629 11.7504L23.2275 11.152L22.428 11.4598L22.4318 11.4421L23.2395 10.854L22.5084 11.1242L23.3625 10.4308L22.5711 10.7592L22.5759 10.7335L23.45 9.9581L22.6467 10.3695L23.3834 9.66272L22.6961 10.1124L23.527 9.18724L22.7501 9.8194L23.496 8.69734L22.7883 9.45351L22.7978 9.38641L23.543 8.13379L22.9069 8.96628L23.547 7.47797L23.0175 8.35931L23.58 6.75546L23.0353 7.82385L23.5247 6.41844L22.9053 7.80716C22.46 8.282 20.2042 10.7961 19.0417 14.1877C19.2838 11.7184 19.4242 8.90449 18.9485 7.96228L18.9048 8.67543C18.9048 8.67543 18.4666 6.64306 17.5198 5.37257C17.4852 5.32688 17.9297 6.50563 17.9297 6.50563C17.9297 6.50563 17.2595 4.84622 15.4157 5.15288L16.5186 5.56026L15.523 5.49433C15.523 5.49433 16.4684 5.60822 16.3595 6.02358C16.3416 6.09344 15.2146 6.34314 15.2146 6.34314L16.2012 6.4135L15.626 6.71939L16.5385 6.6184L16.0478 6.90581L16.8283 6.92745L15.9306 7.2136L17.1763 7.2413L16.2701 7.40368L17.2748 7.50378L16.4418 7.75032L17.2388 7.8875L16.5076 7.9361L17.3385 8.25337L16.5706 8.2487L17.3925 8.9364L16.8902 8.66165L17.6662 9.6503L17.1541 9.35378L18.0333 10.6301L17.4076 10.2358L18.4765 12.7649L17.8766 11.9488L18.5247 13.1973C18.5247 13.1973 18.3321 14.0048 18.2039 15.0009C18.0213 13.4298 17.7051 11.8925 17.1607 10.9948C15.7089 8.60033 11.8362 7.74205 11.8362 7.74205L14.3569 9.08898L12.7134 8.40077L14.3295 9.41347L13.4011 9.40892L14.7183 9.83439C14.7183 9.83439 13.2968 9.87186 13.4774 9.87047C13.658 9.86907 15.1599 10.0033 15.1599 10.0033L13.8342 10.2247L15.1696 10.2915L13.9501 10.6289L15.7518 10.7056L14.2215 10.8534L15.9116 10.9619L14.4052 11.329L16.3221 11.4563L14.721 11.804L15.9475 12.0646L15.0125 12.2488L16.4169 12.5514L15.1734 12.6695L16.5111 13.0651L16.0524 13.3196L16.5196 13.4553L15.686 13.3868L16.7417 14.0366L16.3428 14.0834C14.835 13.0576 12.8347 13.3541 12.8347 13.3541C12.8347 13.3541 14.8307 14.1598 15.7666 14.6727C16.1598 14.8895 16.6093 15.6743 16.9977 16.5093C16.9152 16.4128 16.8426 16.3329 16.7853 16.274C16.2826 15.7614 14.8611 14.7619 14.8611 14.7619L13.8769 14.2659L14.9803 15.1327L13.421 14.3102L13.6779 14.7704L12.8514 14.2405L13.5317 15.0229L12.3555 14.4703C12.3555 14.4703 12.5712 14.6999 12.8927 15.0288L12.351 14.7275L12.5645 15.063C11.7414 14.4773 10.7044 14.5383 10.7044 14.5383C10.7044 14.5383 12.73 15.0433 11.6075 14.875C10.4835 14.709 9.68053 15.1367 9.68053 15.1367C10.9838 14.8945 12.4842 15.2827 13.5099 15.6491C13.785 15.9202 14.0806 16.2037 14.3622 16.4586C13.7686 16.2313 13.1537 16.1018 12.5484 16.1388C9.67795 16.3166 4.57381 18.0458 4.57381 18.0458L8.01779 17.2433L6.61732 17.7103L8.91419 17.1202L7.38995 17.7788L10.1773 16.9846L8.21408 17.7583L10.5494 17.1294L8.73461 17.8573L11.173 17.2945L9.95474 17.8349L11.3986 17.3706L10.8133 17.8215L11.951 17.4978L10.6246 18.1585L12.3375 17.5899L11.5733 18.056L12.762 17.5499L11.6806 18.2755L13.0325 17.6262L12.2096 18.3987L13.2401 17.7111L12.8349 18.3723L13.6242 17.7409L13.2703 18.4188L13.8105 17.8295L13.6191 18.4153L14.0271 17.9324L13.8447 18.4914L14.2348 18.0173L14.1247 18.4736L14.5815 17.9451L14.4643 18.4969L14.9789 18.1238C14.9789 18.1238 15.4127 18.2529 15.972 18.432C15.513 18.4435 15.0488 18.4878 14.6 18.5788C12.1445 19.0771 5.51054 24.2805 5.51054 24.2805L6.93999 23.5028L6.43934 24.0958L8.93641 22.4112L7.51861 23.7511L9.62665 22.2394L8.16544 23.7596L10.3741 21.9465L8.9492 23.2598L11.1113 22.0041L10.4988 22.7571L12.8081 20.8643L11.1456 22.4606L14.1648 20.1569L12.4392 21.8065L15.3466 19.6628L14.2671 20.9063L16.4385 19.274L15.1502 20.5122L16.3855 19.8758L16.4871 20.1882L16.5263 20.1693ZM20.5688 18.8804C20.4001 18.9306 20.2286 18.9878 20.0768 19.0502C20.2339 18.995 20.3989 18.9379 20.5688 18.8804ZM19.7356 19.1714C19.7504 19.1476 19.7661 19.1225 19.7827 19.096C19.7261 19.1365 19.6704 19.1761 19.6158 19.2147L19.7356 19.1714ZM22.3749 14.1386L22.7554 13.7859L22.8109 14.8664L22.6385 13.8997L22.6246 14.8388L22.3749 14.1386ZM21.4048 15.0378L22.3041 14.2042L22.0526 15.6827L21.9296 14.8824L22.138 14.6532L21.4048 15.0378ZM21.0466 15.8538L21.8907 14.9252L21.7982 15.2606L21.6105 15.4147L21.612 15.3955L21.602 15.4217L21.0313 15.8901L21.0466 15.8538ZM21.6052 15.4819L21.7972 15.2642L21.6985 15.6221L21.5864 15.7189L21.6052 15.4819ZM21.5726 15.8936L21.6523 15.7897L21.5519 16.1537L21.5726 15.8936ZM21.0578 16.5727L21.1096 16.4963L21.0439 16.5818L21.0578 16.5727ZM21.5585 15.5348L21.4388 15.8464L20.8132 16.3864L20.8196 16.3724L21.5585 15.5348Z" fill="#070707"/>
</g>
<defs>
<linearGradient id="paint0_linear_2793_510" x1="65.841" y1="34.5439" x2="65.841" y2="46.9534" gradientUnits="userSpaceOnUse">
<stop stop-color="#5D00B9"/>
<stop offset="0.58" stop-color="#AE5CFF"/>
<stop offset="1" stop-color="#FFCC47"/>
</linearGradient>
<linearGradient id="paint1_linear_2793_510" x1="53.6333" y1="34.5439" x2="53.6333" y2="46.9534" gradientUnits="userSpaceOnUse">
<stop stop-color="#5D00B9"/>
<stop offset="0.58" stop-color="#AE5CFF"/>
<stop offset="1" stop-color="#FFCC47"/>
</linearGradient>
<linearGradient id="paint2_linear_2793_510" x1="40.0122" y1="34.3494" x2="40.0122" y2="47.1837" gradientUnits="userSpaceOnUse">
<stop stop-color="#5D00B9"/>
<stop offset="0.58" stop-color="#AE5CFF"/>
<stop offset="1" stop-color="#FFCC47"/>
</linearGradient>
<linearGradient id="paint3_linear_2793_510" x1="28.8862" y1="34.5439" x2="28.8862" y2="46.9534" gradientUnits="userSpaceOnUse">
<stop stop-color="#5D00B9"/>
<stop offset="0.58" stop-color="#AE5CFF"/>
<stop offset="1" stop-color="#FFCC47"/>
</linearGradient>
<linearGradient id="paint4_linear_2793_510" x1="21.7468" y1="34.5439" x2="21.7468" y2="46.9534" gradientUnits="userSpaceOnUse">
<stop stop-color="#5D00B9"/>
<stop offset="0.58" stop-color="#AE5CFF"/>
<stop offset="1" stop-color="#FFCC47"/>
</linearGradient>
<linearGradient id="paint5_linear_2793_510" x1="8.92201" y1="34.5439" x2="8.92201" y2="46.9534" gradientUnits="userSpaceOnUse">
<stop stop-color="#5D00B9"/>
<stop offset="0.58" stop-color="#AE5CFF"/>
<stop offset="1" stop-color="#FFCC47"/>
</linearGradient>
<linearGradient id="paint6_linear_2793_510" x1="25.4787" y1="2.63647" x2="25.4787" y2="52.0377" gradientUnits="userSpaceOnUse">
<stop stop-color="#FFCC47"/>
<stop offset="1" stop-color="#D31900"/>
</linearGradient>
<clipPath id="clip0_2793_510">
<rect width="68.2859" height="17.007" fill="white" transform="translate(0 30.2032)"/>
</clipPath>
<clipPath id="clip1_2793_510">
<rect width="70.0896" height="29.6335" fill="white" transform="translate(0 0.569824)"/>
</clipPath>
</defs>
</svg>
