<svg width="16" height="16" viewBox="0 0 32 32" fill="none" xmlns="http://www.w3.org/2000/svg">
<rect width="32" height="32" fill="#37003C"/>
<path d="M6.48883 20.1395L12.4423 11.2092H21.1865L16.7214 16.0464L14.4888 16.6046H16.1632H21.9307L5.55859 26.8371L11.14 19.3953L6.48883 20.1395Z" fill="white"/>
<path d="M5 6L21.186 11.2093L13 13.814L5 6Z" fill="white"/>
<path d="M18.5811 15.8604L22.6741 11.7673L29.3718 14.372L18.5811 15.8604Z" fill="white"/>
<path d="M16.1602 8.01361C16.2867 7.64372 16.4848 7.30237 16.7432 7.00905C17.0016 6.71572 17.3153 6.47616 17.6663 6.30405C18.0172 6.13194 18.3987 6.03064 18.7888 6.00595C19.1789 5.98125 19.5701 6.03364 19.94 6.16012C20.3099 6.2866 20.6512 6.4847 20.9446 6.7431C21.2379 7.0015 21.4775 7.31515 21.6496 7.66613C21.8217 8.01711 21.923 8.39856 21.9477 8.78869C21.9724 9.17882 21.92 9.57 21.7935 9.93988L18.9769 8.97674L16.1602 8.01361Z" fill="white"/>
</svg>
