<svg viewBox="0 0 45 45" fill="none" xmlns="http://www.w3.org/2000/svg">
<path d="M4.98131 26.5001C4.73309 26.2569 4.41832 26.092 4.0765 26.0263C3.73468 25.9609 3.38106 25.9976 3.06006 26.1317C2.73905 26.2659 2.46494 26.4918 2.27217 26.7807C2.0794 27.0698 1.97656 27.4092 1.97656 27.7563C1.97656 28.1034 2.0794 28.4428 2.27217 28.7319C2.46494 29.0211 2.73905 29.2467 3.06006 29.3809C3.38106 29.5152 3.73468 29.5519 4.0765 29.4863C4.41832 29.4206 4.73309 29.256 4.98131 29.0125C5.14759 28.8481 5.27961 28.6525 5.36968 28.4369C5.45976 28.2213 5.50614 27.9899 5.50614 27.7563C5.50614 27.5227 5.45976 27.2915 5.36968 27.076C5.27961 26.8604 5.14759 26.6645 4.98131 26.5001Z" fill="#1A5AFF"/>
<path d="M41.2848 18.4207C41.5318 18.6672 41.8464 18.8352 42.1891 18.9033C42.5319 18.9714 42.8872 18.9366 43.2099 18.8033C43.5328 18.6701 43.8089 18.4443 44.003 18.1545C44.1972 17.8648 44.3009 17.5241 44.3009 17.1757C44.3009 16.8272 44.1972 16.4865 44.003 16.1968C43.8089 15.9071 43.5328 15.6813 43.2099 15.548C42.8872 15.4147 42.5319 15.3799 42.1891 15.448C41.8464 15.5161 41.5318 15.6841 41.2848 15.9307C41.12 16.0937 40.9892 16.2877 40.9001 16.5013C40.8109 16.715 40.7649 16.9442 40.7649 17.1757C40.7649 17.4071 40.8109 17.6363 40.9001 17.85C40.9892 18.0637 41.12 18.2576 41.2848 18.4207Z" fill="#1A5AFF"/>
<path d="M10.638 12.4968C10.952 12.1631 11.1235 11.7208 11.1162 11.2633C11.1089 10.8059 10.9235 10.3692 10.599 10.0456C10.2747 9.72209 9.83677 9.53715 9.37806 9.52989C8.91935 9.52262 8.47581 9.69364 8.14128 10.0067L0.68825 17.4768C0.443578 17.7246 0.277549 18.0388 0.210915 18.3801C0.144281 18.7214 0.179995 19.0747 0.313595 19.396C0.447197 19.7172 0.672757 19.992 0.962087 20.186C1.25142 20.3801 1.59168 20.4848 1.94036 20.4871C2.17214 20.4876 2.40168 20.4418 2.61545 20.3525C2.82919 20.2631 3.02286 20.132 3.18501 19.9668L10.638 12.4968Z" fill="#1A5AFF"/>
<path d="M13.1349 19.2384C13.6037 19.2384 14.0536 19.0541 14.387 18.7255L29.3601 3.77794C29.6922 3.44774 29.8791 2.99951 29.8798 2.53184C29.8805 2.06417 29.6949 1.61538 29.3638 1.2842C29.0327 0.953016 28.5832 0.766568 28.1143 0.765871C27.6455 0.765174 27.1955 0.950286 26.8633 1.28048L11.8902 16.2355C11.6548 16.4831 11.4966 16.7936 11.4348 17.1293C11.373 17.4649 11.4103 17.8112 11.5421 18.1261C11.6739 18.441 11.8947 18.711 12.1774 18.9032C12.4602 19.0953 12.7928 19.2014 13.1349 19.2086V19.2384Z" fill="#1A5AFF"/>
<path d="M36.8505 3.77796C36.6869 3.61368 36.4923 3.4833 36.2782 3.39432C36.064 3.30534 35.8341 3.25952 35.6021 3.25952C35.3699 3.25952 35.1401 3.30534 34.9259 3.39432C34.7117 3.4833 34.5171 3.61368 34.3538 3.77796L4.39995 33.6732C4.23522 33.8361 4.10448 34.0302 4.01527 34.2438C3.92605 34.4574 3.88013 34.6866 3.88013 34.9182C3.88013 35.1496 3.92605 35.3788 4.01527 35.5924C4.10448 35.806 4.23522 36.0001 4.39995 36.1632C4.56293 36.3283 4.75726 36.4596 4.97158 36.5491C5.1859 36.6385 5.41596 36.6846 5.64833 36.6846C5.8807 36.6846 6.11076 36.6385 6.32508 36.5491C6.53941 36.4596 6.73372 36.3283 6.89672 36.1632L36.8505 6.26797C37.1796 5.93671 37.3641 5.48927 37.3641 5.02298C37.3641 4.55668 37.1796 4.10922 36.8505 3.77796Z" fill="#1A5AFF"/>
<path d="M41.844 8.75804C41.6804 8.59376 41.486 8.46338 41.2716 8.3744C41.0574 8.28542 40.8276 8.23962 40.5956 8.23962C40.3636 8.23962 40.1338 8.28542 39.9194 8.3744C39.7052 8.46338 39.5108 8.59376 39.3473 8.75804L9.3935 38.6754C9.22856 38.8391 9.09765 39.0337 9.00834 39.2481C8.91901 39.4624 8.87305 39.6921 8.87305 39.9241C8.87305 40.1564 8.91901 40.386 9.00834 40.6003C9.09765 40.8145 9.22856 41.0093 9.3935 41.1728C9.55678 41.3362 9.7508 41.4655 9.96444 41.5535C10.1781 41.6415 10.407 41.6865 10.6381 41.6859C11.1069 41.6859 11.5568 41.5015 11.8903 41.1728L41.844 11.2481C42.1731 10.9168 42.3575 10.4694 42.3575 10.0031C42.3575 9.53676 42.1731 9.08932 41.844 8.75804Z" fill="#1A5AFF"/>
<path d="M34.3537 26.1955C34.0216 25.8673 33.5729 25.6833 33.1054 25.6833C32.6376 25.6833 32.189 25.8673 31.8568 26.1955L16.9061 41.1506C16.5922 41.4841 16.4207 41.9265 16.428 42.384C16.4352 42.8415 16.6207 43.2782 16.9451 43.6018C17.2695 43.9251 17.7074 44.1102 18.1661 44.1174C18.6248 44.1247 19.0683 43.9537 19.4029 43.6406L34.3835 28.693C34.709 28.3567 34.8884 27.9057 34.8829 27.4381C34.8774 26.9707 34.6872 26.5242 34.3537 26.1955Z" fill="#1A5AFF"/>
<path d="M44.3407 26.1955C44.0085 25.8673 43.5599 25.6833 43.0923 25.6833C42.6248 25.6833 42.1762 25.8673 41.844 26.1955L31.8568 36.1632C31.528 36.4945 31.3433 36.9419 31.3433 37.4082C31.3433 37.8745 31.528 38.3219 31.8568 38.6532C32.0199 38.8183 32.2143 38.9495 32.4285 39.0391C32.6429 39.1287 32.873 39.1748 33.1054 39.1748C33.3377 39.1748 33.5677 39.1287 33.7821 39.0391C33.9963 38.9495 34.1907 38.8183 34.3538 38.6532L44.3407 28.693C44.6702 28.3606 44.8552 27.9119 44.8552 27.4443C44.8552 26.9769 44.6702 26.5281 44.3407 26.1955Z" fill="#1A5AFF"/>
<path d="M37.7746 19.454C37.5274 19.7003 37.359 20.0142 37.2907 20.3559C37.2223 20.6977 37.2573 21.052 37.3909 21.374C37.5245 21.696 37.751 21.9712 38.0414 22.1648C38.332 22.3585 38.6736 22.4618 39.023 22.4618C39.3723 22.4618 39.714 22.3585 40.0045 22.1648C40.2951 21.9712 40.5214 21.696 40.655 21.374C40.7886 21.052 40.8236 20.6977 40.7552 20.3559C40.6869 20.0142 40.5185 19.7003 40.2713 19.454C40.1078 19.2897 39.9134 19.1593 39.6992 19.0703C39.4848 18.9814 39.255 18.9355 39.023 18.9355C38.7909 18.9355 38.5611 18.9814 38.3469 19.0703C38.1325 19.1593 37.9382 19.2897 37.7746 19.454Z" fill="#1A5AFF"/>
<path d="M19.0748 4.32806C19.322 4.08176 19.4904 3.76788 19.5587 3.42611C19.627 3.08436 19.5922 2.73006 19.4585 2.40806C19.3249 2.08607 19.0985 1.81084 18.808 1.6172C18.5174 1.42355 18.1759 1.32019 17.8264 1.32019C17.477 1.32019 17.1354 1.42355 16.8449 1.6172C16.5544 1.81084 16.328 2.08607 16.1943 2.40806C16.0607 2.73006 16.0258 3.08436 16.0941 3.42611C16.1624 3.76788 16.3308 4.08176 16.5781 4.32806C16.9102 4.65622 17.3589 4.84032 17.8264 4.84032C18.294 4.84032 18.7426 4.65622 19.0748 4.32806Z" fill="#1A5AFF"/>
</svg>
