<svg viewBox="0 0 429 126" fill="none" xmlns="http://www.w3.org/2000/svg">
<rect y="1" width="92" height="92" fill="url(#paint0_linear_783_1392)"/>
<rect x="31.3201" y="33.92" width="34.8" height="34.8" fill="#FFCC47"/>
<rect x="31.3201" y="61.76" width="84.68" height="63.8" fill="#FFCC47"/>
<path fill-rule="evenodd" clip-rule="evenodd" d="M92.0001 61.76V93H31.3201V68.72V61.76V33.92H66.1201V61.76H92.0001Z" fill="white"/>
<path d="M299.619 71.0587H345.06V84.5453H317.397V91.1354H342.531V104.622H317.397V111.289H345.75V124.776H299.619V71.0587Z" fill="white"/>
<path d="M247.08 71.0587H295.433V85.0817H280.107V124.776H262.329V85.0817H247.08V71.0587Z" fill="white"/>
<path d="M190.853 71.0587H208.554L219.359 91.7485L229.78 71.0587H247.481L220.355 123.243H218.209L190.853 71.0587ZM210.47 100.484H228.248V124.776H210.47V100.484Z" fill="white"/>
<path d="M167.203 71.0587C171.546 71.0587 175.301 71.6206 178.468 72.7445C181.635 73.8684 184.087 75.452 185.824 77.4955C187.612 79.4878 188.506 81.8633 188.506 84.622C188.506 87.2784 187.689 89.6539 186.054 91.7485C184.419 93.7919 182.223 95.2478 179.464 96.1163C182.682 96.8315 185.262 98.4407 187.204 100.944C189.145 103.396 190.115 106.308 190.115 109.68C190.115 112.745 189.221 115.427 187.433 117.726C185.645 119.973 183.142 121.71 179.924 122.936C176.705 124.162 172.899 124.776 168.506 124.776H140V71.0587H167.203ZM166.207 91.7485C167.433 91.7485 168.404 91.3909 169.119 90.6757C169.885 89.9604 170.269 89.0154 170.269 87.8404C170.269 86.6654 169.885 85.7459 169.119 85.0817C168.404 84.4176 167.433 84.0856 166.207 84.0856H157.701V91.7485H166.207ZM166.207 111.749C167.842 111.749 169.145 111.365 170.115 110.599C171.137 109.782 171.648 108.735 171.648 107.457C171.648 106.282 171.137 105.337 170.115 104.622C169.145 103.907 167.842 103.549 166.207 103.549H157.701V111.749H166.207Z" fill="white"/>
<path d="M383.024 7.65869H415.865V18.7525H411.751V60.2042H398.306V18.7525H383.024V7.65869Z" fill="white"/>
<path d="M383.024 7.65869H415.865V18.7525H411.751V60.2042H398.306V18.7525H383.024V7.65869Z" fill="white"/>
<path d="M328.335 7.3949H342.098V28.9786H363.381V7.3949H377.143V60.1133H363.381V39.8081H342.098V60.1133H328.335V7.3949Z" fill="white"/>
<path d="M328.335 7.3949H342.098V28.9786H363.381V7.3949H377.143V60.1133H363.381V39.8081H342.098V60.1133H328.335V7.3949Z" fill="white"/>
<path d="M312.004 23.9377C310.149 22.0827 307.968 20.6538 305.461 19.6511C303.005 18.5982 300.548 18.0718 298.091 18.0718C295.935 18.0718 293.955 18.4729 292.15 19.2751C290.345 20.0772 288.766 21.1802 287.412 22.5841C286.058 23.9879 285.006 25.6424 284.254 27.5476C283.552 29.4527 283.201 31.5083 283.201 33.7143C283.201 35.9705 283.577 38.0511 284.329 39.9563C285.081 41.8615 286.134 43.5411 287.487 44.995C288.841 46.3988 290.42 47.5018 292.225 48.304C294.08 49.1062 296.086 49.5073 298.242 49.5073C300.147 49.5073 302.303 49.0561 304.709 48.1536C307.166 47.201 309.397 45.9727 311.402 44.4686L319.224 54.17C317.369 55.4735 315.188 56.6517 312.681 57.7046C310.224 58.7575 307.642 59.5847 304.935 60.1864C302.278 60.788 299.721 61.0888 297.264 61.0888C293.253 61.0888 289.518 60.412 286.058 59.0583C282.649 57.6545 279.666 55.7242 277.109 53.2675C274.552 50.8108 272.572 47.9029 271.168 44.5438C269.764 41.1847 269.062 37.5748 269.062 33.7143C269.062 29.8538 269.789 26.2691 271.243 22.9601C272.697 19.6511 274.728 16.7682 277.335 14.3116C279.992 11.8549 283.075 9.94969 286.585 8.59601C290.145 7.24233 294.005 6.56549 298.166 6.56549C300.774 6.56549 303.381 6.89138 305.988 7.54315C308.645 8.19492 311.152 9.09737 313.508 10.2505C315.915 11.4036 318.02 12.8075 319.825 14.462L312.004 23.9377ZM307.341 33.2631H319.224V54.17H307.341V33.2631Z" fill="white"/>
<path d="M312.004 23.9377C310.149 22.0827 307.968 20.6538 305.461 19.6511C303.005 18.5982 300.548 18.0718 298.091 18.0718C295.935 18.0718 293.955 18.4729 292.15 19.2751C290.345 20.0772 288.766 21.1802 287.412 22.5841C286.058 23.9879 285.006 25.6424 284.254 27.5476C283.552 29.4527 283.201 31.5083 283.201 33.7143C283.201 35.9705 283.577 38.0511 284.329 39.9563C285.081 41.8615 286.134 43.5411 287.487 44.995C288.841 46.3988 290.42 47.5018 292.225 48.304C294.08 49.1062 296.086 49.5073 298.242 49.5073C300.147 49.5073 302.303 49.0561 304.709 48.1536C307.166 47.201 309.397 45.9727 311.402 44.4686L319.224 54.17C317.369 55.4735 315.188 56.6517 312.681 57.7046C310.224 58.7575 307.642 59.5847 304.935 60.1864C302.278 60.788 299.721 61.0888 297.264 61.0888C293.253 61.0888 289.518 60.412 286.058 59.0583C282.649 57.6545 279.666 55.7242 277.109 53.2675C274.552 50.8108 272.572 47.9029 271.168 44.5438C269.764 41.1847 269.062 37.5748 269.062 33.7143C269.062 29.8538 269.789 26.2691 271.243 22.9601C272.697 19.6511 274.728 16.7682 277.335 14.3116C279.992 11.8549 283.075 9.94969 286.585 8.59601C290.145 7.24233 294.005 6.56549 298.166 6.56549C300.774 6.56549 303.381 6.89138 305.988 7.54315C308.645 8.19492 311.152 9.09737 313.508 10.2505C315.915 11.4036 318.02 12.8075 319.825 14.462L312.004 23.9377ZM307.341 33.2631H319.224V54.17H307.341V33.2631Z" fill="white"/>
<path d="M248.376 17.5121H262.607V60.2054H248.376V17.5121Z" fill="white"/>
<path d="M248.376 17.5121H262.607V60.2054H248.376V17.5121Z" fill="white"/>
<path d="M217.701 7.3949C224.72 7.3949 230.135 9.02433 233.945 12.2832C237.755 15.4919 239.661 20.0293 239.661 25.8952C239.661 32.062 237.755 36.8751 233.945 40.3345C230.135 43.7438 224.72 45.4484 217.701 45.4484H207.774V60.1133H194.011V7.3949H217.701ZM217.701 34.619C220.559 34.619 222.739 33.917 224.244 32.5132C225.798 31.1094 226.575 29.0287 226.575 26.2712C226.575 23.614 225.798 21.6086 224.244 20.2549C222.739 18.9012 220.559 18.2244 217.701 18.2244H207.774V34.619H217.701ZM215.294 40.4097H228.681L241.24 60.1133H225.672L215.294 40.4097Z" fill="white"/>
<path d="M217.701 7.3949C224.72 7.3949 230.135 9.02433 233.945 12.2832C237.755 15.4919 239.661 20.0293 239.661 25.8952C239.661 32.062 237.755 36.8751 233.945 40.3345C230.135 43.7438 224.72 45.4484 217.701 45.4484H207.774V60.1133H194.011V7.3949H217.701ZM217.701 34.619C220.559 34.619 222.739 33.917 224.244 32.5132C225.798 31.1094 226.575 29.0287 226.575 26.2712C226.575 23.614 225.798 21.6086 224.244 20.2549C222.739 18.9012 220.559 18.2244 217.701 18.2244H207.774V34.619H217.701ZM215.294 40.4097H228.681L241.24 60.1133H225.672L215.294 40.4097Z" fill="white"/>
<path d="M165.221 7.3949C169.232 7.3949 172.691 7.9464 175.599 9.0494C178.507 10.1524 180.763 11.6816 182.367 13.6369C183.972 15.5922 184.774 17.9486 184.774 20.7061C184.774 23.4636 183.947 25.8702 182.292 27.9257C180.688 29.9813 178.507 31.3852 175.749 32.1372C179.058 32.789 181.665 34.3181 183.571 36.7247C185.526 39.1312 186.504 42.0391 186.504 45.4484C186.504 48.4566 185.676 51.0637 184.022 53.2697C182.367 55.4757 180.011 57.1803 176.953 58.3836C173.944 59.5367 170.36 60.1133 166.198 60.1133H140.178V7.3949H165.221ZM164.469 28.377C166.374 28.377 167.878 27.9257 168.981 27.0233C170.084 26.0707 170.635 24.7672 170.635 23.1127C170.635 21.4582 170.084 20.1797 168.981 19.2772C167.878 18.3748 166.374 17.9486 164.469 17.9987H153.94V28.377H164.469ZM164.469 49.5847C166.875 49.5847 168.78 49.0833 170.184 48.0806C171.588 47.0277 172.29 45.5988 172.29 43.7939C172.29 42.0893 171.588 40.7356 170.184 39.7329C168.78 38.7301 166.875 38.2538 164.469 38.304H153.94V49.5847H164.469Z" fill="white"/>
<path d="M165.221 7.3949C169.232 7.3949 172.691 7.9464 175.599 9.0494C178.507 10.1524 180.763 11.6816 182.367 13.6369C183.972 15.5922 184.774 17.9486 184.774 20.7061C184.774 23.4636 183.947 25.8702 182.292 27.9257C180.688 29.9813 178.507 31.3852 175.749 32.1372C179.058 32.789 181.665 34.3181 183.571 36.7247C185.526 39.1312 186.504 42.0391 186.504 45.4484C186.504 48.4566 185.676 51.0637 184.022 53.2697C182.367 55.4757 180.011 57.1803 176.953 58.3836C173.944 59.5367 170.36 60.1133 166.198 60.1133H140.178V7.3949H165.221ZM164.469 28.377C166.374 28.377 167.878 27.9257 168.981 27.0233C170.084 26.0707 170.635 24.7672 170.635 23.1127C170.635 21.4582 170.084 20.1797 168.981 19.2772C167.878 18.3748 166.374 17.9486 164.469 17.9987H153.94V28.377H164.469ZM164.469 49.5847C166.875 49.5847 168.78 49.0833 170.184 48.0806C171.588 47.0277 172.29 45.5988 172.29 43.7939C172.29 42.0893 171.588 40.7356 170.184 39.7329C168.78 38.7301 166.875 38.2538 164.469 38.304H153.94V49.5847H164.469Z" fill="white"/>
<rect x="248.376" width="14.2311" height="14.2311" fill="#FF9447"/>
<rect x="418.053" y="7.66388" width="10.947" height="10.947" fill="#FFDC83"/>
<defs>
<linearGradient id="paint0_linear_783_1392" x1="46.0001" y1="1.38786" x2="46.0001" y2="93.2918" gradientUnits="userSpaceOnUse">
<stop offset='0' stop-color="#FFCC47"/>
<stop offset="0.441534" stop-color="#D31900"/>
<stop offset="0.663625" stop-color="#9747FF"/>
</linearGradient>
</defs>
</svg>
