<svg viewBox="0 0 195 64" fill="none" xmlns="http://www.w3.org/2000/svg">
<g clip-path="url(#clip0_987_508)">
<path d="M7.14226 37.7353C6.78635 37.3866 6.33503 37.1502 5.84492 37.056C5.35481 36.9622 4.84778 37.0148 4.38753 37.2071C3.92725 37.3995 3.53423 37.7234 3.25783 38.1376C2.98144 38.5522 2.83398 39.0388 2.83398 39.5365C2.83398 40.0342 2.98144 40.5208 3.25783 40.9354C3.53423 41.3499 3.92725 41.6735 4.38753 41.8658C4.84778 42.0585 5.35481 42.1111 5.84492 42.0169C6.33503 41.9228 6.78635 41.6867 7.14226 41.3376C7.38068 41.1019 7.56997 40.8214 7.69912 40.5123C7.82828 40.2032 7.89478 39.8714 7.89478 39.5365C7.89478 39.2016 7.82828 38.8701 7.69912 38.561C7.56997 38.2519 7.38068 37.9711 7.14226 37.7353Z" fill="white"/>
<path d="M59.1957 26.1508C59.5498 26.5043 60.0009 26.7451 60.4923 26.8428C60.9838 26.9404 61.4932 26.8905 61.9559 26.6994C62.4189 26.5084 62.8147 26.1846 63.0931 25.7692C63.3715 25.3538 63.5202 24.8653 63.5202 24.3657C63.5202 23.866 63.3715 23.3776 63.0931 22.9621C62.8147 22.5467 62.4189 22.223 61.9559 22.0319C61.4932 21.8408 60.9838 21.7909 60.4923 21.8886C60.0009 21.9862 59.5498 22.2271 59.1957 22.5806C58.9593 22.8143 58.7718 23.0924 58.644 23.3988C58.5162 23.7052 58.4502 24.0338 58.4502 24.3657C58.4502 24.6976 58.5162 25.0262 58.644 25.3325C58.7718 25.6389 58.9593 25.917 59.1957 26.1508Z" fill="white"/>
<path d="M15.2534 17.6567C15.7035 17.1783 15.9494 16.544 15.939 15.8881C15.9285 15.2322 15.6626 14.606 15.1975 14.1421C14.7324 13.6783 14.1045 13.4131 13.4468 13.4027C12.7891 13.3922 12.1531 13.6375 11.6735 14.0864L0.987149 24.7971C0.636333 25.1524 0.398275 25.6029 0.302735 26.0923C0.207193 26.5817 0.258401 27.0883 0.44996 27.5489C0.641522 28.0094 0.964935 28.4034 1.37978 28.6817C1.79463 28.96 2.28251 29.1101 2.78245 29.1134C3.11478 29.1142 3.4439 29.0485 3.75041 28.9204C4.05688 28.7923 4.33457 28.6042 4.56707 28.3674L15.2534 17.6567Z" fill="white"/>
<path d="M18.8338 27.3232C19.5059 27.3232 20.151 27.059 20.6291 26.5879L42.0978 5.15569C42.5741 4.68224 42.8421 4.03955 42.843 3.369C42.8439 2.69845 42.5779 2.05497 42.1032 1.58011C41.6285 1.10525 40.9839 0.837916 40.3117 0.836917C39.6394 0.835918 38.9942 1.10133 38.5179 1.57478L17.0491 23.0176C16.7116 23.3727 16.4848 23.8179 16.3962 24.2991C16.3075 24.7804 16.361 25.2769 16.55 25.7285C16.739 26.18 17.0555 26.567 17.4609 26.8426C17.8663 27.1181 18.3432 27.2703 18.8338 27.2806V27.3232Z" fill="white"/>
<path d="M52.8372 5.15546C52.6026 4.91991 52.3236 4.73296 52.0165 4.60538C51.7094 4.4778 51.3799 4.41211 51.0472 4.41211C50.7142 4.41211 50.3847 4.4778 50.0776 4.60538C49.7705 4.73296 49.4915 4.91991 49.2573 5.15546L6.3088 48.0199C6.07262 48.2535 5.88517 48.5318 5.75724 48.838C5.62932 49.1443 5.56348 49.473 5.56348 49.805C5.56348 50.1368 5.62932 50.4654 5.75724 50.7717C5.88517 51.078 6.07262 51.3563 6.3088 51.5901C6.5425 51.8269 6.82114 52.0151 7.12843 52.1435C7.43573 52.2716 7.76559 52.3377 8.09877 52.3377C8.43195 52.3377 8.76182 52.2716 9.06911 52.1435C9.37641 52.0151 9.65502 51.8269 9.88874 51.5901L52.8372 8.7257C53.309 8.25073 53.5735 7.60918 53.5735 6.94059C53.5735 6.272 53.309 5.63042 52.8372 5.15546Z" fill="white"/>
<path d="M59.9972 12.2961C59.7626 12.0605 59.4839 11.8736 59.1765 11.746C58.8694 11.6184 58.5399 11.5527 58.2072 11.5527C57.8745 11.5527 57.545 11.6184 57.2376 11.746C56.9305 11.8736 56.6518 12.0605 56.4173 12.2961L13.4689 55.1922C13.2324 55.4271 13.0447 55.7059 12.9166 56.0135C12.7886 56.3207 12.7227 56.65 12.7227 56.9827C12.7227 57.3157 12.7886 57.645 12.9166 57.9522C13.0447 58.2594 13.2324 58.5386 13.4689 58.7731C13.703 59.0073 13.9812 59.1927 14.2875 59.319C14.5938 59.4452 14.9221 59.5097 15.2535 59.5088C15.9257 59.5088 16.5707 59.2444 17.0488 58.7731L59.9972 15.8663C60.469 15.3913 60.7335 14.7498 60.7335 14.0812C60.7335 13.4126 60.469 12.771 59.9972 12.2961Z" fill="white"/>
<path d="M49.2574 37.2988C48.7811 36.8282 48.1379 36.5645 47.4675 36.5645C46.7968 36.5645 46.1535 36.8282 45.6772 37.2988L24.2406 58.7418C23.7904 59.2199 23.5446 59.8542 23.555 60.5102C23.5654 61.1662 23.8313 61.7923 24.2965 62.2563C24.7616 62.7199 25.3895 62.9853 26.0472 62.9957C26.7049 63.0061 27.3409 62.7609 27.8205 62.312L49.3 40.8797C49.7668 40.3975 50.0241 39.7509 50.0162 39.0805C50.0083 38.4103 49.7356 37.7701 49.2574 37.2988Z" fill="white"/>
<path d="M63.5765 37.2988C63.1002 36.8282 62.4569 36.5645 61.7865 36.5645C61.1161 36.5645 60.4729 36.8282 59.9966 37.2988L45.6768 51.5907C45.2052 52.0657 44.9404 52.7072 44.9404 53.3758C44.9404 54.0444 45.2052 54.6859 45.6768 55.1609C45.9107 55.3976 46.1894 55.5858 46.4965 55.7143C46.8039 55.8427 47.1337 55.9088 47.467 55.9088C47.8 55.9088 48.1299 55.8427 48.4373 55.7143C48.7444 55.5858 49.0231 55.3976 49.257 55.1609L63.5765 40.8797C64.049 40.4032 64.3141 39.7598 64.3141 39.0893C64.3141 38.4191 64.049 37.7757 63.5765 37.2988Z" fill="white"/>
<path d="M54.1626 27.632C53.8082 27.9851 53.5667 28.4352 53.4689 28.9253C53.3707 29.4153 53.4209 29.9233 53.6125 30.3849C53.8041 30.8466 54.1289 31.2413 54.5452 31.5189C54.9618 31.7966 55.4517 31.9448 55.9526 31.9448C56.4535 31.9448 56.9433 31.7966 57.36 31.5189C57.7766 31.2413 58.1011 30.8466 58.2927 30.3849C58.4843 29.9233 58.5344 29.4153 58.4363 28.9253C58.3384 28.4352 58.097 27.9851 57.7425 27.632C57.508 27.3965 57.2293 27.2095 56.9222 27.0819C56.6148 26.9544 56.2853 26.8887 55.9526 26.8887C55.6199 26.8887 55.2904 26.9544 54.9833 27.0819C54.6759 27.2095 54.3972 27.3965 54.1626 27.632Z" fill="white"/>
<path d="M27.35 5.94458C27.7044 5.59144 27.9459 5.1414 28.0438 4.65135C28.1417 4.16134 28.0918 3.65333 27.9001 3.19165C27.7085 2.72997 27.3839 2.33534 26.9674 2.05769C26.5508 1.78004 26.061 1.63184 25.56 1.63184C25.059 1.63184 24.5692 1.78004 24.1527 2.05769C23.7361 2.33534 23.4115 2.72997 23.2199 3.19165C23.0283 3.65333 22.9783 4.16134 23.0762 4.65135C23.1741 5.1414 23.4156 5.59144 23.7701 5.94458C24.2463 6.41511 24.8896 6.67909 25.56 6.67909C26.2304 6.67909 26.8737 6.41511 27.35 5.94458Z" fill="white"/>
<path d="M186.18 55.7583C185.773 55.7583 185.39 55.7266 185.033 55.6633C184.681 55.6049 184.39 55.5294 184.158 55.4369L184.882 53.114C185.26 53.226 185.599 53.2869 185.901 53.2966C186.208 53.3064 186.472 53.2382 186.693 53.0921C186.92 52.946 187.103 52.6977 187.244 52.347L187.433 51.8722L183.275 40.3311H186.655L189.055 48.5706H189.175L191.597 40.3311H195L190.496 52.7634C190.28 53.3672 189.985 53.8932 189.613 54.3412C189.246 54.7941 188.781 55.1423 188.217 55.3857C187.654 55.6341 186.975 55.7583 186.18 55.7583Z" fill="white"/>
<path d="M174.707 44.7473V51.4386H171.551V39.8646H174.559V41.9066H174.692C174.944 41.2335 175.366 40.701 175.959 40.3091C176.552 39.9123 177.27 39.7139 178.115 39.7139C178.905 39.7139 179.594 39.8897 180.182 40.2413C180.769 40.593 181.226 41.0953 181.552 41.7484C181.878 42.3964 182.041 43.17 182.041 44.0692V51.4386H178.885V44.6419C178.89 43.9335 178.712 43.381 178.352 42.9841C177.991 42.5822 177.495 42.3813 176.863 42.3813C176.438 42.3813 176.063 42.4742 175.737 42.6601C175.416 42.846 175.164 43.1172 174.981 43.4739C174.803 43.8255 174.712 44.25 174.707 44.7473Z" fill="white"/>
<path d="M163.1 51.4386C162.352 51.4386 161.686 51.3128 161.101 51.0613C160.516 50.8049 160.053 50.4276 159.713 49.9295C159.377 49.4265 159.209 48.8002 159.209 48.0506C159.209 47.4194 159.329 46.8892 159.568 46.4602C159.807 46.0311 160.132 45.6859 160.544 45.4246C160.956 45.1632 161.424 44.9659 161.948 44.8328C162.477 44.6996 163.031 44.6059 163.611 44.5517C164.293 44.4826 164.842 44.4185 165.259 44.3594C165.676 44.2952 165.979 44.2015 166.167 44.0783C166.355 43.955 166.449 43.7725 166.449 43.5309V43.4865C166.449 43.018 166.297 42.6555 165.992 42.3991C165.691 42.1426 165.264 42.0144 164.71 42.0144C164.125 42.0144 163.66 42.1402 163.314 42.3917C162.968 42.6383 162.739 42.9489 162.627 43.3237L159.621 43.087C159.774 42.3966 160.074 41.7999 160.521 41.2969C160.969 40.7889 161.546 40.3993 162.253 40.1281C162.965 39.852 163.789 39.7139 164.725 39.7139C165.376 39.7139 165.999 39.7878 166.594 39.9358C167.194 40.0837 167.726 40.313 168.189 40.6237C168.657 40.9344 169.026 41.3339 169.295 41.8221C169.565 42.3054 169.699 42.8848 169.699 43.5605V51.224H166.617V49.6484H166.526C166.337 50.0035 166.086 50.3166 165.77 50.5879C165.455 50.8542 165.076 51.0638 164.634 51.2166C164.191 51.3646 163.68 51.4386 163.1 51.4386ZM164.031 49.2638C164.509 49.2638 164.931 49.1725 165.297 48.9901C165.664 48.8027 165.951 48.5511 166.159 48.2355C166.368 47.9199 166.472 47.5624 166.472 47.1629V45.9572C166.371 46.0213 166.231 46.0805 166.053 46.1347C165.88 46.184 165.684 46.2309 165.465 46.2753C165.246 46.3147 165.028 46.3517 164.809 46.3862C164.59 46.4158 164.392 46.4429 164.214 46.4676C163.832 46.5218 163.499 46.6081 163.214 46.7265C162.93 46.8448 162.708 47.0051 162.551 47.2073C162.393 47.4046 162.314 47.6511 162.314 47.947C162.314 48.3761 162.474 48.704 162.795 48.9309C163.12 49.1528 163.532 49.2638 164.031 49.2638Z" fill="white"/>
<path d="M146.25 55.7582V39.8644H149.364V41.8059H149.505C149.644 41.4949 149.844 41.1788 150.106 40.8577C150.373 40.5316 150.719 40.2607 151.144 40.045C151.574 39.8242 152.108 39.7139 152.745 39.7139C153.576 39.7139 154.342 39.9346 155.044 40.3761C155.746 40.8126 156.307 41.4723 156.727 42.3553C157.148 43.2333 157.358 44.3345 157.358 45.659C157.358 46.9484 157.152 48.037 156.742 48.925C156.337 49.808 155.783 50.4778 155.081 50.9343C154.384 51.3859 153.603 51.6116 152.738 51.6116C152.125 51.6116 151.604 51.5088 151.174 51.3031C150.748 51.0974 150.4 50.839 150.128 50.528C149.856 50.2119 149.649 49.8933 149.505 49.5722H149.409V55.7582H146.25ZM149.342 45.6439C149.342 46.3313 149.436 46.9308 149.624 47.4425C149.812 47.9543 150.084 48.3531 150.439 48.6391C150.795 48.92 151.228 49.0605 151.737 49.0605C152.251 49.0605 152.686 48.9175 153.042 48.6316C153.398 48.3406 153.667 47.9392 153.85 47.4275C154.038 46.9107 154.132 46.3162 154.132 45.6439C154.132 44.9767 154.041 44.3897 153.858 43.883C153.675 43.3763 153.405 42.9799 153.05 42.694C152.694 42.408 152.256 42.265 151.737 42.265C151.223 42.265 150.788 42.403 150.432 42.6789C150.081 42.9548 149.812 43.3462 149.624 43.8529C149.436 44.3596 149.342 44.9566 149.342 45.6439Z" fill="white"/>
<path d="M127.737 51.4386V39.8646H130.768V41.9066H130.902C131.141 41.2284 131.539 40.6934 132.097 40.3016C132.654 39.9098 133.321 39.7139 134.097 39.7139C134.884 39.7139 135.553 39.9123 136.105 40.3091C136.658 40.701 137.026 41.2335 137.21 41.9066H137.33C137.563 41.2435 137.986 40.7135 138.599 40.3167C139.216 39.9148 139.945 39.7139 140.786 39.7139C141.856 39.7139 142.724 40.058 143.391 40.7462C144.063 41.4294 144.399 42.3989 144.399 43.6547V51.4386H141.226V44.2877C141.226 43.6447 141.057 43.1625 140.719 42.841C140.38 42.5195 139.957 42.3587 139.45 42.3587C138.872 42.3587 138.422 42.5446 138.098 42.9163C137.775 43.283 137.613 43.7678 137.613 44.3706V51.4386H134.53V44.2199C134.53 43.6522 134.369 43.2001 134.045 42.8636C133.727 42.527 133.306 42.3587 132.783 42.3587C132.43 42.3587 132.112 42.4491 131.828 42.63C131.549 42.8058 131.328 43.0544 131.164 43.3759C130.999 43.6924 130.917 44.0642 130.917 44.4911V51.4386H127.737Z" fill="white"/>
<path d="M119.715 51.4386C118.574 51.4386 117.587 51.1946 116.754 50.7067C115.927 50.2138 115.288 49.5288 114.837 48.6515C114.386 47.7694 114.161 46.7467 114.161 45.5836C114.161 44.4106 114.386 43.3855 114.837 42.5083C115.288 41.6261 115.927 40.941 116.754 40.4531C117.587 39.9603 118.574 39.7139 119.715 39.7139C120.856 39.7139 121.84 39.9603 122.668 40.4531C123.501 40.941 124.142 41.6261 124.593 42.5083C125.043 43.3855 125.269 44.4106 125.269 45.5836C125.269 46.7467 125.043 47.7694 124.593 48.6515C124.142 49.5288 123.501 50.2138 122.668 50.7067C121.84 51.1946 120.856 51.4386 119.715 51.4386ZM119.73 48.999C120.249 48.999 120.682 48.8511 121.03 48.5554C121.378 48.2548 121.64 47.8457 121.816 47.3283C121.997 46.8108 122.088 46.2218 122.088 45.5614C122.088 44.901 121.997 44.3121 121.816 43.7946C121.64 43.2771 121.378 42.868 121.03 42.5674C120.682 42.2668 120.249 42.1165 119.73 42.1165C119.206 42.1165 118.765 42.2668 118.407 42.5674C118.055 42.868 117.788 43.2771 117.607 43.7946C117.43 44.3121 117.342 44.901 117.342 45.5614C117.342 46.2218 117.43 46.8108 117.607 47.3283C117.788 47.8457 118.055 48.2548 118.407 48.5554C118.765 48.8511 119.206 48.999 119.73 48.999Z" fill="white"/>
<path d="M112.31 41.4733H109.084C109.025 41.0578 108.905 40.6888 108.723 40.3661C108.541 40.0386 108.308 39.76 108.023 39.5303C107.738 39.3005 107.409 39.1245 107.036 39.0023C106.668 38.8801 106.268 38.819 105.835 38.819C105.055 38.819 104.374 39.0121 103.795 39.3983C103.215 39.7796 102.766 40.3368 102.447 41.07C102.128 41.7984 101.968 42.6832 101.968 43.7243C101.968 44.7949 102.128 45.6943 102.447 46.4226C102.771 47.151 103.223 47.7009 103.802 48.0724C104.382 48.4439 105.052 48.6297 105.813 48.6297C106.241 48.6297 106.636 48.5735 106.999 48.461C107.368 48.3486 107.694 48.1848 107.979 47.9698C108.264 47.7498 108.5 47.4834 108.686 47.1705C108.878 46.8577 109.01 46.5009 109.084 46.1L112.31 46.1147C112.227 46.8039 112.018 47.4687 111.684 48.1091C111.355 48.7445 110.911 49.314 110.351 49.8175C109.796 50.3161 109.133 50.7121 108.362 51.0054C107.596 51.2938 106.729 51.438 105.762 51.438C104.416 51.438 103.213 51.1349 102.152 50.5287C101.096 49.9226 100.262 49.0452 99.6478 47.8964C99.0388 46.7477 98.7344 45.357 98.7344 43.7243C98.7344 42.0868 99.0438 40.6937 99.6625 39.5449C100.281 38.3962 101.121 37.5212 102.182 36.92C103.243 36.3138 104.436 36.0107 105.762 36.0107C106.636 36.0107 107.446 36.1329 108.193 36.3774C108.944 36.6218 109.609 36.9786 110.189 37.4479C110.768 37.9123 111.24 38.4817 111.603 39.1563C111.971 39.8309 112.207 40.6032 112.31 41.4733Z" fill="white"/>
<path d="M84.5999 51.438C83.5692 51.438 82.6795 51.2523 81.9308 50.881C81.1821 50.5096 80.606 50.0064 80.2025 49.3712C79.8038 48.7312 79.6045 48.0178 79.6045 47.2312C79.6045 46.6449 79.7212 46.1245 79.9545 45.6702C80.1879 45.2158 80.5136 44.798 80.9317 44.4169C81.3498 44.0309 81.836 43.6474 82.3902 43.2663L85.2854 41.3535C85.6597 41.1141 85.9344 40.8624 86.1094 40.5986C86.2845 40.3299 86.372 40.0392 86.372 39.7265C86.372 39.4284 86.2529 39.1524 86.0146 38.8983C85.7764 38.6442 85.4385 38.5196 85.001 38.5245C84.7093 38.5245 84.4565 38.5905 84.2426 38.7224C84.0286 38.8494 83.8609 39.018 83.7394 39.2281C83.6227 39.4333 83.5643 39.6629 83.5643 39.917C83.5643 40.2297 83.6519 40.5473 83.8269 40.8698C84.0019 41.1922 84.2353 41.5342 84.527 41.8958C84.8187 42.2525 85.1371 42.6385 85.4823 43.0538L92.5634 51.2181H89.3255L83.4185 44.6075C83.0296 44.1629 82.6406 43.6987 82.2517 43.215C81.8676 42.7264 81.5467 42.2085 81.2891 41.6613C81.0314 41.1092 80.9026 40.5107 80.9026 39.8657C80.9026 39.1377 81.0703 38.483 81.4058 37.9016C81.7461 37.3202 82.2225 36.8609 82.8351 36.5238C83.4477 36.1817 84.1623 36.0107 84.9791 36.0107C85.7764 36.0107 86.4644 36.1744 87.0429 36.5018C87.6263 36.8242 88.0736 37.2542 88.3847 37.7917C88.7007 38.3242 88.8587 38.9105 88.8587 39.5506C88.8587 40.259 88.6837 40.9015 88.3337 41.4781C87.9885 42.0497 87.5023 42.5627 86.8752 43.0171L83.8269 45.2231C83.4136 45.526 83.1073 45.8363 82.908 46.1539C82.7135 46.4666 82.6163 46.767 82.6163 47.0553C82.6163 47.412 82.7038 47.732 82.8788 48.0154C83.0539 48.2988 83.3018 48.5235 83.6227 48.6896C83.9436 48.8509 84.3203 48.9315 84.753 48.9315C85.2781 48.9315 85.7959 48.8118 86.3063 48.5724C86.8217 48.3281 87.2884 47.9836 87.7065 47.539C88.1295 47.0895 88.4674 46.5569 88.7202 45.9413C88.973 45.3257 89.0994 44.6441 89.0994 43.8966H91.6737C91.6737 44.8151 91.574 45.6433 91.3747 46.3811C91.1753 47.1139 90.8982 47.754 90.5433 48.3012C90.1884 48.8435 89.7825 49.2882 89.3255 49.6351C89.1796 49.7279 89.0386 49.8158 88.9025 49.8989C88.7664 49.982 88.6254 50.0699 88.4795 50.1627C87.9253 50.6122 87.3054 50.9372 86.6199 51.1375C85.9393 51.3378 85.2659 51.438 84.5999 51.438Z" fill="white"/>
<path d="M150.023 21.9143V28.6055H146.867V17.0316H149.875V19.0736H150.008C150.26 18.4004 150.683 17.868 151.275 17.4761C151.868 17.0793 152.587 16.8809 153.431 16.8809C154.221 16.8809 154.91 17.0567 155.498 17.4083C156.086 17.76 156.543 18.2623 156.869 18.9153C157.195 19.5634 157.358 20.337 157.358 21.2362V28.6055H154.202V21.8088C154.207 21.1005 154.029 20.548 153.668 20.1511C153.308 19.7492 152.811 19.5483 152.179 19.5483C151.754 19.5483 151.379 19.6412 151.053 19.8271C150.732 20.013 150.48 20.2842 150.297 20.6409C150.12 20.9925 150.028 21.417 150.023 21.9143Z" fill="white"/>
<path d="M140.825 28.6058V17.2229H144.254V28.6058H140.825ZM142.548 15.7556C142.038 15.7556 141.6 15.5999 141.236 15.2887C140.876 14.9725 140.696 14.5945 140.696 14.1548C140.696 13.7201 140.876 13.3471 141.236 13.0358C141.6 12.7196 142.038 12.5615 142.548 12.5615C143.057 12.5615 143.492 12.7196 143.851 13.0358C144.216 13.3471 144.399 13.7201 144.399 14.1548C144.399 14.5945 144.216 14.9725 143.851 15.2887C143.492 15.5999 143.057 15.7556 142.548 15.7556Z" fill="white"/>
<path d="M127.737 28.4199V13.1787H130.896V18.909H130.992C131.131 18.6014 131.331 18.2889 131.593 17.9713C131.86 17.6489 132.206 17.3809 132.631 17.1676C133.061 16.9493 133.595 16.8402 134.233 16.8402C135.063 16.8402 135.829 17.0585 136.531 17.4951C137.233 17.9267 137.794 18.5791 138.215 19.4523C138.635 20.3205 138.845 21.4095 138.845 22.7193C138.845 23.9944 138.64 25.071 138.229 25.9491C137.824 26.8223 137.27 27.4847 136.569 27.9361C135.872 28.3827 135.09 28.6059 134.225 28.6059C133.612 28.6059 133.091 28.5042 132.661 28.3008C132.236 28.0974 131.887 27.8419 131.615 27.5343C131.343 27.2217 131.136 26.9067 130.992 26.5892H130.852V28.4199H127.737ZM130.829 22.7044C130.829 23.3841 130.923 23.977 131.111 24.4831C131.299 24.9891 131.571 25.3836 131.927 25.6663C132.283 25.9442 132.715 26.0831 133.224 26.0831C133.738 26.0831 134.173 25.9417 134.529 25.6589C134.885 25.3711 135.155 24.9742 135.338 24.4682C135.525 23.9572 135.619 23.3693 135.619 22.7044C135.619 22.0446 135.528 21.4641 135.345 20.963C135.162 20.4619 134.893 20.07 134.537 19.7872C134.181 19.5044 133.743 19.363 133.224 19.363C132.71 19.363 132.275 19.4994 131.919 19.7723C131.568 20.0452 131.299 20.4322 131.111 20.9332C130.923 21.4343 130.829 22.0247 130.829 22.7044Z" fill="white"/>
<path d="M122.102 24.144V17.498H125.269V29.072H122.228V26.9697H122.109C121.851 27.6479 121.423 28.1929 120.823 28.6048C120.228 29.0168 119.502 29.2227 118.644 29.2227C117.881 29.2227 117.21 29.0469 116.63 28.6953C116.05 28.3436 115.596 27.8438 115.269 27.1958C114.947 26.5478 114.783 25.7716 114.778 24.8674V17.498H117.946V24.2947C117.951 24.9779 118.131 25.518 118.488 25.9148C118.845 26.3117 119.323 26.5101 119.923 26.5101C120.305 26.5101 120.662 26.4222 120.994 26.2463C121.326 26.0655 121.594 25.7993 121.797 25.4476C122.005 25.096 122.107 24.6615 122.102 24.144Z" fill="white"/>
<path d="M106.14 28.6055V17.0464H109.148V19.0632H109.264C109.468 18.3458 109.81 17.804 110.291 17.4377C110.772 17.0665 111.325 16.8809 111.952 16.8809C112.107 16.8809 112.275 16.8909 112.454 16.911C112.634 16.931 112.792 16.9586 112.928 16.9937V19.8384C112.782 19.7932 112.58 19.7531 112.323 19.718C112.066 19.6828 111.83 19.6653 111.617 19.6653C111.16 19.6653 110.752 19.7681 110.393 19.9738C110.039 20.1745 109.757 20.4555 109.548 20.8167C109.344 21.1779 109.242 21.5943 109.242 22.0659V28.6055H106.14Z" fill="white"/>
<path d="M97.0717 28.6055C96.324 28.6055 95.6577 28.4798 95.0728 28.2283C94.4878 27.9718 94.025 27.5946 93.6842 27.0965C93.3485 26.5935 93.1807 25.9672 93.1807 25.2176C93.1807 24.5864 93.3002 24.0562 93.5392 23.6272C93.7783 23.1981 94.1038 22.8529 94.5158 22.5916C94.9278 22.3302 95.3958 22.1329 95.9196 21.9998C96.4486 21.8666 97.003 21.7729 97.5829 21.7187C98.2644 21.6496 98.8137 21.5855 99.2308 21.5263C99.6479 21.4622 99.9505 21.3685 100.139 21.2453C100.327 21.122 100.421 20.9395 100.421 20.6979V20.6535C100.421 20.185 100.268 19.8225 99.9633 19.5661C99.6632 19.3096 99.2359 19.1814 98.6815 19.1814C98.0966 19.1814 97.6312 19.3072 97.2853 19.5587C96.9394 19.8052 96.7106 20.1159 96.5987 20.4907L93.5927 20.254C93.7452 19.5636 94.0453 18.9669 94.4929 18.4639C94.9405 17.9559 95.5178 17.5663 96.2248 17.2951C96.9369 17.0189 97.7609 16.8809 98.6968 16.8809C99.3478 16.8809 99.9709 16.9548 100.566 17.1028C101.166 17.2507 101.698 17.48 102.161 17.7907C102.628 18.1014 102.997 18.5009 103.267 18.9891C103.536 19.4724 103.671 20.0518 103.671 20.7274V28.391H100.589V26.8154H100.497C100.309 27.1705 100.057 27.4836 99.742 27.7549C99.4266 28.0212 99.0477 28.2307 98.6052 28.3836C98.1627 28.5316 97.6515 28.6055 97.0717 28.6055ZM98.0025 26.4307C98.4806 26.4307 98.9028 26.3395 99.269 26.157C99.6352 25.9696 99.9226 25.7181 100.131 25.4025C100.34 25.0869 100.444 24.7294 100.444 24.3299V23.1242C100.342 23.1883 100.202 23.2474 100.024 23.3017C99.8514 23.351 99.6555 23.3979 99.4368 23.4422C99.2181 23.4817 98.9994 23.5187 98.7807 23.5532C98.562 23.5828 98.3636 23.6099 98.1856 23.6346C97.8041 23.6888 97.471 23.7751 97.1861 23.8935C96.9013 24.0118 96.68 24.1721 96.5224 24.3743C96.3647 24.5716 96.2859 24.8181 96.2859 25.114C96.2859 25.5431 96.4461 25.871 96.7665 26.0979C97.092 26.3198 97.504 26.4307 98.0025 26.4307Z" fill="white"/>
<path d="M79.6194 28.6059V26.67L87.2517 15.8679H79.6045V13.1787H91.3142V15.1146L83.6745 25.9167H91.3292V28.6059H79.6194Z" fill="white"/>
</g>
<defs>
<clipPath id="clip0_987_508">
<rect width="195" height="62.326" fill="white" transform="translate(0 0.836914)"/>
</clipPath>
</defs>
</svg>
