<svg viewBox="0 0 80 74" fill="none" xmlns="http://www.w3.org/2000/svg">
<g clip-path="url(#clip0_2793_1249)">
<mask id="mask0_2793_1249" style="mask-type:alpha" maskUnits="userSpaceOnUse" x="-7" y="32" width="85" height="59">
<rect x="-6.45068" y="32.4578" width="84.1504" height="2.58403" fill="#D9D9D9"/>
<rect x="-6.45068" y="35.5586" width="84.1504" height="2.58403" fill="#D9D9D9"/>
<rect x="-6.45068" y="38.6594" width="84.1504" height="2.58403" fill="#D9D9D9"/>
<rect x="-6.45068" y="41.7603" width="84.1504" height="2.58403" fill="#D9D9D9"/>
<rect x="-6.45068" y="44.8611" width="84.1504" height="2.58403" fill="#D9D9D9"/>
<rect x="-6.45068" y="47.9619" width="84.1504" height="2.58403" fill="#D9D9D9"/>
<rect x="-6.45068" y="51.0627" width="84.1504" height="2.58403" fill="#D9D9D9"/>
</mask>
<g mask="url(#mask0_2793_1249)">
<path d="M66.2039 39.479H78.3098V42.4733H74.0798V53.6612H70.3936V42.4733H66.2039V39.479Z" fill="white"/>
<path d="M66.2039 39.479H78.3098V42.4733H74.0798V53.6612H70.3936V42.4733H66.2039V39.479Z" fill="url(#paint0_linear_2793_1249)"/>
<path d="M51.6169 39.479H55.3031V45.2854H61.0036V39.479H64.6897V53.6612H61.0036V48.1987H55.3031V53.6612H51.6169V39.479Z" fill="white"/>
<path d="M51.6169 39.479H55.3031V45.2854H61.0036V39.479H64.6897V53.6612H61.0036V48.1987H55.3031V53.6612H51.6169V39.479Z" fill="url(#paint1_linear_2793_1249)"/>
<path d="M47.2429 43.93C46.746 43.431 46.1619 43.0466 45.4904 42.7769C44.8324 42.4936 44.1744 42.352 43.5164 42.352C42.939 42.352 42.4085 42.4599 41.9251 42.6757C41.4417 42.8915 41.0187 43.1882 40.6561 43.5659C40.2935 43.9435 40.0115 44.3886 39.8101 44.9012C39.6221 45.4137 39.5281 45.9667 39.5281 46.5601C39.5281 47.1671 39.6288 47.7268 39.8302 48.2393C40.0317 48.7519 40.3137 49.2037 40.6762 49.5948C41.0388 49.9725 41.4618 50.2692 41.9453 50.485C42.4421 50.7008 42.9793 50.8087 43.5567 50.8087C44.067 50.8087 44.6444 50.6873 45.289 50.4446C45.947 50.1883 46.5446 49.8579 47.0817 49.4532L49.1766 52.0631C48.6797 52.4138 48.0956 52.7307 47.4241 53.014C46.7661 53.2972 46.0746 53.5197 45.3494 53.6816C44.6377 53.8434 43.9528 53.9244 43.2948 53.9244C42.2205 53.9244 41.2201 53.7423 40.2935 53.3781C39.3804 53.0005 38.5814 52.4812 37.8965 51.8203C37.2117 51.1594 36.6812 50.3771 36.3052 49.4735C35.9292 48.5698 35.7412 47.5987 35.7412 46.5601C35.7412 45.5216 35.9359 44.5572 36.3254 43.667C36.7148 42.7769 37.2586 42.0013 37.9569 41.3404C38.6687 40.6795 39.4945 40.167 40.4345 39.8028C41.388 39.4387 42.422 39.2566 43.5366 39.2566C44.2348 39.2566 44.9331 39.3443 45.6314 39.5196C46.3431 39.6949 47.0146 39.9377 47.6457 40.2479C48.2903 40.5581 48.8543 40.9358 49.3377 41.3809L47.2429 43.93ZM45.994 46.4387H49.1766V52.0631H45.994V46.4387Z" fill="white"/>
<path d="M47.2429 43.93C46.746 43.431 46.1619 43.0466 45.4904 42.7769C44.8324 42.4936 44.1744 42.352 43.5164 42.352C42.939 42.352 42.4085 42.4599 41.9251 42.6757C41.4417 42.8915 41.0187 43.1882 40.6561 43.5659C40.2935 43.9435 40.0115 44.3886 39.8101 44.9012C39.6221 45.4137 39.5281 45.9667 39.5281 46.5601C39.5281 47.1671 39.6288 47.7268 39.8302 48.2393C40.0317 48.7519 40.3137 49.2037 40.6762 49.5948C41.0388 49.9725 41.4618 50.2692 41.9453 50.485C42.4421 50.7008 42.9793 50.8087 43.5567 50.8087C44.067 50.8087 44.6444 50.6873 45.289 50.4446C45.947 50.1883 46.5446 49.8579 47.0817 49.4532L49.1766 52.0631C48.6797 52.4138 48.0956 52.7307 47.4241 53.014C46.7661 53.2972 46.0746 53.5197 45.3494 53.6816C44.6377 53.8434 43.9528 53.9244 43.2948 53.9244C42.2205 53.9244 41.2201 53.7423 40.2935 53.3781C39.3804 53.0005 38.5814 52.4812 37.8965 51.8203C37.2117 51.1594 36.6812 50.3771 36.3052 49.4735C35.9292 48.5698 35.7412 47.5987 35.7412 46.5601C35.7412 45.5216 35.9359 44.5572 36.3254 43.667C36.7148 42.7769 37.2586 42.0013 37.9569 41.3404C38.6687 40.6795 39.4945 40.167 40.4345 39.8028C41.388 39.4387 42.422 39.2566 43.5366 39.2566C44.2348 39.2566 44.9331 39.3443 45.6314 39.5196C46.3431 39.6949 47.0146 39.9377 47.6457 40.2479C48.2903 40.5581 48.8543 40.9358 49.3377 41.3809L47.2429 43.93ZM45.994 46.4387H49.1766V52.0631H45.994V46.4387Z" fill="url(#paint2_linear_2793_1249)"/>
<path d="M30.2151 39.479H33.9013V53.6612H30.2151V39.479Z" fill="white"/>
<path d="M30.2151 39.479H33.9013V53.6612H30.2151V39.479Z" fill="url(#paint3_linear_2793_1249)"/>
<path d="M21.984 39.479C23.864 39.479 25.3143 39.9174 26.3348 40.794C27.3554 41.6573 27.8657 42.8779 27.8657 44.4559C27.8657 46.1149 27.3554 47.4097 26.3348 48.3404C25.3143 49.2575 23.864 49.7161 21.984 49.7161H19.3251V53.6612H15.6389V39.479H21.984ZM21.984 46.8028C22.7494 46.8028 23.3335 46.614 23.7364 46.2363C24.1527 45.8586 24.3608 45.2989 24.3608 44.5571C24.3608 43.8422 24.1527 43.3027 23.7364 42.9386C23.3335 42.5744 22.7494 42.3923 21.984 42.3923H19.3251V46.8028H21.984ZM21.3394 48.3606H24.9248L28.2887 53.6612H24.1191L21.3394 48.3606Z" fill="white"/>
<path d="M21.984 39.479C23.864 39.479 25.3143 39.9174 26.3348 40.794C27.3554 41.6573 27.8657 42.8779 27.8657 44.4559C27.8657 46.1149 27.3554 47.4097 26.3348 48.3404C25.3143 49.2575 23.864 49.7161 21.984 49.7161H19.3251V53.6612H15.6389V39.479H21.984ZM21.984 46.8028C22.7494 46.8028 23.3335 46.614 23.7364 46.2363C24.1527 45.8586 24.3608 45.2989 24.3608 44.5571C24.3608 43.8422 24.1527 43.3027 23.7364 42.9386C23.3335 42.5744 22.7494 42.3923 21.984 42.3923H19.3251V46.8028H21.984ZM21.3394 48.3606H24.9248L28.2887 53.6612H24.1191L21.3394 48.3606Z" fill="url(#paint4_linear_2793_1249)"/>
<path d="M7.92783 39.479C9.00213 39.479 9.9287 39.6274 10.7076 39.9241C11.4864 40.2208 12.0907 40.6322 12.5204 41.1582C12.9502 41.6842 13.165 42.3181 13.165 43.06C13.165 43.8018 12.9434 44.4492 12.5003 45.0022C12.0706 45.5552 11.4864 45.9328 10.7479 46.1351C11.6341 46.3105 12.3324 46.7219 12.8427 47.3693C13.3664 48.0167 13.6283 48.7989 13.6283 49.7161C13.6283 50.5254 13.4067 51.2267 12.9636 51.8202C12.5204 52.4136 11.8893 52.8722 11.0701 53.1959C10.2644 53.5061 9.30427 53.6612 8.18969 53.6612H1.22021V39.479H7.92783ZM7.7264 45.1236C8.23669 45.1236 8.63955 45.0022 8.93498 44.7594C9.23041 44.5031 9.37813 44.1525 9.37813 43.7074C9.37813 43.2623 9.23041 42.9183 8.93498 42.6756C8.63955 42.4328 8.23669 42.3181 7.7264 42.3316H4.90638V45.1236H7.7264ZM7.7264 50.8288C8.37098 50.8288 8.88127 50.694 9.25727 50.4242C9.63327 50.141 9.82127 49.7566 9.82127 49.271C9.82127 48.8124 9.63327 48.4483 9.25727 48.1785C8.88127 47.9088 8.37098 47.7806 7.7264 47.7941H4.90638V50.8288H7.7264Z" fill="white"/>
<path d="M7.92783 39.479C9.00213 39.479 9.9287 39.6274 10.7076 39.9241C11.4864 40.2208 12.0907 40.6322 12.5204 41.1582C12.9502 41.6842 13.165 42.3181 13.165 43.06C13.165 43.8018 12.9434 44.4492 12.5003 45.0022C12.0706 45.5552 11.4864 45.9328 10.7479 46.1351C11.6341 46.3105 12.3324 46.7219 12.8427 47.3693C13.3664 48.0167 13.6283 48.7989 13.6283 49.7161C13.6283 50.5254 13.4067 51.2267 12.9636 51.8202C12.5204 52.4136 11.8893 52.8722 11.0701 53.1959C10.2644 53.5061 9.30427 53.6612 8.18969 53.6612H1.22021V39.479H7.92783ZM7.7264 45.1236C8.23669 45.1236 8.63955 45.0022 8.93498 44.7594C9.23041 44.5031 9.37813 44.1525 9.37813 43.7074C9.37813 43.2623 9.23041 42.9183 8.93498 42.6756C8.63955 42.4328 8.23669 42.3181 7.7264 42.3316H4.90638V45.1236H7.7264ZM7.7264 50.8288C8.37098 50.8288 8.88127 50.694 9.25727 50.4242C9.63327 50.141 9.82127 49.7566 9.82127 49.271C9.82127 48.8124 9.63327 48.4483 9.25727 48.1785C8.88127 47.9088 8.37098 47.7806 7.7264 47.7941H4.90638V50.8288H7.7264Z" fill="url(#paint5_linear_2793_1249)"/>
</g>
</g>
<path d="M64.3708 58.8093H76.5419V62.4375H69.1325V64.2104H75.8646V67.8385H69.1325V69.632H76.7266V73.2602H64.3708V58.8093Z" fill="white"/>
<path d="M50.2988 58.8093H63.2498V62.5818H59.1449V73.2602H54.3832V62.5818H50.2988V58.8093Z" fill="white"/>
<path d="M35.239 58.8093H39.9802L42.8741 64.3753L45.6655 58.8093H50.4066L43.1409 72.8479H42.5663L35.239 58.8093ZM40.4933 66.7253H45.255V73.2602H40.4933V66.7253Z" fill="white"/>
<path d="M28.9046 58.8093C30.0677 58.8093 31.0734 58.9605 31.9217 59.2628C32.77 59.5652 33.4268 59.9912 33.8921 60.541C34.371 61.0769 34.6104 61.716 34.6104 62.4581C34.6104 63.1727 34.3915 63.8118 33.9536 64.3753C33.5158 64.925 32.9274 65.3167 32.1885 65.5503C33.0506 65.7427 33.7415 66.1756 34.2615 66.849C34.7814 67.5087 35.0414 68.292 35.0414 69.1991C35.0414 70.0237 34.802 70.7452 34.3231 71.3636C33.8442 71.9683 33.1737 72.4356 32.3117 72.7654C31.4496 73.0952 30.4303 73.2602 29.2535 73.2602H21.6184V58.8093H28.9046ZM28.6378 64.3753C28.9662 64.3753 29.2262 64.2791 29.4177 64.0867C29.623 63.8943 29.7256 63.64 29.7256 63.3239C29.7256 63.0078 29.623 62.7605 29.4177 62.5818C29.2262 62.4031 28.9662 62.3138 28.6378 62.3138H26.3596V64.3753H28.6378ZM28.6378 69.7557C29.0756 69.7557 29.4246 69.6526 29.6845 69.4465C29.9582 69.2266 30.095 68.9448 30.095 68.6013C30.095 68.2852 29.9582 68.0309 29.6845 67.8385C29.4246 67.6461 29.0756 67.5499 28.6378 67.5499H26.3596V69.7557H28.6378Z" fill="white"/>
<path d="M8.20982 58.5429L19.2051 69.5864L19.2051 58.5429L8.20982 58.5429Z" fill="#AE5CFF"/>
<g clip-path="url(#clip1_2793_1249)">
<mask id="mask1_2793_1249" style="mask-type:alpha" maskUnits="userSpaceOnUse" x="0" y="2" width="70" height="65">
<rect y="2.12402" width="69.4901" height="3.90074" fill="#D9D9D9"/>
<rect y="6.80493" width="69.4901" height="3.90074" fill="#D9D9D9"/>
<rect y="11.4858" width="69.4901" height="3.90074" fill="#D9D9D9"/>
<rect y="16.1667" width="69.4901" height="3.90074" fill="#D9D9D9"/>
<rect y="20.8477" width="69.4901" height="3.90074" fill="#D9D9D9"/>
<rect y="25.5286" width="69.4901" height="3.90074" fill="#D9D9D9"/>
<rect y="30.2092" width="69.4901" height="3.90074" fill="#D9D9D9"/>
</mask>
<g mask="url(#mask1_2793_1249)">
<ellipse cx="28.9911" cy="31.2427" rx="28.1059" ry="28.2292" fill="url(#paint6_linear_2793_1249)"/>
</g>
<path fill-rule="evenodd" clip-rule="evenodd" d="M18.8046 23.0513C18.7595 23.133 18.7664 23.2223 18.8029 23.3108C17.7842 24.2911 16.7136 25.4027 16.2973 26.11C16.2069 26.2637 16.1439 26.3995 16.1039 26.5197C14.4069 28.9913 10.0057 35.1806 3.37482 42.9513C0.347582 46.499 -1.22797 48.5115 -2.50439 50.142C-4.87821 53.1743 -6.21743 54.8849 -13.9356 62.6903C-15.137 63.9065 -16.3135 64.8087 -17.3028 65.5135C-17.3014 65.4885 -17.4149 65.5625 -17.5685 65.7014C-17.5724 65.7041 -17.5762 65.7068 -17.5801 65.7095C-18.5184 66.2734 -21.5754 67.7944 -22.6045 66.9879C-23.0926 66.605 -23.7479 67.1779 -23.7479 67.1779L-23.7495 67.1807L-14.7587 72.4086C-14.5928 72.2883 -14.5828 71.9903 -14.5698 71.6034C-14.5525 71.0894 -14.53 70.4183 -14.1296 69.7983C-14.0652 69.7161 -13.9748 69.6006 -13.8599 69.4538C-13.8441 69.4362 -13.8312 69.4196 -13.8209 69.404C-10.4516 65.0974 11.9841 36.3588 19.0852 25.669C19.3908 25.372 19.7088 25.0605 20.0164 24.7565C18.9469 26.3073 17.9769 27.6594 17.9359 27.7165L17.8152 27.8178L18.3127 27.6962L17.3898 28.8473L18.1045 28.3236L17.1727 29.3888L16.2645 30.7173L16.7951 30.0756L16.4398 30.7679L16.4728 30.8311L15.9461 31.3394L15.8723 31.4103L16.5193 31.2068L15.4272 31.9036L16.2034 31.8119L15.5843 32.2775L16.0955 32.1638C15.6975 32.303 15.3053 32.8821 15.3053 32.8821C15.7252 32.3374 16.0852 32.4036 16.0852 32.4036C16.0852 32.4036 15.2158 33.2337 15.1528 33.2924C15.0897 33.3512 15.8208 32.9764 15.8208 32.9764L14.8277 33.907L15.8741 33.5431L14.893 34.4403L15.6967 33.9206L14.6355 35.1785L15.34 34.5204C14.7028 35.4928 14.164 35.7556 14.164 35.7556C15.0177 35.4154 15.5812 34.5836 15.5812 34.5836C17.9089 31.6178 19.967 27.3011 21.2988 24.1594C21.4288 24.1763 21.534 24.1884 21.5995 24.1933C21.4771 25.4309 20.9874 26.4336 20.9874 26.4336L20.2498 28.2392L21.0434 27.0018L20.0672 28.8412L20.7987 28.0411L19.6961 30.049L20.9494 28.8001L19.5273 30.6334L20.6526 29.765L19.0173 31.5183L20.6045 30.3681L18.7844 31.9222L20.0882 31.1687L18.6618 32.6104L20.1781 31.7163L18.6479 33.1161L20.2472 32.3252L18.23 34.0692L20.2 32.8444L18.8972 34.2553L19.9192 33.6865L18.4206 35.4752L19.9697 34.1122L18.4461 36.1725L19.9297 34.6759L18.849 36.1389L19.6501 35.4526L18.9257 37.6219C18.9257 37.6219 21.488 33.3035 22.2124 30.0629C22.5405 28.5953 22.4416 27.0029 22.2352 25.6996L22.5122 25.5883L22.693 26.7832L22.9093 26.3255L22.8759 27.594L23.1073 26.7489L23.1806 29.3342L23.4383 27.778L23.381 30.5772L23.8027 29.1676L23.8132 30.9937L24.126 30.1151L24.1065 31.7586L24.3089 30.7168L24.032 33.3077L24.542 31.2376L24.4352 33.7109L24.8575 31.8247L24.8089 34.7611L25.0164 33.9131L25.0825 36.4539L25.5528 33.9205L25.8633 35.1247C25.8633 35.1247 25.8541 27.7444 24.7984 25.8683C24.7176 25.725 24.6277 25.5852 24.5305 25.4493L24.5197 25.0971L26.4152 26.9992L25.7132 25.8975L27.4388 27.4036L26.7545 26.0113L28.4452 28.763L27.8266 26.8512L29.095 29.1188L28.5659 27.1784L29.7313 29.764L29.3219 27.3942L30.4214 30.8991L30.0615 28.3673L31.0542 31.1386L30.8688 28.5322L32.1385 30.9179L31.504 28.8245L32.7646 30.6619L32.4291 29.5899L33.8294 31.204L32.9971 29.7073L34.7682 31.7682L33.6914 30.0047L35.6083 32.1613L34.5367 30.731L36.9202 32.693C36.9202 32.693 32.7519 27.1982 29.0057 24.7739C27.318 23.6835 25.2563 23.1363 23.5004 22.8642C24.565 22.7813 25.5859 22.7782 25.5859 22.7782L24.2093 22.3778L25.9336 22.6502L25.6321 22.2988L26.9355 22.8769L26.1097 22.1546L28.2073 23.1358L26.9113 22.0189L28.8366 23.2228L28.4836 22.2507L29.4007 23.0555L29.1901 22.28L30.2702 23.3153L29.604 22.3225L30.8449 23.4146L30.1767 22.2922L31.3511 23.5695L30.2507 21.8216C30.9234 22.3595 31.7288 23.9029 31.7288 23.9029L31.2314 22.5349C31.5948 23.0241 31.8319 23.8254 31.9662 24.2795C32.0394 24.5271 32.0822 24.6715 32.0982 24.6057C32.1002 24.5958 32.1026 24.5789 32.1023 24.5604C32.1137 24.2808 31.9059 23.228 31.9059 23.228C32.3751 24.176 33.0706 24.7565 33.1181 24.6741L32.5535 23.7587C32.5535 23.7587 33.2561 23.8517 33.8556 25.4735C33.8556 25.4735 33.7274 24.9733 33.4951 24.2292C33.4154 23.981 32.9822 23.3255 32.9822 23.3255L34.9466 25.818C34.4921 24.2805 33.2994 22.9082 33.2994 22.9082C34.4191 23.8051 35.1361 25.7301 35.1361 25.7301C33.715 20.5521 28.5268 20.566 26.9157 20.6676C26.4783 20.6951 25.8608 20.8326 25.1934 21.0182L25.1472 20.8206L26.2998 20.6653L25.8953 20.4227L27.0937 20.4922L26.7347 20.1073L28.7802 20.2217L27.7448 19.5462L29.9851 20.0454L28.8378 19.3232L30.4311 19.6076L29.6394 19.2572L31.1919 19.3271L30.2321 19.0845L32.7123 19.459L31.8933 18.9278L33.2766 19.3102L32.3478 18.5132L34.0182 18.6003L33.349 18.424L34.7047 18.284C34.7047 18.284 29.7506 17.6414 27.0105 18.0491C27.6006 17.4289 28.0973 16.8079 28.4177 16.2243C30.027 13.2928 28.6817 9.63754 28.6817 9.63754L28.912 12.1344L28.37 10.6157L28.588 12.2909L28.1512 11.2994L28.3694 12.949C28.3694 12.949 27.6531 11.4537 27.7418 11.6484C27.8278 11.8415 28.4184 13.5168 28.4184 13.5168L27.5731 12.2327L28.1456 13.6921L27.2369 12.5877L28.0239 14.5497L27.408 13.7549L27.4348 15.0584L27.1769 13.9911L27.0704 15.2977L26.867 14.2182L26.8101 15.5464L26.1846 14.6543L26.2723 16.4921L25.8576 15.0695L25.8925 15.7525L24.8288 16.3279L25.5654 15.3986L24.8716 15.7657L25.5406 14.9916L24.951 15.3128L24.9589 15.2864L25.8599 14.1462L25.0823 14.8592L25.0894 14.8341L26.435 13.2624L25.3231 13.9809L26.0962 13.2672L25.4343 13.4802L25.446 13.4295L26.4297 12.7457L25.5199 13.0973L25.5243 13.0772L26.4433 12.405L25.6114 12.7138L26.5833 11.9214L25.6828 12.2967L25.6883 12.2673L26.6828 11.3812L25.7688 11.8514L26.6071 11.0436L25.825 11.5575L26.7705 10.5002L25.8865 11.2226L26.7352 9.94029L25.93 10.8045L25.9408 10.7278L26.7886 9.29623L26.0649 10.2476L26.7932 8.54672L26.1907 9.55397L26.8308 7.721L26.211 8.94202L26.7679 7.33583L26.0632 8.92286C25.5564 9.4655 22.9896 12.3388 21.6669 16.215C21.9423 13.3928 22.1021 10.1769 21.5608 9.10007L21.5111 9.91509C21.5111 9.91509 21.0124 7.59239 19.9351 6.14039C19.8958 6.08818 20.4016 7.43532 20.4016 7.43532C20.4016 7.43532 19.6389 5.53885 17.5409 5.88932L18.7959 6.3549L17.663 6.27955C17.663 6.27955 18.7387 6.40971 18.6149 6.88441C18.5944 6.96425 17.3121 7.24962 17.3121 7.24962L18.4348 7.33003L17.7803 7.67962L18.8185 7.5642L18.2602 7.89267L19.1483 7.9174L18.1269 8.24442L19.5443 8.27609L18.5131 8.46167L19.6563 8.57607L18.7085 8.85782L19.6154 9.0146L18.7834 9.07015L19.7288 9.43274L18.8551 9.4274L19.7903 10.2133L19.2187 9.89934L20.1018 11.0292L19.519 10.6904L20.5194 12.149L19.8074 11.6983L21.0237 14.5887L20.3411 13.6561L21.0786 15.0829C21.0786 15.0829 20.8595 16.0057 20.7135 17.144C20.5057 15.3485 20.146 13.5917 19.5266 12.5658C17.8746 9.82928 13.4681 8.84839 13.4681 8.84839L16.3362 10.3877L14.4662 9.60121L16.3051 10.7586L15.2487 10.7534L16.7475 11.2396C16.7475 11.2396 15.13 11.2825 15.3355 11.2809C15.541 11.2793 17.2499 11.4327 17.2499 11.4327L15.7415 11.6857L17.261 11.7621L15.8734 12.1477L17.9234 12.2353L16.1821 12.4042L18.1053 12.5282L16.3912 12.9478L18.5723 13.0933L16.7505 13.4906L18.1461 13.7884L17.0822 13.999L18.6802 14.3448L17.2654 14.4798L18.7875 14.9319L18.2655 15.2228L18.7971 15.3778L17.8486 15.2996L19.0499 16.0421L18.596 16.0956C16.8804 14.9233 14.6042 15.2621 14.6042 15.2621C14.6042 15.2621 16.8754 16.1829 17.9403 16.7691C18.3878 17.0169 18.8993 17.9139 19.3412 18.8683C19.2473 18.7579 19.1648 18.6667 19.0995 18.5993C18.5275 18.0135 16.9101 16.8712 16.9101 16.8712L15.7901 16.3044L17.0457 17.295L15.2714 16.355L15.5638 16.8809L14.6233 16.2753L15.3974 17.1695L14.0591 16.538C14.0591 16.538 14.3045 16.8003 14.6702 17.1762L14.0539 16.8319L14.2968 17.2153C13.3602 16.5459 12.1802 16.6157 12.1802 16.6157C12.1802 16.6157 14.4852 17.1927 13.2079 17.0004C11.929 16.8108 11.0153 17.2995 11.0153 17.2995C12.4982 17.0228 14.2054 17.4664 15.3726 17.8851C15.6855 18.1949 16.0218 18.5188 16.3421 18.8101C15.6668 18.5503 14.9671 18.4024 14.2785 18.4447C11.0123 18.6479 5.20451 20.6241 5.20451 20.6241L9.12328 19.7069L7.52973 20.2407L10.1433 19.5662L8.40888 20.3189L11.5806 19.4113L9.34663 20.2955L12.0039 19.5768L9.93892 20.4087L12.7134 19.7655L11.3273 20.3831L12.9702 19.8524L12.3042 20.3678L13.5988 19.9978L12.0895 20.7529L14.0386 20.1031L13.1689 20.6358L14.5215 20.0574L13.291 20.8866L14.8293 20.1446L13.893 21.0274L15.0656 20.2416L14.6045 20.9972L15.5026 20.2756L15.0999 21.0504L15.7146 20.3769L15.4967 21.0464L15.961 20.4944L15.7535 21.1333L16.1973 20.5915L16.072 21.1131L16.5919 20.5091L16.4585 21.1397L17.0441 20.7133C17.0441 20.7133 17.5379 20.8609 18.1746 21.0656C17.6521 21.0788 17.1238 21.1293 16.613 21.2334C13.8189 21.8029 6.27043 27.7496 6.27043 27.7496L7.89694 26.8608L7.32727 27.5386L10.1686 25.6133L8.55533 27.1446L10.954 25.4169L9.29133 27.1543L11.8045 25.0822L10.1831 26.5831L12.6433 25.148L11.9463 26.0086L14.5741 23.8454L12.6823 25.6697L16.1178 23.0369L14.1543 24.9223L17.4625 22.4722L16.2342 23.8934L18.705 22.0279L17.239 23.443L18.6446 22.7157L18.7603 23.0728L18.8046 23.0513ZM23.4043 21.578C23.2125 21.6353 23.0176 21.7007 22.845 21.7719C23.0236 21.7089 23.2111 21.6437 23.4043 21.578ZM22.4566 21.9106C22.4733 21.8834 22.4911 21.8547 22.5101 21.8244C22.4457 21.8707 22.3824 21.9159 22.3204 21.96L22.4566 21.9106ZM25.4596 16.1588L25.8926 15.7557L25.9558 16.9906L25.7596 15.8858L25.7438 16.959L25.4596 16.1588ZM24.3558 17.1866L25.3792 16.2338L25.0929 17.9235L24.953 17.0088L25.19 16.747L24.3558 17.1866ZM23.9482 18.1191L24.9088 17.0577L24.8035 17.4411L24.5899 17.6171L24.5916 17.5953L24.5802 17.6251L23.9307 18.1606L23.9482 18.1191ZM24.5838 17.6939L24.8024 17.4451L24.6901 17.8542L24.5625 17.9649L24.5838 17.6939ZM24.5467 18.1644L24.6375 18.0457L24.5232 18.4618L24.5467 18.1644ZM23.9611 18.9406L24.0205 18.8525L23.9451 18.9511L23.9611 18.9406ZM24.5308 17.7544L24.3945 18.1105L23.6826 18.7278L23.6898 18.7119L24.5308 17.7544Z" fill="#070707"/>
</g>
<defs>
<linearGradient id="paint0_linear_2793_1249" x1="74.9183" y1="39.479" x2="74.9183" y2="53.6612" gradientUnits="userSpaceOnUse">
<stop stop-color="#5D00B9"/>
<stop offset="0.58" stop-color="#AE5CFF"/>
<stop offset="1" stop-color="#FFCC47"/>
</linearGradient>
<linearGradient id="paint1_linear_2793_1249" x1="61.0274" y1="39.479" x2="61.0274" y2="53.6612" gradientUnits="userSpaceOnUse">
<stop stop-color="#5D00B9"/>
<stop offset="0.58" stop-color="#AE5CFF"/>
<stop offset="1" stop-color="#FFCC47"/>
</linearGradient>
<linearGradient id="paint2_linear_2793_1249" x1="45.5286" y1="39.2566" x2="45.5286" y2="53.9244" gradientUnits="userSpaceOnUse">
<stop stop-color="#5D00B9"/>
<stop offset="0.58" stop-color="#AE5CFF"/>
<stop offset="1" stop-color="#FFCC47"/>
</linearGradient>
<linearGradient id="paint3_linear_2793_1249" x1="32.8686" y1="39.479" x2="32.8686" y2="53.6612" gradientUnits="userSpaceOnUse">
<stop stop-color="#5D00B9"/>
<stop offset="0.58" stop-color="#AE5CFF"/>
<stop offset="1" stop-color="#FFCC47"/>
</linearGradient>
<linearGradient id="paint4_linear_2793_1249" x1="24.7448" y1="39.479" x2="24.7448" y2="53.6612" gradientUnits="userSpaceOnUse">
<stop stop-color="#5D00B9"/>
<stop offset="0.58" stop-color="#AE5CFF"/>
<stop offset="1" stop-color="#FFCC47"/>
</linearGradient>
<linearGradient id="paint5_linear_2793_1249" x1="10.1521" y1="39.479" x2="10.1521" y2="53.6612" gradientUnits="userSpaceOnUse">
<stop stop-color="#5D00B9"/>
<stop offset="0.58" stop-color="#AE5CFF"/>
<stop offset="1" stop-color="#FFCC47"/>
</linearGradient>
<linearGradient id="paint6_linear_2793_1249" x1="28.9911" y1="3.01343" x2="28.9911" y2="59.4719" gradientUnits="userSpaceOnUse">
<stop stop-color="#FFCC47"/>
<stop offset="1" stop-color="#D31900"/>
</linearGradient>
<clipPath id="clip0_2793_1249">
<rect width="77.6999" height="19.4366" fill="white" transform="translate(0 34.5181)"/>
</clipPath>
<clipPath id="clip1_2793_1249">
<rect width="79.7523" height="33.8668" fill="white" transform="translate(0 0.651367)"/>
</clipPath>
</defs>
</svg>
