<svg viewBox="0 0 473 151" fill="none" xmlns="http://www.w3.org/2000/svg">
<rect width="473" height="151" fill="white"/>
<rect x="28" y="12" width="92" height="92" fill="url(#paint0_linear_773_2)"/>
<rect x="59.3201" y="44.92" width="34.8" height="34.8" fill="#FFCC47"/>
<rect x="59.3201" y="72.76" width="84.68" height="63.8" fill="#FFCC47"/>
<path fill-rule="evenodd" clip-rule="evenodd" d="M120 72.76V104H59.3201V79.72V72.76V44.92H94.1201V72.76H120Z" fill="#070707"/>
<path d="M327.619 82.0587H373.06V95.5453H345.397V102.135H370.531V115.622H345.397V122.289H373.75V135.776H327.619V82.0587Z" fill="black"/>
<path d="M275.08 82.0587H323.433V96.0817H308.107V135.776H290.329V96.0817H275.08V82.0587Z" fill="black"/>
<path d="M218.853 82.0587H236.554L247.359 102.748L257.78 82.0587H275.481L248.355 134.243H246.209L218.853 82.0587ZM238.47 111.484H256.248V135.776H238.47V111.484Z" fill="black"/>
<path d="M195.203 82.0587C199.546 82.0587 203.301 82.6206 206.468 83.7445C209.635 84.8684 212.087 86.452 213.824 88.4955C215.612 90.4878 216.506 92.8633 216.506 95.622C216.506 98.2784 215.689 100.654 214.054 102.748C212.419 104.792 210.223 106.248 207.464 107.116C210.682 107.832 213.262 109.441 215.204 111.944C217.145 114.396 218.115 117.308 218.115 120.68C218.115 123.745 217.221 126.427 215.433 128.726C213.645 130.973 211.142 132.71 207.924 133.936C204.705 135.162 200.899 135.776 196.506 135.776H168V82.0587H195.203ZM194.207 102.748C195.433 102.748 196.404 102.391 197.119 101.676C197.885 100.96 198.269 100.015 198.269 98.8404C198.269 97.6654 197.885 96.7459 197.119 96.0817C196.404 95.4176 195.433 95.0856 194.207 95.0856H185.701V102.748H194.207ZM194.207 122.749C195.842 122.749 197.145 122.365 198.115 121.599C199.137 120.782 199.648 119.735 199.648 118.457C199.648 117.282 199.137 116.337 198.115 115.622C197.145 114.907 195.842 114.549 194.207 114.549H185.701V122.749H194.207Z" fill="black"/>
<path d="M411.024 18.6587H443.865V29.7525H439.751V71.2042H426.306V29.7525H411.024V18.6587Z" fill="black"/>
<path d="M411.024 18.6587H443.865V29.7525H439.751V71.2042H426.306V29.7525H411.024V18.6587Z" fill="black"/>
<path d="M356.335 18.3949H370.098V39.9786H391.381V18.3949H405.143V71.1133H391.381V50.8081H370.098V71.1133H356.335V18.3949Z" fill="black"/>
<path d="M356.335 18.3949H370.098V39.9786H391.381V18.3949H405.143V71.1133H391.381V50.8081H370.098V71.1133H356.335V18.3949Z" fill="black"/>
<path d="M340.004 34.9377C338.149 33.0827 335.968 31.6538 333.461 30.6511C331.005 29.5982 328.548 29.0718 326.091 29.0718C323.935 29.0718 321.955 29.4729 320.15 30.2751C318.345 31.0772 316.766 32.1802 315.412 33.5841C314.058 34.9879 313.006 36.6424 312.254 38.5476C311.552 40.4527 311.201 42.5083 311.201 44.7143C311.201 46.9705 311.577 49.0511 312.329 50.9563C313.081 52.8615 314.134 54.5411 315.487 55.995C316.841 57.3988 318.42 58.5018 320.225 59.304C322.08 60.1062 324.086 60.5073 326.242 60.5073C328.147 60.5073 330.303 60.0561 332.709 59.1536C335.166 58.201 337.397 56.9727 339.402 55.4686L347.224 65.17C345.369 66.4735 343.188 67.6517 340.681 68.7046C338.224 69.7575 335.642 70.5847 332.935 71.1864C330.278 71.788 327.721 72.0888 325.264 72.0888C321.253 72.0888 317.518 71.412 314.058 70.0583C310.649 68.6545 307.666 66.7242 305.109 64.2675C302.552 61.8108 300.572 58.9029 299.168 55.5438C297.764 52.1847 297.062 48.5748 297.062 44.7143C297.062 40.8538 297.789 37.2691 299.243 33.9601C300.697 30.6511 302.728 27.7682 305.335 25.3116C307.992 22.8549 311.075 20.9497 314.585 19.596C318.145 18.2423 322.005 17.5655 326.166 17.5655C328.774 17.5655 331.381 17.8914 333.988 18.5431C336.645 19.1949 339.152 20.0974 341.508 21.2505C343.915 22.4036 346.02 23.8075 347.825 25.462L340.004 34.9377ZM335.341 44.2631H347.224V65.17H335.341V44.2631Z" fill="black"/>
<path d="M340.004 34.9377C338.149 33.0827 335.968 31.6538 333.461 30.6511C331.005 29.5982 328.548 29.0718 326.091 29.0718C323.935 29.0718 321.955 29.4729 320.15 30.2751C318.345 31.0772 316.766 32.1802 315.412 33.5841C314.058 34.9879 313.006 36.6424 312.254 38.5476C311.552 40.4527 311.201 42.5083 311.201 44.7143C311.201 46.9705 311.577 49.0511 312.329 50.9563C313.081 52.8615 314.134 54.5411 315.487 55.995C316.841 57.3988 318.42 58.5018 320.225 59.304C322.08 60.1062 324.086 60.5073 326.242 60.5073C328.147 60.5073 330.303 60.0561 332.709 59.1536C335.166 58.201 337.397 56.9727 339.402 55.4686L347.224 65.17C345.369 66.4735 343.188 67.6517 340.681 68.7046C338.224 69.7575 335.642 70.5847 332.935 71.1864C330.278 71.788 327.721 72.0888 325.264 72.0888C321.253 72.0888 317.518 71.412 314.058 70.0583C310.649 68.6545 307.666 66.7242 305.109 64.2675C302.552 61.8108 300.572 58.9029 299.168 55.5438C297.764 52.1847 297.062 48.5748 297.062 44.7143C297.062 40.8538 297.789 37.2691 299.243 33.9601C300.697 30.6511 302.728 27.7682 305.335 25.3116C307.992 22.8549 311.075 20.9497 314.585 19.596C318.145 18.2423 322.005 17.5655 326.166 17.5655C328.774 17.5655 331.381 17.8914 333.988 18.5431C336.645 19.1949 339.152 20.0974 341.508 21.2505C343.915 22.4036 346.02 23.8075 347.825 25.462L340.004 34.9377ZM335.341 44.2631H347.224V65.17H335.341V44.2631Z" fill="black"/>
<path d="M276.376 28.5121H290.607V71.2054H276.376V28.5121Z" fill="black"/>
<path d="M276.376 28.5121H290.607V71.2054H276.376V28.5121Z" fill="black"/>
<path d="M245.701 18.3949C252.72 18.3949 258.135 20.0243 261.945 23.2832C265.755 26.4919 267.661 31.0293 267.661 36.8952C267.661 43.062 265.755 47.8751 261.945 51.3345C258.135 54.7438 252.72 56.4484 245.701 56.4484H235.774V71.1133H222.011V18.3949H245.701ZM245.701 45.619C248.559 45.619 250.739 44.917 252.244 43.5132C253.798 42.1094 254.575 40.0287 254.575 37.2712C254.575 34.614 253.798 32.6086 252.244 31.2549C250.739 29.9012 248.559 29.2244 245.701 29.2244H235.774V45.619H245.701ZM243.294 51.4097H256.681L269.24 71.1133H253.672L243.294 51.4097Z" fill="black"/>
<path d="M245.701 18.3949C252.72 18.3949 258.135 20.0243 261.945 23.2832C265.755 26.4919 267.661 31.0293 267.661 36.8952C267.661 43.062 265.755 47.8751 261.945 51.3345C258.135 54.7438 252.72 56.4484 245.701 56.4484H235.774V71.1133H222.011V18.3949H245.701ZM245.701 45.619C248.559 45.619 250.739 44.917 252.244 43.5132C253.798 42.1094 254.575 40.0287 254.575 37.2712C254.575 34.614 253.798 32.6086 252.244 31.2549C250.739 29.9012 248.559 29.2244 245.701 29.2244H235.774V45.619H245.701ZM243.294 51.4097H256.681L269.24 71.1133H253.672L243.294 51.4097Z" fill="black"/>
<path d="M193.221 18.3949C197.232 18.3949 200.691 18.9464 203.599 20.0494C206.507 21.1524 208.763 22.6816 210.367 24.6369C211.972 26.5922 212.774 28.9486 212.774 31.7061C212.774 34.4636 211.947 36.8702 210.292 38.9257C208.688 40.9813 206.507 42.3852 203.749 43.1372C207.058 43.789 209.665 45.3181 211.571 47.7247C213.526 50.1312 214.504 53.0391 214.504 56.4484C214.504 59.4566 213.676 62.0637 212.022 64.2697C210.367 66.4757 208.011 68.1803 204.953 69.3836C201.944 70.5367 198.36 71.1133 194.198 71.1133H168.178V18.3949H193.221ZM192.469 39.377C194.374 39.377 195.878 38.9257 196.981 38.0233C198.084 37.0707 198.635 35.7672 198.635 34.1127C198.635 32.4582 198.084 31.1797 196.981 30.2772C195.878 29.3748 194.374 28.9486 192.469 28.9987H181.94V39.377H192.469ZM192.469 60.5847C194.875 60.5847 196.78 60.0833 198.184 59.0806C199.588 58.0277 200.29 56.5988 200.29 54.7939C200.29 53.0893 199.588 51.7356 198.184 50.7329C196.78 49.7301 194.875 49.2538 192.469 49.304H181.94V60.5847H192.469Z" fill="black"/>
<path d="M193.221 18.3949C197.232 18.3949 200.691 18.9464 203.599 20.0494C206.507 21.1524 208.763 22.6816 210.367 24.6369C211.972 26.5922 212.774 28.9486 212.774 31.7061C212.774 34.4636 211.947 36.8702 210.292 38.9257C208.688 40.9813 206.507 42.3852 203.749 43.1372C207.058 43.789 209.665 45.3181 211.571 47.7247C213.526 50.1312 214.504 53.0391 214.504 56.4484C214.504 59.4566 213.676 62.0637 212.022 64.2697C210.367 66.4757 208.011 68.1803 204.953 69.3836C201.944 70.5367 198.36 71.1133 194.198 71.1133H168.178V18.3949H193.221ZM192.469 39.377C194.374 39.377 195.878 38.9257 196.981 38.0233C198.084 37.0707 198.635 35.7672 198.635 34.1127C198.635 32.4582 198.084 31.1797 196.981 30.2772C195.878 29.3748 194.374 28.9486 192.469 28.9987H181.94V39.377H192.469ZM192.469 60.5847C194.875 60.5847 196.78 60.0833 198.184 59.0806C199.588 58.0277 200.29 56.5988 200.29 54.7939C200.29 53.0893 199.588 51.7356 198.184 50.7329C196.78 49.7301 194.875 49.2538 192.469 49.304H181.94V60.5847H192.469Z" fill="black"/>
<rect x="276.376" y="11" width="14.2311" height="14.2311" fill="#FF9447"/>
<rect x="446.053" y="18.6639" width="10.947" height="10.947" fill="#FFDC83"/>
<defs>
<linearGradient id="paint0_linear_773_2" x1="74.0001" y1="12.3879" x2="74.0001" y2="104.292" gradientUnits="userSpaceOnUse">
<stop offset='0' stop-color="#FFCC47"/>
<stop offset="0.441534" stop-color="#D31900"/>
<stop offset="0.663625" stop-color="#9747FF"/>
</linearGradient>
</defs>
</svg>
