<svg viewBox="0 0 137 16" fill="none" xmlns="http://www.w3.org/2000/svg">
<path d="M1.13455 10.8571L5.67206 3.9999H12.3365L8.93339 7.71421L7.23183 8.14279H12.9037L0.425565 16L4.67948 10.2857L1.13455 10.8571Z" fill="white"/>
<path d="M0 5.72641e-05L12.3365 3.9999L6.09728 6.00011L0 5.72641e-05Z" fill="white"/>
<path d="M10.0677 7.42856L13.1872 4.28568L18.2919 6.2857L10.0677 7.42856Z" fill="white"/>
<path d="M7.77922 1.54618C7.87562 1.26216 8.0266 1.00005 8.22354 0.774811C8.42049 0.549576 8.65954 0.365628 8.92704 0.233469C9.19455 0.10131 9.48527 0.0235288 9.78261 0.00456591C10.08 -0.014397 10.3781 0.0258299 10.66 0.12295C10.9419 0.22007 11.2021 0.372181 11.4256 0.570598C11.6492 0.769016 11.8318 1.00985 11.963 1.27936C12.0941 1.54887 12.1713 1.84177 12.1902 2.14133C12.209 2.4409 12.1691 2.74127 12.0727 3.02529L7.77922 1.54618Z" fill="white"/>
<path d="M26.6862 13.1573C25.8922 13.1573 25.2068 13.0049 24.6302 12.7002C24.0535 12.3954 23.6092 11.9621 23.2973 11.4002C22.9853 10.8382 22.8293 10.1716 22.8293 9.40014H24.857C24.857 10.0573 25.0083 10.5621 25.3108 10.9144C25.6227 11.2668 26.0812 11.443 26.6862 11.443C27.1683 11.443 27.5512 11.3383 27.8348 11.1287C28.1278 10.9097 28.2744 10.6001 28.2744 10.2001C28.2744 9.91443 28.1798 9.68586 27.9908 9.51443C27.8017 9.343 27.5465 9.2049 27.2251 9.10014C26.9131 8.98585 26.5681 8.88109 26.1899 8.78585C25.8213 8.69061 25.4479 8.57632 25.0697 8.44299C24.6916 8.30965 24.3418 8.13822 24.0204 7.9287C23.7085 7.71917 23.458 7.44298 23.2689 7.10012C23.0799 6.74774 22.9853 6.30487 22.9853 5.77154C22.9853 5.21915 23.1318 4.72391 23.4249 4.28581C23.7274 3.83819 24.1481 3.4858 24.6869 3.22866C25.2257 2.97151 25.8591 2.84294 26.587 2.84294C27.2581 2.84294 27.8726 2.97151 28.4303 3.22866C28.9975 3.4858 29.456 3.85723 29.8058 4.34295C30.1555 4.82867 30.3399 5.41915 30.3588 6.1144H28.2885C28.2791 5.77154 28.1893 5.48582 28.0191 5.25725C27.8584 5.02867 27.6504 4.85724 27.3952 4.74296C27.1494 4.61914 26.88 4.55724 26.587 4.55724C26.1616 4.55724 25.8071 4.65724 25.5235 4.85724C25.2493 5.05724 25.1123 5.34296 25.1123 5.71439C25.1123 5.98106 25.2068 6.19535 25.3959 6.35726C25.5849 6.51916 25.8354 6.6525 26.1474 6.75726C26.4688 6.8525 26.8186 6.94774 27.1967 7.04298C27.5748 7.12869 27.9482 7.23822 28.3169 7.37155C28.695 7.49536 29.0401 7.67155 29.352 7.90013C29.6734 8.11918 29.9287 8.41442 30.1177 8.78585C30.3068 9.15728 30.4013 9.62871 30.4013 10.2001C30.4013 10.7811 30.2406 11.2954 29.9192 11.743C29.5978 12.1906 29.1582 12.5383 28.6005 12.7859C28.0427 13.0335 27.4047 13.1573 26.6862 13.1573Z" fill="white"/>
<path d="M34.4339 12.9859V4.72867H31.442V3.01437H39.4819V4.72867H36.4899V12.9859H34.4339Z" fill="white"/>
<path d="M44.351 13.1573C43.4908 13.1573 42.7346 12.9478 42.0823 12.5287C41.4395 12.1097 40.9385 11.5144 40.5792 10.743C40.2295 9.97157 40.0546 9.05728 40.0546 8.00013C40.0546 6.93345 40.2295 6.0144 40.5792 5.24296C40.9385 4.47152 41.4395 3.88104 42.0823 3.47152C42.7346 3.05246 43.4908 2.84294 44.351 2.84294C45.2113 2.84294 45.9628 3.05246 46.6056 3.47152C47.2484 3.88104 47.7447 4.47152 48.0945 5.24296C48.4537 6.00487 48.6333 6.92393 48.6333 8.00013C48.6333 9.05728 48.4537 9.97157 48.0945 10.743C47.7447 11.5144 47.2484 12.1097 46.6056 12.5287C45.9628 12.9478 45.2113 13.1573 44.351 13.1573ZM44.351 11.443C44.767 11.443 45.1357 11.3097 45.4571 11.043C45.7879 10.7668 46.0432 10.3716 46.2228 9.85729C46.4118 9.343 46.5064 8.72394 46.5064 8.00013C46.5064 7.26679 46.4118 6.64773 46.2228 6.14297C46.0432 5.62868 45.7879 5.2382 45.4571 4.97153C45.1357 4.69534 44.767 4.55724 44.351 4.55724C43.9351 4.55724 43.5617 4.69534 43.2309 4.97153C42.9 5.2382 42.64 5.62868 42.451 6.14297C42.2714 6.65726 42.1816 7.27631 42.1816 8.00013C42.1816 8.72394 42.2714 9.343 42.451 9.85729C42.64 10.3716 42.9 10.7668 43.2309 11.043C43.5617 11.3097 43.9351 11.443 44.351 11.443Z" fill="white"/>
<path d="M53.3323 13.1573C52.4438 13.1573 51.6781 12.943 51.0352 12.5145C50.3924 12.0859 49.8961 11.4859 49.5464 10.7144C49.1966 9.93348 49.0217 9.02871 49.0217 8.00013C49.0217 6.9525 49.2013 6.04297 49.5605 5.27153C49.9198 4.5001 50.4255 3.90485 51.0778 3.4858C51.7395 3.05723 52.5147 2.84294 53.4032 2.84294C54.1028 2.84294 54.7456 2.98104 55.3317 3.25723C55.9178 3.53342 56.3952 3.93343 56.7638 4.45724C57.142 4.97153 57.3547 5.59534 57.4019 6.32868H55.1474C55.0906 5.79535 54.911 5.36677 54.6085 5.04296C54.306 4.71915 53.9043 4.55724 53.4032 4.55724C52.9684 4.55724 52.5808 4.69057 52.2405 4.95724C51.9002 5.22391 51.6308 5.61439 51.4323 6.12868C51.2432 6.64297 51.1487 7.26679 51.1487 8.00013C51.1487 8.73347 51.2432 9.35728 51.4323 9.87157C51.6213 10.3859 51.8766 10.7763 52.198 11.043C52.5288 11.3097 52.907 11.443 53.3323 11.443C53.6821 11.443 53.9893 11.3716 54.254 11.2287C54.5187 11.0763 54.7314 10.8621 54.8921 10.5859C55.0623 10.3097 55.1663 9.9811 55.2041 9.60014H57.4445C57.3783 10.324 57.1703 10.9525 56.8206 11.4859C56.4708 12.0192 56.0029 12.4335 55.4168 12.7287C54.8307 13.0145 54.1359 13.1573 53.3323 13.1573Z" fill="white"/>
<path d="M58.2866 12.9859V3.01437H60.3568V5.27153L60.1725 7.14298L61.6188 5.37153L63.6465 3.01437H66.1138L60.3568 9.77157V12.9859H58.2866ZM64.001 12.9859L60.839 7.52869L62.5831 6.52869L66.4116 12.9859H64.001Z" fill="white"/>
<path d="M71.0255 13.1573C70.2315 13.1573 69.5461 13.0049 68.9695 12.7002C68.3928 12.3954 67.9485 11.9621 67.6366 11.4002C67.3246 10.8382 67.1686 10.1716 67.1686 9.40014H69.1964C69.1964 10.0573 69.3476 10.5621 69.6501 10.9144C69.9621 11.2668 70.4205 11.443 71.0255 11.443C71.5076 11.443 71.8905 11.3383 72.1741 11.1287C72.4671 10.9097 72.6137 10.6001 72.6137 10.2001C72.6137 9.91443 72.5191 9.68586 72.3301 9.51443C72.141 9.343 71.8858 9.2049 71.5644 9.10014C71.2524 8.98585 70.9074 8.88109 70.5292 8.78585C70.1606 8.69061 69.7872 8.57632 69.409 8.44299C69.0309 8.30965 68.6812 8.13822 68.3597 7.9287C68.0478 7.71917 67.7973 7.44298 67.6082 7.10012C67.4192 6.74774 67.3246 6.30487 67.3246 5.77154C67.3246 5.21915 67.4711 4.72391 67.7642 4.28581C68.0667 3.83819 68.4874 3.4858 69.0262 3.22866C69.565 2.97151 70.1984 2.84294 70.9263 2.84294C71.5975 2.84294 72.2119 2.97151 72.7696 3.22866C73.3368 3.4858 73.7953 3.85723 74.1451 4.34295C74.4948 4.82867 74.6792 5.41915 74.6981 6.1144H72.6278C72.6184 5.77154 72.5286 5.48582 72.3584 5.25725C72.1977 5.02867 71.9897 4.85724 71.7345 4.74296C71.4887 4.61914 71.2193 4.55724 70.9263 4.55724C70.5009 4.55724 70.1464 4.65724 69.8628 4.85724C69.5887 5.05724 69.4516 5.34296 69.4516 5.71439C69.4516 5.98106 69.5461 6.19535 69.7352 6.35726C69.9242 6.51916 70.1748 6.6525 70.4867 6.75726C70.8081 6.8525 71.1579 6.94774 71.536 7.04298C71.9141 7.12869 72.2875 7.23822 72.6562 7.37155C73.0343 7.49536 73.3794 7.67155 73.6913 7.90013C74.0127 8.11918 74.268 8.41442 74.457 8.78585C74.6461 9.15728 74.7406 9.62871 74.7406 10.2001C74.7406 10.7811 74.5799 11.2954 74.2585 11.743C73.9371 12.1906 73.4975 12.5383 72.9398 12.7859C72.3821 13.0335 71.744 13.1573 71.0255 13.1573Z" fill="white"/>
<path d="M78.6598 12.9859V10.7573H80.9569V12.9859H78.6598Z" fill="white"/>
<path d="M88.7613 13.1573C87.9672 13.1573 87.2818 13.0049 86.7052 12.7002C86.1286 12.3954 85.6843 11.9621 85.3723 11.4002C85.0604 10.8382 84.9044 10.1716 84.9044 9.40014H86.9321C86.9321 10.0573 87.0833 10.5621 87.3858 10.9144C87.6978 11.2668 88.1563 11.443 88.7613 11.443C89.2434 11.443 89.6262 11.3383 89.9098 11.1287C90.2029 10.9097 90.3494 10.6001 90.3494 10.2001C90.3494 9.91443 90.2549 9.68586 90.0658 9.51443C89.8767 9.343 89.6215 9.2049 89.3001 9.10014C88.9881 8.98585 88.6431 8.88109 88.265 8.78585C87.8963 8.69061 87.5229 8.57632 87.1448 8.44299C86.7666 8.30965 86.4169 8.13822 86.0955 7.9287C85.7835 7.71917 85.533 7.44298 85.3439 7.10012C85.1549 6.74774 85.0603 6.30487 85.0603 5.77154C85.0603 5.21915 85.2069 4.72391 85.4999 4.28581C85.8024 3.83819 86.2231 3.4858 86.7619 3.22866C87.3008 2.97151 87.9341 2.84294 88.662 2.84294C89.3332 2.84294 89.9476 2.97151 90.5054 3.22866C91.0725 3.4858 91.531 3.85723 91.8808 4.34295C92.2306 4.82867 92.4149 5.41915 92.4338 6.1144H90.3636C90.3541 5.77154 90.2643 5.48582 90.0941 5.25725C89.9334 5.02867 89.7255 4.85724 89.4702 4.74296C89.2245 4.61914 88.955 4.55724 88.662 4.55724C88.2366 4.55724 87.8821 4.65724 87.5985 4.85724C87.3244 5.05724 87.1873 5.34296 87.1873 5.71439C87.1873 5.98106 87.2818 6.19535 87.4709 6.35726C87.66 6.51916 87.9105 6.6525 88.2224 6.75726C88.5438 6.8525 88.8936 6.94774 89.2717 7.04298C89.6498 7.12869 90.0232 7.23822 90.3919 7.37155C90.7701 7.49536 91.1151 7.67155 91.427 7.90013C91.7485 8.11918 92.0037 8.41442 92.1927 8.78585C92.3818 9.15728 92.4763 9.62871 92.4763 10.2001C92.4763 10.7811 92.3156 11.2954 91.9942 11.743C91.6728 12.1906 91.2333 12.5383 90.6755 12.7859C90.1178 13.0335 89.4797 13.1573 88.7613 13.1573Z" fill="white"/>
<path d="M97.5582 13.1573C96.698 13.1573 95.9417 12.9478 95.2895 12.5287C94.6467 12.1097 94.1456 11.5144 93.7864 10.743C93.4366 9.97157 93.2618 9.05728 93.2618 8.00013C93.2618 6.93345 93.4366 6.0144 93.7864 5.24296C94.1456 4.47152 94.6467 3.88104 95.2895 3.47152C95.9417 3.05246 96.698 2.84294 97.5582 2.84294C98.4185 2.84294 99.17 3.05246 99.8128 3.47152C100.456 3.88104 100.952 4.47152 101.302 5.24296C101.661 6.00487 101.84 6.92393 101.84 8.00013C101.84 9.05728 101.661 9.97157 101.302 10.743C100.952 11.5144 100.456 12.1097 99.8128 12.5287C99.17 12.9478 98.4185 13.1573 97.5582 13.1573ZM97.5582 11.443C97.9742 11.443 98.3428 11.3097 98.6642 11.043C98.9951 10.7668 99.2503 10.3716 99.4299 9.85729C99.619 9.343 99.7135 8.72394 99.7135 8.00013C99.7135 7.26679 99.619 6.64773 99.4299 6.14297C99.2503 5.62868 98.9951 5.2382 98.6642 4.97153C98.3428 4.69534 97.9742 4.55724 97.5582 4.55724C97.1423 4.55724 96.7689 4.69534 96.438 4.97153C96.1072 5.2382 95.8472 5.62868 95.6581 6.14297C95.4785 6.65726 95.3887 7.27631 95.3887 8.00013C95.3887 8.72394 95.4785 9.343 95.6581 9.85729C95.8472 10.3716 96.1072 10.7668 96.438 11.043C96.7689 11.3097 97.1423 11.443 97.5582 11.443Z" fill="white"/>
<path d="M106.54 13.1573C105.651 13.1573 104.885 12.943 104.242 12.5145C103.6 12.0859 103.103 11.4859 102.754 10.7144C102.404 9.93348 102.229 9.02871 102.229 8.00013C102.229 6.9525 102.408 6.04297 102.768 5.27153C103.127 4.5001 103.633 3.90485 104.285 3.4858C104.947 3.05723 105.722 2.84294 106.61 2.84294C107.31 2.84294 107.953 2.98104 108.539 3.25723C109.125 3.53342 109.602 3.93343 109.971 4.45724C110.349 4.97153 110.562 5.59534 110.609 6.32868H108.355C108.298 5.79535 108.118 5.36677 107.816 5.04296C107.513 4.71915 107.111 4.55724 106.61 4.55724C106.176 4.55724 105.788 4.69057 105.448 4.95724C105.107 5.22391 104.838 5.61439 104.639 6.12868C104.45 6.64297 104.356 7.26679 104.356 8.00013C104.356 8.73347 104.45 9.35728 104.639 9.87157C104.828 10.3859 105.084 10.7763 105.405 11.043C105.736 11.3097 106.114 11.443 106.54 11.443C106.889 11.443 107.197 11.3716 107.461 11.2287C107.726 11.0763 107.939 10.8621 108.099 10.5859C108.269 10.3097 108.373 9.9811 108.411 9.60014H110.652C110.585 10.324 110.377 10.9525 110.028 11.4859C109.678 12.0192 109.21 12.4335 108.624 12.7287C108.038 13.0145 107.343 13.1573 106.54 13.1573Z" fill="white"/>
<path d="M115.407 13.1573C114.519 13.1573 113.753 12.943 113.11 12.5145C112.467 12.0859 111.971 11.4859 111.621 10.7144C111.272 9.93348 111.097 9.02871 111.097 8.00013C111.097 6.9525 111.276 6.04297 111.636 5.27153C111.995 4.5001 112.501 3.90485 113.153 3.4858C113.815 3.05723 114.59 2.84294 115.478 2.84294C116.178 2.84294 116.821 2.98104 117.407 3.25723C117.993 3.53342 118.47 3.93343 118.839 4.45724C119.217 4.97153 119.43 5.59534 119.477 6.32868H117.222C117.166 5.79535 116.986 5.36677 116.684 5.04296C116.381 4.71915 115.979 4.55724 115.478 4.55724C115.043 4.55724 114.656 4.69057 114.316 4.95724C113.975 5.22391 113.706 5.61439 113.507 6.12868C113.318 6.64297 113.224 7.26679 113.224 8.00013C113.224 8.73347 113.318 9.35728 113.507 9.87157C113.696 10.3859 113.952 10.7763 114.273 11.043C114.604 11.3097 114.982 11.443 115.407 11.443C115.757 11.443 116.064 11.3716 116.329 11.2287C116.594 11.0763 116.806 10.8621 116.967 10.5859C117.137 10.3097 117.241 9.9811 117.279 9.60014H119.519C119.453 10.324 119.245 10.9525 118.896 11.4859C118.546 12.0192 118.078 12.4335 117.492 12.7287C116.906 13.0145 116.211 13.1573 115.407 13.1573Z" fill="white"/>
<path d="M120.617 12.9859V3.01437H127.877V4.72867H122.687V6.97155H126.119V8.68585H122.687V11.2716H127.934V12.9859H120.617Z" fill="white"/>
<path d="M130.874 9.11442V7.40012H133.2C133.531 7.40012 133.819 7.34298 134.065 7.22869C134.311 7.1144 134.504 6.9525 134.646 6.74297C134.788 6.52392 134.859 6.2763 134.859 6.00011C134.859 5.74296 134.793 5.51915 134.66 5.32868C134.537 5.1382 134.367 4.99058 134.15 4.88581C133.932 4.78105 133.687 4.72867 133.413 4.72867H130.874V3.01437H133.413C134.103 3.01437 134.717 3.13342 135.256 3.37152C135.795 3.60961 136.215 3.95247 136.518 4.4001C136.83 4.83819 136.986 5.37153 136.986 6.00011C136.986 6.39059 136.896 6.77154 136.716 7.14298C136.537 7.50488 136.277 7.83822 135.937 8.14299C135.596 8.43823 135.185 8.67632 134.703 8.85728C134.23 9.02871 133.691 9.11442 133.086 9.11442H130.874ZM129.4 12.9859V3.01437H131.456V12.9859H129.4ZM134.887 12.9859C134.868 12.5573 134.774 12.1287 134.604 11.7002C134.443 11.2621 134.216 10.843 133.923 10.443C133.63 10.043 133.261 9.68109 132.817 9.35728C132.382 9.02394 131.881 8.74299 131.314 8.51442L133.597 8.04298C134.174 8.3287 134.67 8.6668 135.086 9.05728C135.511 9.43823 135.861 9.84776 136.135 10.2859C136.419 10.7144 136.627 11.1621 136.759 11.6287C136.901 12.0859 136.981 12.5383 137 12.9859H134.887Z" fill="white"/>
</svg>
