<svg viewBox="0 0 316 101" fill="none" xmlns="http://www.w3.org/2000/svg">
<g clip-path="url(#clip0_97_86)">
<path d="M11.5741 59.7943C10.9974 59.2291 10.266 58.8461 9.47179 58.6935C8.67756 58.5415 7.85592 58.6267 7.11008 58.9384C6.36418 59.2501 5.72728 59.7749 5.27938 60.4462C4.83148 61.118 4.59253 61.9067 4.59253 62.7131C4.59253 63.5196 4.83148 64.3082 5.27938 64.98C5.72728 65.6518 6.36418 66.1762 7.11008 66.4879C7.85592 66.8001 8.67756 66.8852 9.47179 66.7327C10.266 66.5802 10.9974 66.1976 11.5741 65.6319C11.9605 65.2499 12.2672 64.7954 12.4765 64.2944C12.6858 63.7935 12.7936 63.2559 12.7936 62.7131C12.7936 62.1704 12.6858 61.6332 12.4765 61.1323C12.2672 60.6314 11.9605 60.1764 11.5741 59.7943Z" fill="white"/>
<path d="M95.9271 41.0214C96.501 41.5942 97.2319 41.9844 98.0283 42.1427C98.8247 42.301 99.6502 42.2202 100.4 41.9105C101.15 41.6008 101.792 41.0762 102.243 40.403C102.694 39.7298 102.935 38.9383 102.935 38.1285C102.935 37.3189 102.694 36.5273 102.243 35.8541C101.792 35.1809 101.15 34.6563 100.4 34.3466C99.6502 34.0369 98.8247 33.9561 98.0283 34.1144C97.2319 34.2726 96.501 34.6629 95.9271 35.2358C95.544 35.6146 95.2402 36.0653 95.033 36.5618C94.8259 37.0582 94.719 37.5907 94.719 38.1285C94.719 38.6664 94.8259 39.1989 95.033 39.6954C95.2402 40.1918 95.544 40.6425 95.9271 41.0214Z" fill="white"/>
<path d="M24.718 27.2571C25.4475 26.4819 25.8459 25.4541 25.829 24.3912C25.8121 23.3282 25.3812 22.3135 24.6274 21.5618C23.8737 20.8101 22.8562 20.3803 21.7904 20.3635C20.7246 20.3466 19.694 20.7439 18.9167 21.4715L1.59937 38.8284C1.03087 39.4041 0.645093 40.1341 0.490269 40.9271C0.335441 41.7202 0.418425 42.5412 0.728848 43.2876C1.03928 44.0339 1.56337 44.6724 2.23564 45.1234C2.90791 45.5743 3.69852 45.8176 4.50868 45.823C5.04723 45.8241 5.58056 45.7177 6.07727 45.5101C6.57391 45.3025 7.02392 44.9978 7.40067 44.614L24.718 27.2571Z" fill="white"/>
<path d="M30.5194 42.9214C31.6086 42.9214 32.654 42.4933 33.4287 41.7297L68.2191 6.99864C68.9909 6.23139 69.4251 5.18992 69.4267 4.10328C69.4282 3.01665 68.997 1.97387 68.2278 1.20435C67.4585 0.434842 66.4141 0.00162399 65.3246 4.5565e-06C64.2351 -0.00161487 63.1897 0.428497 62.4178 1.19572L27.6274 35.9441C27.0804 36.5195 26.7128 37.241 26.5692 38.0208C26.4256 38.8007 26.5122 39.6054 26.8185 40.3371C27.1248 41.0687 27.6377 41.696 28.2947 42.1425C28.9517 42.589 29.7245 42.8356 30.5194 42.8523V42.9214Z" fill="white"/>
<path d="M85.6232 6.99879C85.2432 6.61708 84.7911 6.31414 84.2934 6.10739C83.7957 5.90065 83.2617 5.79419 82.7226 5.79419C82.183 5.79419 81.649 5.90065 81.1514 6.10739C80.6537 6.31414 80.2015 6.61708 79.822 6.99879L10.2234 76.4612C9.8407 76.8397 9.53693 77.2907 9.32962 77.787C9.12232 78.2833 9.01562 78.8159 9.01562 79.354C9.01562 79.8917 9.12232 80.4242 9.32962 80.9205C9.53693 81.4169 9.8407 81.8678 10.2234 82.2468C10.6021 82.6304 11.0537 82.9354 11.5517 83.1436C12.0496 83.3512 12.5842 83.4583 13.1241 83.4583C13.664 83.4583 14.1986 83.3512 14.6966 83.1436C15.1945 82.9354 15.646 82.6304 16.0248 82.2468L85.6232 12.7844C86.3879 12.0147 86.8165 10.9751 86.8165 9.89163C86.8165 8.80817 86.3879 7.76848 85.6232 6.99879Z" fill="white"/>
<path d="M97.2256 18.5701C96.8456 18.1884 96.394 17.8854 95.8958 17.6787C95.3981 17.4719 94.8641 17.3655 94.325 17.3655C93.7859 17.3655 93.2519 17.4719 92.7538 17.6787C92.2561 17.8854 91.8044 18.1884 91.4244 18.5701L21.826 88.0839C21.4427 88.4644 21.1386 88.9164 20.9311 89.4148C20.7235 89.9126 20.6167 90.4462 20.6167 90.9854C20.6167 91.525 20.7235 92.0586 20.9311 92.5565C21.1386 93.0543 21.4427 93.5068 21.826 93.8868C22.2054 94.2663 22.6562 94.5668 23.1526 94.7713C23.6489 94.9759 24.181 95.0805 24.718 95.0789C25.8072 95.0789 26.8525 94.6504 27.6273 93.8868L97.2256 24.3558C97.9903 23.586 98.4189 22.5464 98.4189 21.4629C98.4189 20.3795 97.9903 19.3398 97.2256 18.5701Z" fill="white"/>
<path d="M79.822 59.0866C79.0502 58.324 78.0078 57.8965 76.9214 57.8965C75.8345 57.8965 74.7921 58.324 74.0203 59.0866L39.2819 93.8352C38.5524 94.61 38.154 95.6379 38.1709 96.7009C38.1878 97.764 38.6187 98.7786 39.3725 99.5305C40.1263 100.282 41.1437 100.712 42.2095 100.729C43.2754 100.746 44.306 100.348 45.0832 99.6207L79.8911 64.8895C80.6475 64.108 81.0644 63.0603 81.0516 61.9738C81.0388 60.8877 80.5969 59.8502 79.822 59.0866Z" fill="white"/>
<path d="M103.027 59.0866C102.255 58.324 101.213 57.8965 100.126 57.8965C99.0399 57.8965 97.9975 58.324 97.2256 59.0866L74.0202 82.2467C73.256 83.0164 72.8269 84.056 72.8269 85.1395C72.8269 86.2229 73.256 87.2625 74.0202 88.0323C74.3992 88.4159 74.8508 88.7209 75.3485 88.929C75.8467 89.1371 76.3812 89.2443 76.9213 89.2443C77.4609 89.2443 77.9954 89.1371 78.4936 88.929C78.9913 88.7209 79.4429 88.4159 79.8219 88.0323L103.027 64.8895C103.793 64.1172 104.222 63.0746 104.222 61.988C104.222 60.902 103.793 59.8594 103.027 59.0866Z" fill="white"/>
<path d="M87.7705 43.4223C87.1961 43.9945 86.8048 44.7239 86.6462 45.518C86.4872 46.3121 86.5685 47.1353 86.879 47.8834C87.1894 48.6316 87.7158 49.2711 88.3904 49.721C89.0656 50.171 89.8594 50.4111 90.6711 50.4111C91.4828 50.4111 92.2766 50.171 92.9518 49.721C93.627 49.2711 94.1528 48.6316 94.4632 47.8834C94.7737 47.1353 94.855 46.3121 94.696 45.518C94.5374 44.7239 94.1461 43.9945 93.5717 43.4223C93.1917 43.0406 92.7401 42.7376 92.2424 42.5309C91.7442 42.3241 91.2102 42.2177 90.6711 42.2177C90.132 42.2177 89.598 42.3241 89.1003 42.5309C88.6022 42.7376 88.1505 43.0406 87.7705 43.4223Z" fill="white"/>
<path d="M44.3213 8.27677C44.8957 7.70448 45.287 6.97519 45.4457 6.18107C45.6044 5.38699 45.5233 4.56377 45.2128 3.81561C44.9023 3.06745 44.3762 2.42794 43.7012 1.978C43.0262 1.52806 42.2325 1.2879 41.4206 1.2879C40.6087 1.2879 39.8151 1.52806 39.14 1.978C38.465 2.42794 37.9389 3.06745 37.6284 3.81561C37.3179 4.56377 37.2369 5.38699 37.3956 6.18107C37.5542 6.97519 37.9456 7.70448 38.52 8.27677C39.2918 9.03926 40.3342 9.46704 41.4206 9.46704C42.507 9.46704 43.5495 9.03926 44.3213 8.27677Z" fill="white"/>
<path d="M301.707 89C301.047 89 300.427 88.9487 299.849 88.8461C299.278 88.7514 298.805 88.6291 298.431 88.4792L299.604 84.715C300.216 84.8965 300.766 84.9951 301.255 85.0109C301.752 85.0267 302.18 84.9162 302.539 84.6795C302.905 84.4427 303.203 84.0402 303.431 83.4721L303.737 82.7027L297 64H302.477L306.366 77.3523H306.561L310.486 64H316L308.701 84.1468C308.35 85.1253 307.873 85.9776 307.27 86.7036C306.675 87.4375 305.921 88.0017 305.008 88.3963C304.095 88.7988 302.995 89 301.707 89Z" fill="white"/>
<path d="M283.114 71.1568V82H278V63.2442H282.874V66.5533H283.09C283.499 65.4625 284.183 64.5996 285.143 63.9647C286.104 63.3216 287.268 63 288.637 63C289.918 63 291.034 63.2849 291.987 63.8548C292.939 64.4246 293.679 65.2386 294.208 66.2969C294.736 67.347 295 68.6007 295 70.0578V82H289.886V70.9859C289.894 69.838 289.605 68.9426 289.021 68.2995C288.437 67.6482 287.633 67.3226 286.608 67.3226C285.92 67.3226 285.311 67.4732 284.783 67.7744C284.263 68.0756 283.855 68.5152 283.559 69.0932C283.27 69.663 283.122 70.3509 283.114 71.1568Z" fill="white"/>
<path d="M264.305 82C263.094 82 262.014 81.7962 261.066 81.3886C260.118 80.9731 259.368 80.3617 258.816 79.5546C258.272 78.7394 258 77.7245 258 76.5098C258 75.4869 258.194 74.6278 258.581 73.9325C258.968 73.2372 259.496 72.6778 260.164 72.2543C260.831 71.8307 261.59 71.511 262.439 71.2953C263.296 71.0795 264.194 70.9277 265.134 70.8397C266.238 70.7279 267.128 70.624 267.804 70.5281C268.48 70.4242 268.971 70.2723 269.276 70.0726C269.581 69.8728 269.733 69.5771 269.733 69.1855V69.1136C269.733 68.3544 269.486 67.767 268.991 67.3514C268.505 66.9359 267.813 66.7281 266.914 66.7281C265.966 66.7281 265.212 66.9319 264.652 67.3394C264.091 67.739 263.72 68.2425 263.539 68.8498L258.668 68.4662C258.915 67.3474 259.401 66.3804 260.127 65.5653C260.852 64.7422 261.787 64.1108 262.933 63.6713C264.087 63.2238 265.422 63 266.939 63C267.994 63 269.004 63.1199 269.968 63.3596C270.941 63.5994 271.802 63.971 272.552 64.4744C273.31 64.9779 273.908 65.6252 274.345 66.4164C274.782 67.1996 275 68.1386 275 69.2334V81.6524H270.005V79.0991H269.857C269.552 79.6744 269.144 80.1819 268.633 80.6215C268.122 81.053 267.508 81.3926 266.791 81.6404C266.073 81.8801 265.245 82 264.305 82ZM265.814 78.4757C266.589 78.4757 267.273 78.3279 267.866 78.0322C268.46 77.7285 268.925 77.3209 269.263 76.8095C269.601 76.298 269.77 75.7186 269.77 75.0713V73.1173C269.605 73.2212 269.379 73.3171 269.09 73.405C268.81 73.485 268.493 73.5609 268.138 73.6328C267.784 73.6967 267.429 73.7567 267.075 73.8126C266.72 73.8606 266.399 73.9045 266.111 73.9445C265.492 74.0324 264.952 74.1722 264.491 74.364C264.029 74.5558 263.671 74.8156 263.415 75.1432C263.16 75.4629 263.032 75.8625 263.032 76.342C263.032 77.0372 263.292 77.5687 263.811 77.9363C264.338 78.2959 265.006 78.4757 265.814 78.4757Z" fill="white"/>
<path d="M237 89V63.2439H242.047V66.3902H242.275C242.499 65.8862 242.824 65.374 243.248 64.8537C243.681 64.3252 244.242 63.8862 244.931 63.5366C245.628 63.1789 246.493 63 247.526 63C248.872 63 250.113 63.3577 251.251 64.0732C252.389 64.7805 253.298 65.8496 253.979 67.2805C254.66 68.7033 255 70.4878 255 72.6341C255 74.7236 254.668 76.4878 254.003 77.9268C253.346 79.3577 252.449 80.4431 251.311 81.1829C250.182 81.9146 248.916 82.2805 247.514 82.2805C246.521 82.2805 245.676 82.1138 244.979 81.7805C244.29 81.4472 243.725 81.0285 243.284 80.5244C242.844 80.0122 242.507 79.4959 242.275 78.9756H242.119V89H237ZM242.011 72.6098C242.011 73.7236 242.163 74.6951 242.467 75.5244C242.772 76.3537 243.212 77 243.789 77.4634C244.366 77.9187 245.067 78.1463 245.892 78.1463C246.725 78.1463 247.43 77.9146 248.007 77.4512C248.583 76.9797 249.02 76.3293 249.316 75.5C249.621 74.6626 249.773 73.6992 249.773 72.6098C249.773 71.5285 249.625 70.5772 249.328 69.7561C249.032 68.935 248.595 68.2927 248.019 67.8293C247.442 67.3659 246.733 67.1341 245.892 67.1341C245.059 67.1341 244.354 67.3577 243.777 67.8049C243.208 68.252 242.772 68.8862 242.467 69.7073C242.163 70.5285 242.011 71.4959 242.011 72.6098Z" fill="white"/>
<path d="M207 82V63.2442H211.911V66.5533H212.129C212.516 65.4544 213.161 64.5874 214.065 63.9524C214.968 63.3175 216.048 63 217.306 63C218.581 63 219.665 63.3216 220.56 63.9647C221.456 64.5996 222.052 65.4625 222.351 66.5533H222.544C222.923 65.4788 223.609 64.62 224.601 63.9769C225.601 63.3256 226.782 63 228.145 63C229.879 63 231.286 63.5576 232.367 64.6729C233.456 65.78 234 67.3511 234 69.3862V82H228.859V70.412C228.859 69.37 228.585 68.5885 228.036 68.0675C227.488 67.5465 226.802 67.286 225.98 67.286C225.044 67.286 224.315 67.5872 223.79 68.1896C223.266 68.7838 223.004 69.5694 223.004 70.5463V82H218.008V70.3021C218.008 69.3822 217.746 68.6495 217.222 68.1041C216.706 67.5587 216.024 67.286 215.177 67.286C214.605 67.286 214.089 67.4325 213.629 67.7256C213.177 68.0105 212.819 68.4135 212.552 68.9344C212.286 69.4473 212.153 70.0497 212.153 70.7416V82H207Z" fill="white"/>
<path d="M194 82C192.151 82 190.552 81.6047 189.202 80.814C187.861 80.0153 186.825 78.9052 186.095 77.4836C185.365 76.054 185 74.3968 185 72.512C185 70.6112 185.365 68.95 186.095 67.5284C186.825 66.0988 187.861 64.9887 189.202 64.198C190.552 63.3993 192.151 63 194 63C195.849 63 197.444 63.3993 198.786 64.198C200.135 64.9887 201.175 66.0988 201.905 67.5284C202.635 68.95 203 70.6112 203 72.512C203 74.3968 202.635 76.054 201.905 77.4836C201.175 78.9052 200.135 80.0153 198.786 80.814C197.444 81.6047 195.849 82 194 82ZM194.024 78.0467C194.865 78.0467 195.567 77.8071 196.131 77.3279C196.694 76.8407 197.119 76.1778 197.405 75.3392C197.698 74.5006 197.845 73.5462 197.845 72.476C197.845 71.4058 197.698 70.4514 197.405 69.6129C197.119 68.7743 196.694 68.1114 196.131 67.6242C195.567 67.137 194.865 66.8934 194.024 66.8934C193.175 66.8934 192.46 67.137 191.881 67.6242C191.31 68.1114 190.877 68.7743 190.583 69.6129C190.298 70.4514 190.155 71.4058 190.155 72.476C190.155 73.5462 190.298 74.5006 190.583 75.3392C190.877 76.1778 191.31 76.8407 191.881 77.3279C192.46 77.8071 193.175 78.0467 194.024 78.0467Z" fill="white"/>
<path d="M182 65.8522H176.772C176.676 65.1789 176.481 64.5808 176.187 64.058C175.892 63.5272 175.514 63.0757 175.053 62.7034C174.591 62.3311 174.058 62.0459 173.453 61.8479C172.856 61.6499 172.208 61.5509 171.507 61.5509C170.242 61.5509 169.14 61.8638 168.201 62.4895C167.262 63.1074 166.534 64.0105 166.016 65.1987C165.499 66.379 165.24 67.8127 165.24 69.5C165.24 71.2348 165.499 72.6923 166.016 73.8726C166.542 75.0529 167.274 75.9441 168.213 76.5461C169.152 77.1481 170.238 77.4491 171.472 77.4491C172.164 77.4491 172.804 77.358 173.393 77.1759C173.99 76.9937 174.519 76.7283 174.981 76.3798C175.443 76.0233 175.825 75.5916 176.127 75.0846C176.437 74.5776 176.652 73.9994 176.772 73.3498L182 73.3736C181.865 74.4905 181.526 75.5678 180.985 76.6055C180.452 77.6353 179.732 78.5581 178.825 79.374C177.925 80.182 176.851 80.8237 175.602 81.299C174.36 81.7663 172.956 82 171.388 82C169.207 82 167.258 81.5089 165.539 80.5266C163.828 79.5444 162.475 78.1225 161.48 76.2609C160.493 74.3994 160 72.1458 160 69.5C160 66.8463 160.501 64.5887 161.504 62.7272C162.507 60.8657 163.868 59.4477 165.587 58.4734C167.305 57.4911 169.239 57 171.388 57C172.804 57 174.118 57.198 175.327 57.5941C176.545 57.9902 177.623 58.5684 178.562 59.3289C179.501 60.0814 180.265 61.0043 180.854 62.0974C181.451 63.1906 181.833 64.4422 182 65.8522Z" fill="white"/>
<path d="M137.095 82C135.425 82 133.983 81.6991 132.77 81.0974C131.557 80.4956 130.623 79.6801 129.969 78.6508C129.323 77.6136 129 76.4576 129 75.1829C129 74.2328 129.189 73.3895 129.567 72.6532C129.945 71.9169 130.473 71.2399 131.151 70.6223C131.828 69.9968 132.616 69.3753 133.514 68.7577L138.206 65.658C138.813 65.27 139.258 64.8622 139.541 64.4347C139.825 63.9992 139.967 63.5281 139.967 63.0214C139.967 62.5384 139.774 62.0911 139.388 61.6793C139.002 61.2676 138.454 61.0657 137.745 61.0736C137.272 61.0736 136.863 61.1805 136.516 61.3943C136.169 61.6002 135.898 61.8733 135.701 62.2138C135.512 62.5463 135.417 62.9184 135.417 63.3302C135.417 63.8369 135.559 64.3515 135.842 64.8741C136.126 65.3967 136.504 65.9509 136.977 66.5368C137.45 67.1148 137.966 67.7403 138.525 68.4133L150 81.6437H144.753L135.181 70.9311C134.55 70.2106 133.92 69.4584 133.29 68.6746C132.667 67.8828 132.147 67.0435 131.73 66.1568C131.312 65.2621 131.104 64.2922 131.104 63.247C131.104 62.0673 131.375 61.0063 131.919 60.0641C132.47 59.1219 133.243 58.3777 134.235 57.8314C135.228 57.2771 136.386 57 137.71 57C139.002 57 140.116 57.2652 141.054 57.7957C141.999 58.3183 142.724 59.015 143.228 59.886C143.741 60.749 143.997 61.6991 143.997 62.7363C143.997 63.8844 143.713 64.9256 143.146 65.8599C142.586 66.7862 141.799 67.6176 140.782 68.3539L135.842 71.9287C135.173 72.4196 134.676 72.9224 134.353 73.4371C134.038 73.9438 133.881 74.4307 133.881 74.8979C133.881 75.4759 134.023 75.9945 134.306 76.4537C134.59 76.9129 134.992 77.2771 135.512 77.5463C136.032 77.8076 136.642 77.9382 137.343 77.9382C138.194 77.9382 139.033 77.7443 139.86 77.3563C140.696 76.9604 141.452 76.4022 142.129 75.6817C142.815 74.9533 143.362 74.0903 143.772 73.0926C144.182 72.095 144.387 70.9905 144.387 69.7791H148.558C148.558 71.2676 148.397 72.6097 148.074 73.8052C147.751 74.9929 147.302 76.0301 146.727 76.9169C146.151 77.7957 145.494 78.5162 144.753 79.0784C144.517 79.2288 144.288 79.3713 144.068 79.5059C143.847 79.6405 143.618 79.7831 143.382 79.9335C142.484 80.6619 141.479 81.1884 140.369 81.5131C139.266 81.8377 138.174 82 137.095 82Z" fill="white"/>
<path d="M243.114 34.1568V45H238V26.2442H242.874V29.5533H243.09C243.499 28.4625 244.183 27.5996 245.143 26.9647C246.104 26.3216 247.268 26 248.637 26C249.918 26 251.034 26.2849 251.987 26.8548C252.939 27.4246 253.679 28.2386 254.208 29.2969C254.736 30.347 255 31.6007 255 33.0578V45H249.886V33.9859C249.894 32.838 249.605 31.9426 249.021 31.2995C248.437 30.6482 247.633 30.3226 246.608 30.3226C245.92 30.3226 245.311 30.4732 244.783 30.7744C244.263 31.0756 243.855 31.5152 243.559 32.0932C243.27 32.663 243.122 33.3509 243.114 34.1568Z" fill="white"/>
<path d="M228.209 45V26.5538H233.765V45H228.209ZM231 24.176C230.174 24.176 229.465 23.9238 228.874 23.4194C228.291 22.907 228 22.2945 228 21.582C228 20.8774 228.291 20.273 228.874 19.7686C229.465 19.2562 230.174 19 231 19C231.826 19 232.53 19.2562 233.113 19.7686C233.704 20.273 234 20.8774 234 21.582C234 22.2945 233.704 22.907 233.113 23.4194C232.53 23.9238 231.826 24.176 231 24.176Z" fill="white"/>
<path d="M207 44.6985V20H212.119V29.2861H212.275C212.499 28.7876 212.824 28.2811 213.248 27.7665C213.681 27.2439 214.242 26.8098 214.931 26.4641C215.628 26.1103 216.493 25.9334 217.526 25.9334C218.872 25.9334 220.113 26.2872 221.251 26.9947C222.389 27.6942 223.298 28.7514 223.979 30.1664C224.66 31.5734 225 33.3382 225 35.4607C225 37.5269 224.668 39.2716 224.003 40.6946C223.346 42.1097 222.449 43.183 221.311 43.9146C220.182 44.6382 218.916 45 217.514 45C216.521 45 215.676 44.8352 214.979 44.5055C214.29 44.1759 213.725 43.7619 213.284 43.2634C212.844 42.7569 212.507 42.2463 212.275 41.7318H212.047V44.6985H207ZM212.011 35.4366C212.011 36.538 212.163 37.4988 212.467 38.3189C212.772 39.1389 213.212 39.7781 213.789 40.2364C214.366 40.6866 215.067 40.9117 215.892 40.9117C216.725 40.9117 217.43 40.6826 218.007 40.2243C218.583 39.758 219.02 39.1148 219.316 38.2947C219.621 37.4666 219.773 36.5139 219.773 35.4366C219.773 34.3673 219.625 33.4266 219.328 32.6146C219.032 31.8025 218.595 31.1674 218.019 30.7091C217.442 30.2508 216.733 30.0217 215.892 30.0217C215.059 30.0217 214.354 30.2428 213.777 30.685C213.208 31.1272 212.772 31.7543 212.467 32.5663C212.163 33.3784 212.011 34.3351 212.011 35.4366Z" fill="white"/>
<path d="M197.867 37.7699V27H203V45.7558H198.072V42.349H197.88C197.462 43.4479 196.767 44.3312 195.795 44.9987C194.831 45.6662 193.655 46 192.265 46C191.028 46 189.94 45.7151 189 45.1452C188.06 44.5754 187.325 43.7654 186.795 42.7153C186.273 41.6652 186.008 40.4075 186 38.9422V27H191.133V38.0141C191.141 39.1213 191.434 39.9964 192.012 40.6395C192.59 41.2826 193.365 41.6041 194.337 41.6041C194.956 41.6041 195.534 41.4617 196.072 41.1767C196.61 40.8837 197.044 40.4522 197.373 39.8824C197.711 39.3126 197.876 38.6084 197.867 37.7699Z" fill="white"/>
<path d="M172 45V26.2683H176.874V29.5366H177.063C177.394 28.374 177.948 27.4959 178.727 26.9024C179.506 26.3008 180.403 26 181.418 26C181.67 26 181.942 26.0163 182.233 26.0488C182.524 26.0813 182.78 26.126 183 26.1829V30.7927C182.764 30.7195 182.437 30.6545 182.02 30.5976C181.603 30.5407 181.222 30.5122 180.876 30.5122C180.136 30.5122 179.475 30.6789 178.893 31.0122C178.318 31.3374 177.862 31.7927 177.524 32.378C177.193 32.9634 177.028 33.6382 177.028 34.4024V45H172Z" fill="white"/>
<path d="M157.305 45C156.094 45 155.014 44.7962 154.066 44.3886C153.118 43.9731 152.368 43.3617 151.816 42.5546C151.272 41.7394 151 40.7245 151 39.5098C151 38.4869 151.194 37.6278 151.581 36.9325C151.968 36.2372 152.496 35.6778 153.164 35.2543C153.831 34.8307 154.59 34.511 155.439 34.2953C156.296 34.0795 157.194 33.9277 158.134 33.8397C159.238 33.7279 160.128 33.624 160.804 33.5281C161.48 33.4242 161.971 33.2723 162.276 33.0726C162.581 32.8728 162.733 32.5771 162.733 32.1855V32.1136C162.733 31.3544 162.486 30.767 161.991 30.3514C161.505 29.9359 160.813 29.7281 159.914 29.7281C158.966 29.7281 158.212 29.9319 157.652 30.3394C157.091 30.739 156.72 31.2425 156.539 31.8498L151.668 31.4662C151.915 30.3474 152.401 29.3804 153.127 28.5653C153.852 27.7422 154.787 27.1108 155.933 26.6713C157.087 26.2238 158.422 26 159.939 26C160.994 26 162.004 26.1199 162.968 26.3596C163.941 26.5994 164.802 26.971 165.552 27.4744C166.31 27.9779 166.908 28.6252 167.345 29.4164C167.782 30.1996 168 31.1386 168 32.2334V44.6524H163.005V42.0991H162.857C162.552 42.6744 162.144 43.1819 161.633 43.6215C161.122 44.053 160.508 44.3926 159.791 44.6404C159.073 44.8801 158.245 45 157.305 45ZM158.814 41.4757C159.589 41.4757 160.273 41.3279 160.866 41.0322C161.46 40.7285 161.925 40.3209 162.263 39.8095C162.601 39.298 162.77 38.7186 162.77 38.0713V36.1173C162.605 36.2212 162.379 36.3171 162.09 36.405C161.81 36.485 161.493 36.5609 161.138 36.6328C160.784 36.6967 160.429 36.7567 160.075 36.8126C159.72 36.8606 159.399 36.9045 159.111 36.9445C158.492 37.0324 157.952 37.1722 157.491 37.364C157.029 37.5558 156.671 37.8156 156.415 38.1432C156.16 38.4629 156.032 38.8625 156.032 39.342C156.032 40.0372 156.292 40.5687 156.811 40.9363C157.338 41.2959 158.006 41.4757 158.814 41.4757Z" fill="white"/>
<path d="M129.024 45V41.8628L141.392 24.3579H129V20H147.976V23.1372L135.596 40.6421H148V45H129.024Z" fill="white"/>
</g>
<defs>
<clipPath id="clip0_97_86">
<rect width="316" height="101" />
</clipPath>
</defs>
</svg>
