<svg viewBox="0 0 21 21" fill="none" xmlns="http://www.w3.org/2000/svg">
<path d="M20.7852 10.0857C20.7852 15.6085 16.308 20.0857 10.7852 20.0857C5.26231 20.0857 0.785156 15.6085 0.785156 10.0857C0.785156 4.56285 5.26231 0.0856934 10.7852 0.0856934C16.308 0.0856934 20.7852 4.56285 20.7852 10.0857Z" fill="#013EDF"/>
<path fill-rule="evenodd" clip-rule="evenodd" d="M10.7852 5.33569C11.1994 5.33569 11.5352 5.67148 11.5352 6.08569V9.77503L13.8155 12.0554C14.1084 12.3483 14.1084 12.8231 13.8155 13.116C13.5226 13.4089 13.0477 13.4089 12.7548 13.116L10.2548 10.616C10.1142 10.4754 10.0352 10.2846 10.0352 10.0857V6.08569C10.0352 5.67148 10.3709 5.33569 10.7852 5.33569Z" fill="white"/>
</svg>
