<svg viewBox="0 0 141 24" fill="none" xmlns="http://www.w3.org/2000/svg">
<path d="M2.66302 16.0592C2.12463 16.0592 1.67312 15.9379 1.30851 15.6953C0.943899 15.4528 0.669589 15.1228 0.48558 14.7056C0.301571 14.2851 0.209566 13.8145 0.209566 13.2937C0.209566 12.7665 0.301571 12.2943 0.48558 11.877C0.669589 11.4598 0.938788 11.1315 1.29318 10.8921C1.65097 10.6495 2.09225 10.5283 2.61702 10.5283C3.13838 10.5283 3.58988 10.6495 3.97153 10.8921C4.35659 11.1315 4.65475 11.4598 4.86602 11.877C5.07729 12.291 5.18293 12.7633 5.18293 13.2937C5.18293 13.8177 5.079 14.2883 4.87113 14.7056C4.66327 15.1228 4.37022 15.4528 3.99198 15.6953C3.61374 15.9379 3.17075 16.0592 2.66302 16.0592ZM0 18.2425V10.6738H1.08872V14.3514H1.24206V18.2425H0ZM2.4739 15.0113C2.79421 15.0113 3.0583 14.9352 3.26616 14.7832C3.47403 14.6312 3.62737 14.4258 3.72619 14.1671C3.82841 13.9051 3.87953 13.614 3.87953 13.2937C3.87953 12.9768 3.82841 12.6889 3.72619 12.4301C3.62396 12.1681 3.46551 11.9611 3.25083 11.8091C3.03615 11.6539 2.76355 11.5762 2.43301 11.5762C2.11951 11.5762 1.86395 11.649 1.66631 11.7946C1.46867 11.9369 1.32214 12.1374 1.22673 12.3962C1.13472 12.6517 1.08872 12.9509 1.08872 13.2937C1.08872 13.6334 1.13472 13.9326 1.22673 14.1913C1.32214 14.4501 1.47037 14.6522 1.67142 14.7978C1.87587 14.9401 2.14337 15.0113 2.4739 15.0113Z" fill="white"/>
<path d="M8.74771 16.0592C8.19568 16.0592 7.71351 15.9412 7.30119 15.7051C6.88887 15.4689 6.56856 15.1439 6.34025 14.7299C6.11535 14.3126 6.0029 13.8339 6.0029 13.2937C6.0029 12.7439 6.11876 12.2619 6.35048 11.8479C6.58219 11.4339 6.90421 11.1105 7.31652 10.8776C7.72884 10.6447 8.2059 10.5283 8.74771 10.5283C9.30314 10.5283 9.78702 10.6463 10.1993 10.8824C10.6117 11.1185 10.932 11.4452 11.1603 11.8625C11.3886 12.2765 11.5027 12.7536 11.5027 13.2937C11.5027 13.8371 11.3869 14.3175 11.1552 14.7347C10.9269 15.1487 10.6065 15.4738 10.1942 15.7099C9.78191 15.9428 9.29974 16.0592 8.74771 16.0592ZM8.74771 14.9627C9.2384 14.9627 9.60301 14.8075 9.84154 14.497C10.0801 14.1865 10.1993 13.7854 10.1993 13.2937C10.1993 12.7859 10.0784 12.3816 9.83643 12.0808C9.59449 11.7768 9.23158 11.6247 8.74771 11.6247C8.41717 11.6247 8.14457 11.6959 7.92989 11.8382C7.71862 11.9773 7.56187 12.173 7.45964 12.4253C7.35742 12.6743 7.3063 12.9638 7.3063 13.2937C7.3063 13.8016 7.42727 14.2075 7.66921 14.5115C7.91455 14.8123 8.27405 14.9627 8.74771 14.9627Z" fill="white"/>
<path d="M13.6049 15.9137L11.9181 10.6641L13.1244 10.6738L14.2029 14.0361L15.2967 10.6738H16.3343L17.4231 14.0361L18.5067 10.6738H19.713L18.0262 15.9137H17.0653L15.813 12.3088L14.5658 15.9137H13.6049Z" fill="white"/>
<path d="M22.9454 16.0592C22.3866 16.0592 21.8959 15.9444 21.4733 15.7148C21.0508 15.4851 20.7203 15.1665 20.4817 14.759C20.2466 14.3514 20.129 13.8824 20.129 13.352C20.129 12.7795 20.2449 12.283 20.4766 11.8625C20.7083 11.4388 21.0304 11.1105 21.4427 10.8776C21.855 10.6447 22.332 10.5283 22.8739 10.5283C23.4463 10.5283 23.9319 10.656 24.3306 10.9115C24.7327 11.1638 25.0308 11.5212 25.2251 11.9838C25.4193 12.4463 25.4926 12.9913 25.4449 13.6188H24.2233V13.1919C24.2198 12.6226 24.1142 12.207 23.9063 11.945C23.6985 11.683 23.3714 11.552 22.925 11.552C22.4206 11.552 22.0458 11.7008 21.8005 11.9983C21.5551 12.2927 21.4324 12.7245 21.4324 13.2937C21.4324 13.8242 21.5551 14.235 21.8005 14.5261C22.0458 14.8172 22.4036 14.9627 22.8739 14.9627C23.1771 14.9627 23.4378 14.8997 23.6559 14.7735C23.8774 14.6441 24.0478 14.4582 24.167 14.2156L25.3835 14.5649C25.1723 15.0371 24.8451 15.4042 24.4022 15.6662C23.9626 15.9282 23.477 16.0592 22.9454 16.0592ZM21.044 13.6188V12.7358H24.8417V13.6188H21.044Z" fill="white"/>
<path d="M26.5853 15.9137V10.6738H27.6741V11.9498L27.5412 11.7849C27.6093 11.6102 27.6996 11.4517 27.8121 11.3094C27.9279 11.1638 28.0659 11.0442 28.2261 10.9504C28.3624 10.863 28.5123 10.7951 28.6759 10.7466C28.8429 10.6948 29.0132 10.6641 29.187 10.6544C29.3608 10.6415 29.5295 10.6479 29.6931 10.6738V11.7654C29.5295 11.7202 29.3404 11.7056 29.1257 11.7218C28.9144 11.738 28.7236 11.7946 28.5532 11.8916C28.3828 11.9789 28.2431 12.0905 28.1341 12.2264C28.0285 12.3622 27.9501 12.5175 27.899 12.6921C27.8479 12.8636 27.8223 13.0495 27.8223 13.2501V15.9137H26.5853Z" fill="white"/>
<path d="M33.0783 16.0592C32.5195 16.0592 32.0288 15.9444 31.6062 15.7148C31.1837 15.4851 30.8531 15.1665 30.6146 14.759C30.3795 14.3514 30.2619 13.8824 30.2619 13.352C30.2619 12.7795 30.3778 12.283 30.6095 11.8625C30.8412 11.4388 31.1632 11.1105 31.5756 10.8776C31.9879 10.6447 32.4649 10.5283 33.0067 10.5283C33.5792 10.5283 34.0648 10.656 34.4635 10.9115C34.8656 11.1638 35.1637 11.5212 35.358 11.9838C35.5522 12.4463 35.6255 12.9913 35.5778 13.6188H34.3561V13.1919C34.3527 12.6226 34.2471 12.207 34.0392 11.945C33.8314 11.683 33.5042 11.552 33.0579 11.552C32.5535 11.552 32.1787 11.7008 31.9334 11.9983C31.688 12.2927 31.5653 12.7245 31.5653 13.2937C31.5653 13.8242 31.688 14.235 31.9334 14.5261C32.1787 14.8172 32.5365 14.9627 33.0067 14.9627C33.31 14.9627 33.5707 14.8997 33.7888 14.7735C34.0103 14.6441 34.1807 14.4582 34.2999 14.2156L35.5164 14.5649C35.3052 15.0371 34.978 15.4042 34.535 15.6662C34.0955 15.9282 33.6099 16.0592 33.0783 16.0592ZM31.1769 13.6188V12.7358H34.9746V13.6188H31.1769Z" fill="white"/>
<path d="M38.9315 16.0592C38.4237 16.0592 37.9807 15.9379 37.6025 15.6953C37.2243 15.4528 36.9312 15.1228 36.7233 14.7056C36.5155 14.2883 36.4116 13.8177 36.4116 13.2937C36.4116 12.7633 36.5155 12.291 36.7233 11.877C36.9346 11.4598 37.2328 11.1315 37.6178 10.8921C38.0029 10.6495 38.4561 10.5283 38.9775 10.5283C39.5022 10.5283 39.9418 10.6495 40.2962 10.8921C40.654 11.1315 40.9249 11.4598 41.1089 11.877C41.2929 12.2943 41.3849 12.7665 41.3849 13.2937C41.3849 13.8145 41.2929 14.2851 41.1089 14.7056C40.9249 15.1228 40.6506 15.4528 40.286 15.6953C39.9214 15.9379 39.4699 16.0592 38.9315 16.0592ZM39.1206 15.0113C39.4511 15.0113 39.7169 14.9401 39.9179 14.7978C40.1224 14.6522 40.2706 14.4501 40.3626 14.1913C40.458 13.9326 40.5058 13.6334 40.5058 13.2937C40.5058 12.9509 40.458 12.6517 40.3626 12.3962C40.2706 12.1374 40.1258 11.9369 39.9282 11.7946C39.7305 11.649 39.475 11.5762 39.1615 11.5762C38.8309 11.5762 38.5583 11.6539 38.3436 11.8091C38.129 11.9611 37.9705 12.1681 37.8683 12.4301C37.7661 12.6889 37.715 12.9768 37.715 13.2937C37.715 13.614 37.7644 13.9051 37.8632 14.1671C37.9654 14.4258 38.1205 14.6312 38.3283 14.7832C38.5362 14.9352 38.8003 15.0113 39.1206 15.0113ZM40.5058 15.9137V12.2361H40.3524V8.92718H41.5945V15.9137H40.5058Z" fill="white"/>
<path d="M47.7269 16.0592C47.1885 16.0592 46.737 15.9379 46.3724 15.6953C46.0078 15.4528 45.7335 15.1228 45.5495 14.7056C45.3655 14.2851 45.2735 13.8145 45.2735 13.2937C45.2735 12.7665 45.3655 12.2943 45.5495 11.877C45.7335 11.4598 46.0027 11.1315 46.3571 10.8921C46.7149 10.6495 47.1562 10.5283 47.6809 10.5283C48.2023 10.5283 48.6538 10.6495 49.0354 10.8921C49.4205 11.1315 49.7187 11.4598 49.9299 11.877C50.1412 12.291 50.2468 12.7633 50.2468 13.2937C50.2468 13.8177 50.1429 14.2883 49.935 14.7056C49.7272 15.1228 49.4341 15.4528 49.0559 15.6953C48.6776 15.9379 48.2346 16.0592 47.7269 16.0592ZM45.0639 15.9137V8.92718H46.306V12.2361H46.1526V15.9137H45.0639ZM47.5378 15.0113C47.8581 15.0113 48.1222 14.9352 48.3301 14.7832C48.5379 14.6312 48.6913 14.4258 48.7901 14.1671C48.8923 13.9051 48.9434 13.614 48.9434 13.2937C48.9434 12.9768 48.8923 12.6889 48.7901 12.4301C48.6879 12.1681 48.5294 11.9611 48.3147 11.8091C48.1001 11.6539 47.8274 11.5762 47.4969 11.5762C47.1834 11.5762 46.9278 11.649 46.7302 11.7946C46.5326 11.9369 46.386 12.1374 46.2906 12.3962C46.1986 12.6517 46.1526 12.9509 46.1526 13.2937C46.1526 13.6334 46.1986 13.9326 46.2906 14.1913C46.386 14.4501 46.5343 14.6522 46.7353 14.7978C46.9398 14.9401 47.2073 15.0113 47.5378 15.0113Z" fill="white"/>
<path d="M51.7299 18.2425L52.7931 15.4722L52.8135 16.2873L50.4061 10.6738H51.689L53.3962 14.8269H53.0691L54.7303 10.6738H55.9621L52.8851 18.2425H51.7299Z" fill="white"/>
<path d="M63.9604 14.2468C63.8149 14.1122 63.6303 14.0209 63.4299 13.9846C63.2295 13.9483 63.0222 13.9686 62.834 14.0429C62.6458 14.1172 62.4851 14.2422 62.372 14.4022C62.259 14.5622 62.1987 14.7501 62.1987 14.9423C62.1987 15.1344 62.259 15.3223 62.372 15.4824C62.4851 15.6425 62.6458 15.7674 62.834 15.8417C63.0222 15.916 63.2295 15.9363 63.4299 15.9C63.6303 15.8637 63.8149 15.7725 63.9604 15.6377C64.0579 15.5467 64.1353 15.4384 64.1881 15.319C64.2409 15.1997 64.2681 15.0716 64.2681 14.9423C64.2681 14.813 64.2409 14.685 64.1881 14.5656C64.1353 14.4463 64.0579 14.3379 63.9604 14.2468Z" fill="white"/>
<path d="M85.2455 9.77389C85.3903 9.91038 85.5747 10.0034 85.7757 10.0411C85.9766 10.0788 86.1849 10.0595 86.3742 9.98573C86.5635 9.91196 86.7253 9.78696 86.8392 9.62655C86.953 9.46616 87.0138 9.27757 87.0138 9.08463C87.0138 8.89172 86.953 8.70313 86.8392 8.54272C86.7253 8.38233 86.5635 8.25732 86.3742 8.18354C86.1849 8.10975 85.9766 8.0905 85.7757 8.12821C85.5747 8.16591 85.3903 8.2589 85.2455 8.39539C85.1488 8.48566 85.0722 8.59304 85.0199 8.71133C84.9676 8.82962 84.9406 8.9565 84.9406 9.08463C84.9406 9.21279 84.9676 9.33966 85.0199 9.45795C85.0722 9.57625 85.1488 9.68363 85.2455 9.77389Z" fill="white"/>
<path d="M67.2771 6.4944C67.4611 6.3097 67.5617 6.06482 67.5574 5.81155C67.5531 5.55829 67.4444 5.31653 67.2542 5.13742C67.064 4.95831 66.8073 4.85592 66.5383 4.8519C66.2694 4.84788 66.0093 4.94256 65.8132 5.11589L61.4435 9.2514C61.3 9.38857 61.2027 9.56251 61.1636 9.75146C61.1245 9.94043 61.1455 10.136 61.2238 10.3139C61.3021 10.4917 61.4344 10.6438 61.604 10.7513C61.7737 10.8587 61.9732 10.9167 62.1776 10.918C62.3135 10.9182 62.4481 10.8929 62.5734 10.8434C62.6987 10.794 62.8123 10.7214 62.9073 10.6299L67.2771 6.4944Z" fill="white"/>
<path d="M68.7409 10.2266C69.0158 10.2266 69.2795 10.1246 69.475 9.94266L78.2538 1.66752C78.4486 1.48471 78.5582 1.23657 78.5585 0.977661C78.5589 0.718756 78.4501 0.470301 78.256 0.286953C78.0619 0.103607 77.7983 0.000386937 77.5234 1.08565e-06C77.2485 -0.000384765 76.9847 0.102095 76.79 0.284897L68.0112 8.56416C67.8732 8.70125 67.7804 8.87316 67.7442 9.05896C67.7079 9.24478 67.7298 9.4365 67.8071 9.61083C67.8844 9.78517 68.0138 9.93461 68.1796 10.041C68.3453 10.1474 68.5404 10.2061 68.7409 10.2101V10.2266Z" fill="white"/>
<path d="M82.6454 1.66761C82.5495 1.57666 82.4355 1.50448 82.3099 1.45522C82.1843 1.40596 82.0496 1.38059 81.9135 1.38059C81.7774 1.38059 81.6426 1.40596 81.517 1.45522C81.3915 1.50448 81.2774 1.57666 81.1816 1.66761L63.6196 18.2179C63.523 18.3081 63.4463 18.4156 63.394 18.5338C63.3417 18.6521 63.3148 18.779 63.3148 18.9072C63.3148 19.0353 63.3417 19.1622 63.394 19.2804C63.4463 19.3987 63.523 19.5061 63.6196 19.5964C63.7151 19.6878 63.829 19.7605 63.9547 19.8101C64.0804 19.8596 64.2152 19.8851 64.3515 19.8851C64.4877 19.8851 64.6226 19.8596 64.7483 19.8101C64.8739 19.7605 64.9879 19.6878 65.0834 19.5964L82.6454 3.0461C82.8384 2.86272 82.9465 2.61501 82.9465 2.35686C82.9465 2.09871 82.8384 1.85099 82.6454 1.66761Z" fill="white"/>
<path d="M85.5731 4.42456C85.4772 4.33361 85.3633 4.26143 85.2376 4.21217C85.112 4.16291 84.9772 4.13756 84.8412 4.13756C84.7052 4.13756 84.5704 4.16291 84.4447 4.21217C84.3192 4.26143 84.2052 4.33361 84.1093 4.42456L66.5473 20.9871C66.4506 21.0778 66.3738 21.1855 66.3215 21.3042C66.2691 21.4229 66.2421 21.55 66.2421 21.6785C66.2421 21.807 66.2691 21.9342 66.3215 22.0528C66.3738 22.1714 66.4506 22.2792 66.5473 22.3698C66.643 22.4602 66.7568 22.5318 66.882 22.5805C67.0073 22.6292 67.1415 22.6542 67.277 22.6538C67.5519 22.6538 67.8157 22.5517 68.0111 22.3698L85.5731 5.80307C85.7661 5.61967 85.8742 5.37196 85.8742 5.11381C85.8742 4.85567 85.7661 4.60796 85.5731 4.42456Z" fill="white"/>
<path d="M81.1816 14.0781C80.9869 13.8964 80.7238 13.7946 80.4497 13.7946C80.1754 13.7946 79.9124 13.8964 79.7177 14.0781L70.952 22.3574C70.7679 22.542 70.6674 22.7869 70.6717 23.0402C70.6759 23.2935 70.7847 23.5352 70.9749 23.7144C71.1651 23.8934 71.4218 23.9959 71.6908 23.9999C71.9597 24.0039 72.2197 23.9092 72.4159 23.7359L81.1991 15.4607C81.3899 15.2745 81.4951 15.0249 81.4919 14.766C81.4887 14.5073 81.3772 14.26 81.1816 14.0781Z" fill="white"/>
<path d="M87.037 14.0781C86.8422 13.8964 86.5792 13.7946 86.3051 13.7946C86.031 13.7946 85.7679 13.8964 85.5732 14.0781L79.7177 19.5963C79.5248 19.7797 79.4165 20.0274 79.4165 20.2855C79.4165 20.5437 79.5248 20.7914 79.7177 20.9748C79.8133 21.0662 79.9273 21.1389 80.0528 21.1885C80.1785 21.238 80.3134 21.2636 80.4497 21.2636C80.5859 21.2636 80.7207 21.238 80.8465 21.1885C80.972 21.1389 81.086 21.0662 81.1816 20.9748L87.037 15.4607C87.2302 15.2767 87.3386 15.0283 87.3386 14.7694C87.3386 14.5107 87.2302 14.2622 87.037 14.0781Z" fill="white"/>
<path d="M83.1873 10.3459C83.0424 10.4823 82.9436 10.656 82.9036 10.8452C82.8635 11.0344 82.884 11.2306 82.9623 11.4088C83.0407 11.5871 83.1735 11.7395 83.3437 11.8467C83.5141 11.9539 83.7144 12.0111 83.9192 12.0111C84.124 12.0111 84.3244 11.9539 84.4947 11.8467C84.6651 11.7395 84.7978 11.5871 84.8761 11.4088C84.9544 11.2306 84.975 11.0344 84.9348 10.8452C84.8948 10.656 84.7961 10.4823 84.6511 10.3459C84.5552 10.255 84.4413 10.1828 84.3157 10.1335C84.19 10.0843 84.0553 10.0589 83.9192 10.0589C83.7832 10.0589 83.6484 10.0843 83.5229 10.1335C83.3972 10.1828 83.2832 10.255 83.1873 10.3459Z" fill="white"/>
<path d="M72.2236 1.9721C72.3686 1.83575 72.4673 1.66199 72.5073 1.47278C72.5474 1.28358 72.5269 1.08743 72.4486 0.909174C72.3702 0.730915 72.2375 0.578545 72.0672 0.471341C71.8968 0.364137 71.6966 0.306916 71.4917 0.306916C71.2868 0.306916 71.0866 0.364137 70.9162 0.471341C70.7459 0.578545 70.6132 0.730915 70.5348 0.909174C70.4564 1.08743 70.436 1.28358 70.476 1.47278C70.5161 1.66199 70.6148 1.83575 70.7598 1.9721C70.9545 2.15378 71.2176 2.2557 71.4917 2.2557C71.7658 2.2557 72.0289 2.15378 72.2236 1.9721Z" fill="white"/>
<path d="M137.383 21.3765C137.216 21.3765 137.06 21.3642 136.913 21.3395C136.769 21.3168 136.649 21.2874 136.554 21.2514L136.851 20.3473C137.006 20.3909 137.145 20.4146 137.269 20.4184C137.395 20.4221 137.503 20.3956 137.594 20.3387C137.687 20.2819 137.762 20.1852 137.82 20.0487L137.897 19.8639L136.192 15.3719H137.578L138.562 18.5789H138.612L139.605 15.3719H141L139.153 20.2108C139.064 20.4458 138.944 20.6505 138.791 20.8249C138.64 21.0012 138.45 21.1367 138.219 21.2315C137.988 21.3281 137.709 21.3765 137.383 21.3765Z" fill="white"/>
<path d="M132.679 17.0908V19.6952H131.385V15.1903H132.618V15.9851H132.673C132.776 15.7231 132.949 15.5159 133.192 15.3634C133.435 15.2089 133.73 15.1317 134.076 15.1317C134.4 15.1317 134.683 15.2001 134.924 15.337C135.165 15.4738 135.352 15.6694 135.486 15.9235C135.619 16.1758 135.686 16.4769 135.686 16.8269V19.6952H134.392V17.0498C134.394 16.7741 134.321 16.559 134.173 16.4045C134.025 16.2481 133.822 16.1699 133.563 16.1699C133.389 16.1699 133.235 16.2061 133.101 16.2784C132.969 16.3508 132.866 16.4563 132.791 16.5952C132.718 16.732 132.681 16.8972 132.679 17.0908Z" fill="white"/>
<path d="M127.919 19.6952C127.613 19.6952 127.34 19.6462 127.1 19.5483C126.86 19.4485 126.67 19.3017 126.53 19.1078C126.393 18.912 126.324 18.6683 126.324 18.3765C126.324 18.1308 126.373 17.9245 126.471 17.7575C126.569 17.5905 126.702 17.4561 126.871 17.3544C127.04 17.2527 127.232 17.1759 127.447 17.1241C127.664 17.0722 127.891 17.0358 128.129 17.0147C128.408 16.9878 128.634 16.9628 128.805 16.9398C128.976 16.9148 129.1 16.8784 129.177 16.8304C129.254 16.7824 129.293 16.7114 129.293 16.6173V16.6001C129.293 16.4177 129.23 16.2766 129.105 16.1768C128.982 16.077 128.807 16.0271 128.579 16.0271C128.34 16.0271 128.149 16.076 128.007 16.1739C127.865 16.2699 127.771 16.3908 127.725 16.5367L126.493 16.4446C126.555 16.1759 126.678 15.9436 126.862 15.7478C127.045 15.5501 127.282 15.3985 127.572 15.2929C127.864 15.1854 128.202 15.1317 128.586 15.1317C128.853 15.1317 129.108 15.1605 129.352 15.218C129.598 15.2756 129.816 15.3649 130.006 15.4858C130.198 15.6067 130.349 15.7622 130.46 15.9522C130.57 16.1403 130.625 16.3659 130.625 16.6288V19.6117H129.362V18.9984H129.324C129.247 19.1366 129.144 19.2585 129.014 19.3641C128.885 19.4677 128.73 19.5493 128.548 19.6088C128.367 19.6664 128.157 19.6952 127.919 19.6952ZM128.301 18.8487C128.497 18.8487 128.67 18.8132 128.82 18.7422C128.97 18.6692 129.088 18.5713 129.174 18.4485C129.259 18.3256 129.302 18.1865 129.302 18.031V17.5617C129.26 17.5867 129.203 17.6097 129.13 17.6308C129.059 17.65 128.979 17.6682 128.889 17.6855C128.799 17.7009 128.71 17.7153 128.62 17.7287C128.53 17.7402 128.449 17.7508 128.376 17.7604C128.22 17.7815 128.083 17.8151 127.966 17.8611C127.849 17.9072 127.759 17.9696 127.694 18.0483C127.629 18.1251 127.597 18.221 127.597 18.3362C127.597 18.5032 127.663 18.6308 127.794 18.7191C127.928 18.8055 128.097 18.8487 128.301 18.8487Z" fill="white"/>
<path d="M121.01 21.3765V15.1903H122.287V15.946H122.345C122.402 15.8249 122.484 15.7019 122.591 15.5769C122.701 15.45 122.842 15.3445 123.017 15.2606C123.193 15.1746 123.412 15.1317 123.673 15.1317C124.014 15.1317 124.328 15.2176 124.616 15.3894C124.904 15.5593 125.134 15.8161 125.306 16.1598C125.479 16.5015 125.565 16.9301 125.565 17.4456C125.565 17.9475 125.481 18.3712 125.312 18.7169C125.146 19.0605 124.919 19.3212 124.631 19.4989C124.345 19.6747 124.025 19.7625 123.67 19.7625C123.419 19.7625 123.205 19.7225 123.029 19.6425C122.855 19.5624 122.712 19.4618 122.6 19.3408C122.489 19.2177 122.404 19.0937 122.345 18.9688H122.305V21.3765H121.01ZM122.278 17.4398C122.278 17.7073 122.316 17.9407 122.393 18.1398C122.47 18.339 122.582 18.4943 122.728 18.6056C122.874 18.7149 123.051 18.7696 123.26 18.7696C123.471 18.7696 123.649 18.7139 123.795 18.6026C123.941 18.4894 124.052 18.3332 124.127 18.134C124.204 17.9328 124.242 17.7015 124.242 17.4398C124.242 17.1801 124.205 16.9516 124.13 16.7544C124.055 16.5572 123.944 16.4029 123.798 16.2916C123.652 16.1803 123.473 16.1246 123.26 16.1246C123.049 16.1246 122.871 16.1783 122.725 16.2857C122.581 16.3931 122.47 16.5454 122.393 16.7427C122.316 16.9399 122.278 17.1723 122.278 17.4398Z" fill="white"/>
<path d="M113.419 19.6952V15.1903H114.662V15.9851H114.717C114.815 15.7212 114.978 15.5129 115.206 15.3604C115.435 15.2079 115.708 15.1317 116.027 15.1317C116.349 15.1317 116.624 15.2089 116.85 15.3634C117.077 15.5159 117.228 15.7231 117.303 15.9851H117.352C117.448 15.727 117.622 15.5208 117.873 15.3663C118.126 15.2099 118.425 15.1317 118.769 15.1317C119.208 15.1317 119.564 15.2656 119.838 15.5335C120.113 15.7994 120.251 16.1767 120.251 16.6656V19.6952H118.95V16.9119C118.95 16.6616 118.881 16.4739 118.742 16.3488C118.603 16.2237 118.43 16.1611 118.221 16.1611C117.985 16.1611 117.8 16.2334 117.667 16.3781C117.535 16.5209 117.468 16.7095 117.468 16.9442V19.6952H116.204V16.8855C116.204 16.6646 116.138 16.4886 116.005 16.3576C115.875 16.2266 115.702 16.1611 115.488 16.1611C115.343 16.1611 115.213 16.1963 115.096 16.2667C114.982 16.3351 114.891 16.4319 114.824 16.557C114.756 16.6802 114.723 16.8249 114.723 16.9911V19.6952H113.419Z" fill="white"/>
<path d="M110.129 19.6952C109.661 19.6952 109.257 19.6002 108.915 19.4103C108.576 19.2185 108.314 18.9519 108.129 18.6104C107.944 18.267 107.852 17.869 107.852 17.4163C107.852 16.9598 107.944 16.5608 108.129 16.2193C108.314 15.876 108.576 15.6093 108.915 15.4194C109.257 15.2276 109.661 15.1317 110.129 15.1317C110.597 15.1317 111.001 15.2276 111.34 15.4194C111.682 15.6093 111.945 15.876 112.13 16.2193C112.314 16.5608 112.407 16.9598 112.407 17.4163C112.407 17.869 112.314 18.267 112.13 18.6104C111.945 18.9519 111.682 19.2185 111.34 19.4103C111.001 19.6002 110.597 19.6952 110.129 19.6952ZM110.135 18.7456C110.348 18.7456 110.526 18.6881 110.669 18.573C110.811 18.456 110.919 18.2968 110.991 18.0954C111.065 17.8939 111.102 17.6647 111.102 17.4077C111.102 17.1506 111.065 16.9214 110.991 16.72C110.919 16.5186 110.811 16.3594 110.669 16.2423C110.526 16.1253 110.348 16.0668 110.135 16.0668C109.921 16.0668 109.74 16.1253 109.593 16.2423C109.449 16.3594 109.339 16.5186 109.265 16.72C109.193 16.9214 109.156 17.1506 109.156 17.4077C109.156 17.6647 109.193 17.8939 109.265 18.0954C109.339 18.2968 109.449 18.456 109.593 18.573C109.74 18.6881 109.921 18.7456 110.135 18.7456Z" fill="white"/>
<path d="M107.093 15.8167H105.77C105.746 15.655 105.696 15.5114 105.622 15.3858C105.547 15.2583 105.452 15.1499 105.335 15.0604C105.218 14.971 105.083 14.9025 104.93 14.855C104.779 14.8074 104.615 14.7836 104.438 14.7836C104.118 14.7836 103.839 14.8588 103.601 15.0091C103.364 15.1575 103.179 15.3744 103.048 15.6598C102.918 15.9432 102.852 16.2876 102.852 16.6929C102.852 17.1095 102.918 17.4596 103.048 17.7431C103.181 18.0266 103.367 18.2406 103.604 18.3852C103.842 18.5298 104.117 18.6021 104.429 18.6021C104.604 18.6021 104.766 18.5803 104.915 18.5365C105.066 18.4927 105.2 18.429 105.317 18.3453C105.434 18.2597 105.53 18.156 105.607 18.0342C105.685 17.9124 105.74 17.7736 105.77 17.6175L107.093 17.6232C107.059 17.8915 106.973 18.1503 106.836 18.3995C106.701 18.6468 106.519 18.8685 106.289 19.0645C106.062 19.2585 105.79 19.4126 105.474 19.5268C105.16 19.6391 104.804 19.6952 104.408 19.6952C103.856 19.6952 103.363 19.5772 102.928 19.3413C102.495 19.1054 102.152 18.7639 101.901 18.3167C101.651 17.8696 101.526 17.3283 101.526 16.6929C101.526 16.0555 101.653 15.5133 101.907 15.0661C102.16 14.619 102.505 14.2785 102.94 14.0444C103.375 13.8085 103.864 13.6906 104.408 13.6906C104.766 13.6906 105.098 13.7381 105.404 13.8333C105.713 13.9284 105.985 14.0673 106.223 14.2499C106.461 14.4307 106.654 14.6523 106.803 14.9149C106.954 15.1775 107.051 15.4781 107.093 15.8167Z" fill="white"/>
<path d="M95.7303 19.6952C95.3076 19.6952 94.9428 19.6229 94.6358 19.4784C94.3288 19.3339 94.0926 19.138 93.9271 18.8908C93.7636 18.6416 93.6819 18.364 93.6819 18.0578C93.6819 17.8296 93.7297 17.6271 93.8254 17.4502C93.9211 17.2734 94.0547 17.1108 94.2261 16.9624C94.3976 16.8122 94.5969 16.6629 94.8242 16.5146L96.0114 15.7701C96.1649 15.6769 96.2775 15.579 96.3493 15.4763C96.421 15.3717 96.4569 15.2585 96.4569 15.1368C96.4569 15.0208 96.4081 14.9134 96.3104 14.8145C96.2127 14.7156 96.0742 14.6671 95.8947 14.669C95.7751 14.669 95.6715 14.6947 95.5837 14.746C95.496 14.7955 95.4272 14.8611 95.3774 14.9428C95.3296 15.0227 95.3056 15.1121 95.3056 15.211C95.3056 15.3327 95.3415 15.4563 95.4133 15.5818C95.4851 15.7073 95.5807 15.8404 95.7004 15.9812C95.82 16.12 95.9505 16.2702 96.0921 16.4319L98.9957 19.6096H97.668L95.2458 17.0366C95.0863 16.8636 94.9269 16.6829 94.7674 16.4946C94.6099 16.3044 94.4783 16.1029 94.3727 15.8899C94.267 15.675 94.2142 15.442 94.2142 15.191C94.2142 14.9077 94.2829 14.6528 94.4205 14.4265C94.5601 14.2002 94.7554 14.0215 95.0066 13.8902C95.2578 13.7571 95.5508 13.6906 95.8858 13.6906C96.2127 13.6906 96.4948 13.7543 96.732 13.8817C96.9712 14.0072 97.1546 14.1745 97.2822 14.3837C97.4118 14.591 97.4766 14.8192 97.4766 15.0683C97.4766 15.3441 97.4048 15.5942 97.2613 15.8186C97.1198 16.0411 96.9204 16.2407 96.6632 16.4176L95.4133 17.2762C95.2438 17.3941 95.1182 17.5149 95.0365 17.6385C94.9568 17.7602 94.9169 17.8772 94.9169 17.9894C94.9169 18.1282 94.9528 18.2527 95.0246 18.363C95.0963 18.4733 95.198 18.5608 95.3296 18.6255C95.4611 18.6882 95.6156 18.7196 95.7931 18.7196C96.0084 18.7196 96.2207 18.673 96.43 18.5798C96.6413 18.4847 96.8327 18.3507 97.0041 18.1776C97.1776 18.0027 97.3161 17.7954 97.4198 17.5558C97.5235 17.3162 97.5753 17.0509 97.5753 16.7599H98.6309C98.6309 17.1174 98.59 17.4398 98.5083 17.7269C98.4265 18.0122 98.3129 18.2613 98.1674 18.4743C98.0218 18.6854 97.8554 18.8584 97.668 18.9935C97.6082 19.0296 97.5504 19.0638 97.4946 19.0961C97.4387 19.1285 97.3809 19.1627 97.3211 19.1988C97.0938 19.3738 96.8397 19.5003 96.5586 19.5782C96.2795 19.6562 96.0034 19.6952 95.7303 19.6952Z" fill="white"/>
<path d="M122.557 8.20398V10.8083H121.263V6.3035H122.496V7.0983H122.551C122.654 6.8363 122.828 6.62904 123.071 6.47653C123.314 6.32207 123.608 6.24484 123.955 6.24484C124.279 6.24484 124.561 6.31327 124.802 6.45014C125.043 6.58701 125.231 6.78253 125.364 7.03671C125.498 7.28893 125.565 7.59004 125.565 7.94002V10.8083H124.271V8.16292C124.273 7.88723 124.2 7.67216 124.052 7.51769C123.904 7.36128 123.7 7.28307 123.441 7.28307C123.267 7.28307 123.113 7.31924 122.979 7.39158C122.848 7.46393 122.745 7.56951 122.67 7.70833C122.597 7.8452 122.559 8.01041 122.557 8.20398Z" fill="white"/>
<path d="M118.785 10.8083V6.37786H120.191V10.8083H118.785ZM119.492 5.80674C119.283 5.80674 119.103 5.74617 118.954 5.62502C118.806 5.50195 118.733 5.35484 118.733 5.1837C118.733 5.01448 118.806 4.8693 118.954 4.74815C119.103 4.62508 119.283 4.56355 119.492 4.56355C119.701 4.56355 119.879 4.62508 120.026 4.74815C120.176 4.8693 120.251 5.01448 120.251 5.1837C120.251 5.35484 120.176 5.50195 120.026 5.62502C119.879 5.74617 119.701 5.80674 119.492 5.80674Z" fill="white"/>
<path d="M113.419 10.7359V4.80373H114.714V7.0341H114.754C114.81 6.91438 114.892 6.79272 115 6.66913C115.109 6.54361 115.251 6.43934 115.426 6.3563C115.602 6.27133 115.821 6.22885 116.082 6.22885C116.423 6.22885 116.737 6.31382 117.025 6.48375C117.313 6.65175 117.543 6.90569 117.715 7.24555C117.887 7.58349 117.974 8.00735 117.974 8.51715C117.974 9.01343 117.889 9.43247 117.721 9.77427C117.555 10.1141 117.328 10.3719 117.04 10.5477C116.754 10.7215 116.434 10.8083 116.079 10.8083C115.828 10.8083 115.614 10.7688 115.438 10.6896C115.263 10.6104 115.121 10.511 115.009 10.3912C114.898 10.2696 114.812 10.147 114.754 10.0234H114.696V10.7359H113.419ZM114.687 8.51136C114.687 8.77591 114.725 9.00667 114.802 9.20364C114.879 9.40061 114.991 9.55413 115.137 9.6642C115.283 9.77234 115.46 9.82641 115.669 9.82641C115.88 9.82641 116.058 9.77137 116.204 9.6613C116.35 9.5493 116.46 9.39482 116.535 9.19785C116.612 8.99895 116.651 8.77012 116.651 8.51136C116.651 8.25453 116.613 8.02859 116.538 7.83356C116.463 7.63852 116.353 7.48597 116.207 7.3759C116.061 7.26583 115.882 7.21079 115.669 7.21079C115.458 7.21079 115.28 7.2639 115.134 7.3701C114.99 7.47631 114.879 7.62693 114.802 7.82197C114.725 8.01701 114.687 8.2468 114.687 8.51136Z" fill="white"/>
<path d="M111.108 9.0718V6.48502H112.407V10.9899H111.16V10.1716H111.111C111.005 10.4356 110.83 10.6477 110.584 10.808C110.34 10.9684 110.042 11.0485 109.69 11.0485C109.377 11.0485 109.102 10.9801 108.864 10.8432C108.626 10.7064 108.44 10.5118 108.306 10.2596C108.174 10.0074 108.107 9.70529 108.105 9.35335V6.48502H109.404V9.13045C109.406 9.39636 109.48 9.60655 109.626 9.76101C109.773 9.91548 109.969 9.99271 110.215 9.99271C110.371 9.99271 110.518 9.95849 110.654 9.89006C110.79 9.81967 110.9 9.71604 110.983 9.57918C111.068 9.44231 111.11 9.27318 111.108 9.0718Z" fill="white"/>
<path d="M104.563 10.8083V6.30928H105.796V7.09427H105.844C105.927 6.81503 106.068 6.60414 106.265 6.46159C106.462 6.31709 106.689 6.24484 106.946 6.24484C107.009 6.24484 107.078 6.24875 107.152 6.25656C107.225 6.26437 107.29 6.27511 107.346 6.28878V7.39597C107.286 7.37839 107.204 7.36277 107.098 7.3491C106.993 7.33543 106.896 7.3286 106.808 7.3286C106.621 7.3286 106.454 7.36863 106.307 7.44869C106.161 7.5268 106.046 7.63615 105.96 7.77675C105.877 7.91735 105.835 8.07942 105.835 8.26298V10.8083H104.563Z" fill="white"/>
<path d="M100.844 10.8083C100.538 10.8083 100.264 10.7594 100.025 10.6615C99.7847 10.5617 99.5949 10.4149 99.4552 10.221C99.3176 10.0252 99.2487 9.78144 99.2487 9.48968C99.2487 9.24399 99.2977 9.03765 99.3958 8.87066C99.4938 8.70366 99.6273 8.5693 99.7962 8.46757C99.9651 8.36584 100.157 8.28906 100.372 8.23724C100.589 8.18541 100.816 8.14894 101.054 8.12783C101.333 8.10096 101.559 8.076 101.73 8.05297C101.901 8.02802 102.025 7.99155 102.102 7.94356C102.179 7.89557 102.218 7.82455 102.218 7.7305V7.71322C102.218 7.53088 102.155 7.3898 102.03 7.28998C101.907 7.19017 101.732 7.14027 101.504 7.14027C101.265 7.14027 101.074 7.18921 100.932 7.28711C100.79 7.38308 100.696 7.504 100.65 7.64988L99.4177 7.55775C99.4802 7.28902 99.6033 7.05677 99.7868 6.86099C99.9704 6.66328 100.207 6.51164 100.497 6.40607C100.789 6.29859 101.127 6.24484 101.511 6.24484C101.778 6.24484 102.033 6.27363 102.277 6.33122C102.523 6.3888 102.741 6.47805 102.931 6.59898C103.123 6.71991 103.274 6.87538 103.385 7.06541C103.495 7.25351 103.55 7.47905 103.55 7.74202V10.7249H102.286V10.1116H102.249C102.172 10.2498 102.069 10.3717 101.939 10.4772C101.81 10.5809 101.655 10.6625 101.473 10.722C101.292 10.7796 101.082 10.8083 100.844 10.8083ZM101.226 9.96187C101.422 9.96187 101.595 9.92636 101.745 9.85534C101.895 9.7824 102.013 9.68451 102.099 9.56166C102.184 9.43882 102.227 9.29966 102.227 9.14418V8.67487C102.185 8.69983 102.128 8.72286 102.055 8.74397C101.984 8.76317 101.904 8.7814 101.814 8.79868C101.724 8.81403 101.635 8.82843 101.545 8.84187C101.455 8.85338 101.374 8.86394 101.301 8.87354C101.145 8.89465 101.008 8.92824 100.891 8.97431C100.774 9.02037 100.684 9.08276 100.619 9.16146C100.554 9.23823 100.522 9.33421 100.522 9.44937C100.522 9.61637 100.588 9.74401 100.719 9.8323C100.853 9.91868 101.022 9.96187 101.226 9.96187Z" fill="white"/>
<path d="M93.688 10.8083V10.0548L96.8176 5.85044H93.6819V4.80373H98.4835V5.55724L95.3508 9.76165H98.4896V10.8083H93.688Z" fill="white"/>
</svg>
