<svg width="55" height="55" viewBox="0 0 55 55" fill="none" xmlns="http://www.w3.org/2000/svg">
<path fill-rule="evenodd" clip-rule="evenodd" d="M27.6715 54.6427C42.5655 54.6427 54.6388 42.5695 54.6388 27.6754C54.6388 12.7813 42.5655 0.708008 27.6715 0.708008C12.7774 0.708008 0.704102 12.7813 0.704102 27.6754C0.704102 42.5695 12.7774 54.6427 27.6715 54.6427ZM29.694 19.5852C29.694 19.0487 29.4809 18.5343 29.1016 18.155C28.7223 17.7757 28.2079 17.5626 27.6715 17.5626C27.1351 17.5626 26.6206 17.7757 26.2413 18.155C25.862 18.5343 25.6489 19.0487 25.6489 19.5852V25.6528H19.5813C19.0448 25.6528 18.5304 25.8659 18.1511 26.2452C17.7718 26.6245 17.5587 27.139 17.5587 27.6754C17.5587 28.2118 17.7718 28.7262 18.1511 29.1055C18.5304 29.4848 19.0448 29.6979 19.5813 29.6979H25.6489V35.7656C25.6489 36.302 25.862 36.8164 26.2413 37.1957C26.6206 37.575 27.1351 37.7881 27.6715 37.7881C28.2079 37.7881 28.7223 37.575 29.1016 37.1957C29.4809 36.8164 29.694 36.302 29.694 35.7656V29.6979H35.7617C36.2981 29.6979 36.8125 29.4848 37.1918 29.1055C37.5711 28.7262 37.7842 28.2118 37.7842 27.6754C37.7842 27.139 37.5711 26.6245 37.1918 26.2452C36.8125 25.8659 36.2981 25.6528 35.7617 25.6528H29.694V19.5852Z" fill="#007AFF"/>
</svg>
