<svg width="44" height="66" viewBox="0 0 44 66" fill="none" xmlns="http://www.w3.org/2000/svg">
<g clip-path="url(#clip0_2667_26946)">
<path d="M15.3921 0.261719L16.8559 4.72605H21.5971L17.7582 7.48989L19.226 11.9536L15.3921 9.19731L11.5532 11.9536L13.0231 7.48989L9.18799 4.72605H13.9295L15.3921 0.261719Z" fill="white"/>
<path d="M28.6092 0.261719L30.0721 4.72605H34.8119L30.977 7.48989L32.4472 11.9536L28.6092 9.19731L24.7741 11.9536L26.2419 7.48989L22.4042 4.72605H27.1469L28.6092 0.261719Z" fill="white"/>
<path fill-rule="evenodd" clip-rule="evenodd" d="M35.3628 44.9805C35.1732 52.4026 31.9629 58.2162 24.8778 60.4041C23.0275 60.9659 21.0301 60.8006 19.035 60.3112C22.9601 55.3805 25.7177 47.6552 27.9944 39.5544C23.9427 38.8578 21.5758 36.9242 20.2984 34.4988C20.9636 33.8937 21.6171 33.258 22.2466 32.6015C23.5782 31.1965 24.8046 29.6876 25.7983 28.1412C32.4842 30.639 35.5691 36.9937 35.3628 44.9805ZM19.0415 28.6522C19.0459 28.1233 19.0799 27.5944 19.1399 27.0776C19.9101 27.0271 20.7075 27.0418 21.5069 27.1344C22.1352 27.204 22.743 27.3058 23.3297 27.4282C22.6184 28.6335 21.7185 29.6397 20.6887 30.5224C20.2491 30.8967 19.7844 31.2496 19.2991 31.5852C19.1356 30.7469 19.0547 29.8928 19.0394 29.0337C19.0375 28.9073 19.0395 28.7798 19.0415 28.6522ZM23.7675 19.3219C24.7425 19.6165 24.9411 21.0227 24.6071 24.1501C23.0832 23.8682 21.5025 23.7179 19.8825 23.7075C20.8426 20.8706 22.4397 18.9208 23.7675 19.3219ZM10.7696 62.8901C10.4566 62.9484 10.1316 62.9804 9.79346 62.9804C9.18679 62.8254 7.74262 62.9198 7.63032 61.0748C7.9062 60.0792 8.92178 59.7944 10.005 59.7487C10.784 59.7202 12.1135 60.3782 13.7651 61.2577C12.9481 62.0783 11.9521 62.6783 10.7696 62.8901ZM43.722 44.6732C43.3502 35.4557 36.7484 27.6986 27.5097 24.8606C28.0715 23.4535 28.3947 22.0454 28.388 20.6882C28.3783 17.4373 26.8325 14.4409 24.234 14.292C19.4298 14.305 17.0904 19.3695 16.2906 23.9524C1.97094 26.0171 -3.71022 40.6855 3.19371 46.4123C8.7636 48.7927 13.0486 45.9521 13.3572 41.9734C9.86203 42.3956 8.69593 40.229 8.71243 37.4548C8.73417 32.7755 11.7844 29.1503 15.9577 27.7179C15.9621 28.2211 15.985 28.6857 16.0278 29.1041C16.0527 29.341 16.0811 29.573 16.1016 29.8085C16.2338 31.0219 16.3536 32.1741 16.4694 33.2857C15.0906 34.0244 13.6213 34.7224 12.1267 35.4718L12.1704 39.9766C13.5993 39.3778 15.2193 38.4426 16.8741 37.2681C16.9471 38.0337 17.0247 38.7932 17.0904 39.5561C17.5364 44.292 17.4807 48.5653 16.6045 55.0129C16.4237 56.3267 15.9938 57.803 15.299 59.1255C12.5566 58.11 10.005 56.9829 8.06222 56.9458C6.22747 56.852 3.60834 57.7355 3.23081 60.263C2.67334 63.9808 6.53607 65.9835 10.0291 65.7136C10.5985 65.6703 11.1547 65.5809 11.6939 65.4528C13.5219 65.0133 15.17 64.0956 16.6701 62.8015C19.4705 64.241 22.6882 65.6254 25.5964 65.5225C36.4855 65.1518 44.0778 56.0072 43.722 44.6732Z" fill="white"/>
</g>
<defs>
<clipPath id="clip0_2667_26946">
<rect width="44" height="66" fill="white"/>
</clipPath>
</defs>
</svg>
