<svg width="62" height="40" viewBox="0 0 62 40" fill="none" xmlns="http://www.w3.org/2000/svg">
<path d="M10.6598 15.8511H0V0.930176H3.04673V12.8648H10.6598V15.8511ZM20.6119 14.5508C20.3784 14.7586 20.1275 14.9563 19.8583 15.1436C19.5961 15.3234 19.3206 15.4834 19.0302 15.6223C18.7397 15.7538 18.4392 15.8579 18.1279 15.9342C17.8235 16.0177 17.509 16.0598 17.1931 16.0595C16.5174 16.0639 15.8471 15.9402 15.2186 15.6948C14.6144 15.4596 14.0627 15.1099 13.5943 14.6656C13.1343 14.2141 12.7698 13.6697 12.5007 13.0316C12.239 12.3867 12.1079 11.665 12.1079 10.8675V4.70645H14.9958V10.8663C14.9958 11.2408 15.0523 11.5775 15.1653 11.8758C15.2858 12.1672 15.4451 12.4134 15.6433 12.6143C15.8416 12.8158 16.0719 12.9677 16.3335 13.0726C16.6027 13.1767 16.8888 13.2288 17.1931 13.2288C17.4905 13.2288 17.7703 13.1624 18.0319 13.0304C18.2974 12.8945 18.535 12.7112 18.7328 12.4897C18.931 12.2677 19.0866 12.0184 19.2002 11.7406C19.3132 11.456 19.3696 11.1646 19.3696 10.8663V4.70707H22.2683V15.8511H21.5675L20.6119 14.5508ZM35.6077 15.8511H32.0616L29.8004 12.4382L27.5178 15.8511H23.9717L28.1227 10.1389L23.9717 4.64507H27.5178L29.8004 7.83909L32.061 4.64507H35.6071L31.4455 10.1389L35.6077 15.8511Z" fill="white"/>
<path d="M4.52306 34.4194C5.1483 34.6777 5.8199 34.8085 6.49754 34.8039H8.69537V31.9739H6.49689C6.20197 31.9756 5.90974 31.9188 5.63734 31.8071C5.3767 31.6947 5.13917 31.536 4.93651 31.3389C4.73885 31.1448 4.58262 30.9191 4.46908 30.663C4.35612 30.3988 4.29972 30.1179 4.29972 29.8197V26.511H8.69537V23.6809H4.29972V19.2275H1.4117V23.6809H0V26.511H1.4117V29.8203C1.4075 30.485 1.5414 31.1435 1.80506 31.755C2.06662 32.3478 2.43726 32.8875 2.89806 33.3467C3.36832 33.8001 3.91923 34.1637 4.52306 34.4194Z" fill="white"/>
<path d="M54.7061 36.1879V39.049L56.1928 39.07C56.9658 39.0753 57.7321 38.9229 58.4433 38.6223C59.1276 38.3349 59.7508 37.9218 60.2801 37.4052C60.8114 36.8908 61.2369 36.2795 61.5324 35.605C61.8391 34.9092 61.9987 34.1585 62 33.3994V23.6599H59.0803V29.8191C59.0803 30.1174 59.0239 30.4088 58.9109 30.6934C58.7993 30.9676 58.641 31.221 58.4433 31.4425C58.2457 31.664 58.0079 31.8473 57.7426 31.9832C57.4806 32.1152 57.2009 32.1816 56.904 32.1816C56.6 32.1816 56.313 32.1326 56.0438 32.0353C55.7824 31.9385 55.5519 31.7928 55.3536 31.5987C55.1553 31.3972 54.9963 31.1511 54.8762 30.8596C54.7626 30.5614 54.7061 30.2147 54.7061 29.8191V23.6592H51.8186V29.8203C51.8186 30.6178 51.9493 31.3395 52.2113 31.9844C52.4799 32.6225 52.845 33.1669 53.3047 33.6183C53.7729 34.0627 54.3252 34.4123 54.9287 34.6476C55.5578 34.8929 56.2283 35.0167 56.904 35.0122C57.2429 35.0109 57.5785 34.9437 57.8911 34.8144C58.224 34.6823 58.5491 34.5509 58.8682 34.4194C58.7618 34.6755 58.6239 34.9118 58.4538 35.1263C58.2838 35.3484 58.0861 35.5393 57.8595 35.6987C57.6395 35.8586 57.3959 35.9848 57.1378 36.0732C56.8758 36.1637 56.6033 36.2084 56.3202 36.2084L54.7061 36.1879Z" fill="white"/>
<path fill-rule="evenodd" clip-rule="evenodd" d="M21.9709 29.1333C21.9709 29.9654 21.819 30.7424 21.5141 31.4641C21.2238 32.1574 20.8021 32.7894 20.2718 33.3262C19.7413 33.8511 19.1144 34.2714 18.4247 34.5645C17.7101 34.8658 16.9403 35.0181 16.1635 35.0122C15.3868 35.0167 14.6173 34.8644 13.9023 34.5645C13.2143 34.268 12.5879 33.8482 12.0546 33.3262C11.5242 32.7894 11.1026 32.1574 10.8123 31.4641C10.508 30.7424 10.3562 29.9654 10.3562 29.1327C10.3562 28.2869 10.508 27.5031 10.8123 26.7814C11.0991 26.0863 11.5212 25.4537 12.0546 24.9192C12.5841 24.3929 13.2115 23.9724 13.9023 23.6809C14.6173 23.3811 15.3868 23.2288 16.1635 23.2332C16.9703 23.2332 17.7239 23.3759 18.4247 23.6599C19.1179 23.9278 19.7472 24.3353 20.2725 24.8566C20.7963 25.37 21.2098 25.9914 21.5147 26.7193C21.819 27.4405 21.9709 28.2447 21.9709 29.1333ZM18.8175 27.895C18.9737 28.2627 19.0515 28.6751 19.0515 29.1333C19.0515 29.5841 18.9737 29.997 18.8175 30.3716C18.6694 30.7461 18.4636 31.0649 18.202 31.329C17.9392 31.5932 17.6251 31.8019 17.2784 31.9429C16.9314 32.088 16.56 32.1611 16.1635 32.1611C15.767 32.1611 15.3918 32.0849 15.0379 31.9317C14.6916 31.7724 14.3873 31.5578 14.125 31.2868C13.8703 31.0164 13.6683 30.6971 13.5202 30.33C13.3715 29.9623 13.2968 29.563 13.2968 29.1333C13.2968 28.6751 13.3715 28.2627 13.5202 27.895C13.6683 27.5205 13.8703 27.2011 14.125 26.9376C14.3814 26.6708 14.6927 26.4615 15.0379 26.3237C15.3918 26.178 15.767 26.1055 16.1635 26.1055C16.5463 26.1026 16.9256 26.1769 17.2784 26.3237C17.6278 26.4595 17.943 26.669 18.202 26.9376C18.4708 27.2121 18.6802 27.5379 18.8175 27.895Z" fill="white"/>
<path fill-rule="evenodd" clip-rule="evenodd" d="M35.2147 34.8039H34.514L33.3884 33.2742C33.1126 33.5172 32.8191 33.7461 32.5078 33.9612C32.2011 34.1706 31.878 34.3552 31.5411 34.5131C31.2016 34.665 30.8516 34.7865 30.4904 34.877C30.1365 34.9672 29.7727 35.0126 29.4076 35.0122C28.6317 35.0168 27.8627 34.8682 27.1458 34.5751C26.4572 34.2847 25.8305 33.8682 25.2987 33.3473C24.7683 32.8103 24.3467 32.1781 24.0564 31.4846C23.7521 30.7635 23.6003 29.9797 23.6003 29.1333C23.6003 28.2937 23.7521 27.5136 24.0564 26.7919C24.3448 26.0946 24.7666 25.4587 25.2987 24.9192C25.8282 24.393 26.4553 23.9726 27.1458 23.6809C27.861 23.3811 28.6307 23.2288 29.4076 23.2332C29.6623 23.2332 29.9237 23.2543 30.193 23.2959C30.4694 23.3374 30.7347 23.4075 30.9895 23.5042C31.2509 23.5941 31.4958 23.715 31.7224 23.8682C31.949 24.0207 32.1394 24.208 32.295 24.43V19.2275H35.2147V34.8039ZM32.0619 28.0097C32.2169 28.3706 32.295 28.7445 32.295 29.1333C32.295 29.5231 32.2156 29.9084 32.0619 30.2674C31.9128 30.6277 31.708 30.9501 31.4459 31.2354C31.1819 31.5142 30.8687 31.7432 30.522 31.9112C30.1759 32.078 29.8035 32.1611 29.4076 32.1611C29.0193 32.1629 28.6353 32.0812 28.282 31.9218C27.9351 31.7624 27.6308 31.5435 27.3692 31.2664C26.8357 30.681 26.5405 29.9211 26.5409 29.1333C26.5409 28.6614 26.615 28.2385 26.7637 27.864C26.8985 27.5111 27.1045 27.1889 27.3692 26.9171C27.6277 26.6554 27.9386 26.4496 28.282 26.3132C28.6359 26.1749 29.0111 26.1055 29.4076 26.1055C29.795 26.1034 30.1765 26.1927 30.522 26.3659C30.872 26.5292 31.1859 26.7588 31.4459 27.0417C31.7106 27.3237 31.9194 27.652 32.0619 28.0097Z" fill="white"/>
<path fill-rule="evenodd" clip-rule="evenodd" d="M49.0959 34.8039H48.3952L47.2697 33.2742C46.9932 33.5172 46.6996 33.7461 46.3884 33.9612C46.0824 34.1706 45.7593 34.3552 45.4224 34.5131C45.0822 34.665 44.7322 34.7865 44.3717 34.877C44.0177 34.9672 43.6539 35.0126 43.2888 35.0122C42.4889 35.0122 41.735 34.8802 41.0265 34.6167C40.3396 34.3613 39.7118 33.972 39.1798 33.472C38.6558 32.966 38.2414 32.3484 37.9374 31.6198C37.6333 30.8918 37.481 30.0628 37.481 29.1333C37.481 28.2658 37.6333 27.4715 37.9374 26.7503C38.2414 26.0218 38.6558 25.3979 39.1798 24.8777C39.7085 24.3586 40.3363 23.9483 41.0265 23.6704C41.7436 23.3773 42.5126 23.2287 43.2888 23.2332C43.6565 23.2332 44.021 23.2785 44.3822 23.369C44.744 23.4596 45.096 23.5851 45.4329 23.7436C45.7724 23.9029 46.0948 24.0902 46.3995 24.3054C46.7108 24.5205 47.0011 24.7524 47.2697 25.0023L48.3952 23.6809H49.0959V34.8039ZM45.9425 28.0097C46.0981 28.3706 46.1763 28.7445 46.1763 29.1333C46.1756 29.5231 46.0961 29.9084 45.9425 30.2674C45.7941 30.6277 45.5885 30.9501 45.3272 31.2354C45.0632 31.5142 44.7499 31.7432 44.4032 31.9112C44.0565 32.078 43.6848 32.1611 43.2888 32.1611C42.9046 32.1633 42.5231 32.0962 42.1632 31.9633C41.8158 31.8312 41.5118 31.6372 41.2504 31.3805C40.9956 31.1244 40.7933 30.8088 40.6449 30.4336C40.4959 30.0523 40.4216 29.6188 40.4216 29.1327C40.4216 28.6478 40.4959 28.2174 40.6449 27.8429C40.7776 27.4863 40.9838 27.1605 41.2504 26.8861C41.5098 26.6307 41.8204 26.4321 42.1632 26.3032C42.5172 26.1712 42.8921 26.1055 43.2888 26.1055C43.6756 26.1034 44.0578 26.1927 44.4032 26.3659C44.7526 26.5292 45.0671 26.7588 45.3272 27.0417C45.5912 27.3237 45.8 27.652 45.9425 28.0097Z" fill="white"/>
</svg>
