<svg width="151" height="36" fill="none" xmlns="http://www.w3.org/2000/svg"><path d="M16.34 26.55H0V3.99h4.67v18.045h11.67v4.515Zm15.256-1.966c-.357.314-.742.613-1.155.896a9.512 9.512 0 0 1-1.27.724 7.999 7.999 0 0 1-1.382.471 5.47 5.47 0 0 1-1.433.19 8.279 8.279 0 0 1-3.027-.551 7.665 7.665 0 0 1-2.49-1.557 7.49 7.49 0 0 1-1.676-2.47c-.401-.975-.602-2.066-.602-3.272V9.7h4.427v9.313c0 .567.086 1.076.26 1.527.184.44.428.812.732 1.116a3.07 3.07 0 0 0 1.058.693 3.66 3.66 0 0 0 1.318.236c.456 0 .885-.1 1.286-.3a3.696 3.696 0 0 0 1.074-.817c.304-.336.542-.713.716-1.133.174-.43.26-.87.26-1.322V9.701h4.444V26.55H33.06l-1.465-1.966Zm22.988 1.966h-5.436l-3.466-5.16-3.5 5.16h-5.435l6.363-8.636-6.363-8.307h5.436l3.499 4.83 3.465-4.83h5.436l-6.38 8.307 6.381 8.636Zm11.335 0a7.886 7.886 0 0 1-3.027-.581 8.201 8.201 0 0 1-2.491-1.622 7.898 7.898 0 0 1-1.676-2.407 7.184 7.184 0 0 1-.602-2.925v-5.003h-2.164V9.733h2.163V3h4.428v6.733h6.738v4.279H62.55v5.002c0 .451.086.876.26 1.275.173.387.413.729.716 1.022.31.298.675.538 1.074.708.418.169.866.255 1.318.252h3.37v4.279h-3.37Zm23.72-8.574c0 1.259-.233 2.433-.701 3.524a8.886 8.886 0 0 1-1.904 2.816 9.079 9.079 0 0 1-2.832 1.872 8.86 8.86 0 0 1-3.466.677 8.942 8.942 0 0 1-3.466-.677 9.335 9.335 0 0 1-2.833-1.872 8.886 8.886 0 0 1-1.904-2.816 8.873 8.873 0 0 1-.7-3.524c0-1.28.234-2.464.7-3.555a8.66 8.66 0 0 1 1.904-2.816 8.965 8.965 0 0 1 2.833-1.872 8.942 8.942 0 0 1 3.466-.677c1.237 0 2.392.216 3.466.645a8.248 8.248 0 0 1 2.833 1.81c.803.776 1.437 1.715 1.904 2.816.467 1.09.7 2.306.7 3.65Zm-4.476 0c0-.692-.12-1.316-.359-1.872a4.241 4.241 0 0 0-.943-1.447 3.962 3.962 0 0 0-1.416-.928 4.418 4.418 0 0 0-1.709-.33 4.54 4.54 0 0 0-1.726.33 3.996 3.996 0 0 0-1.399.928c-.39.398-.7.881-.927 1.447-.228.556-.342 1.18-.342 1.872 0 .65.114 1.254.342 1.81.227.555.537 1.038.927 1.446.402.41.869.735 1.4.975a4.348 4.348 0 0 0 1.725.347c.608 0 1.177-.11 1.709-.33a4.264 4.264 0 0 0 1.416-.928c.4-.4.716-.881.943-1.447a4.76 4.76 0 0 0 .359-1.873Zm24.777 8.574h-1.074l-1.725-2.313c-.423.368-.873.714-1.35 1.039-.471.316-.966.595-1.482.834a9.828 9.828 0 0 1-1.611.55c-.542.137-1.1.205-1.66.205a9.134 9.134 0 0 1-3.467-.661 9.112 9.112 0 0 1-2.831-1.856 8.89 8.89 0 0 1-1.905-2.816c-.466-1.09-.699-2.276-.699-3.556 0-1.269.233-2.448.7-3.54a8.841 8.841 0 0 1 1.904-2.83 8.973 8.973 0 0 1 2.831-1.873 8.946 8.946 0 0 1 3.467-.677c.391 0 .791.032 1.204.095.424.063.831.169 1.221.315.401.136.776.319 1.124.55.347.23.639.514.877.85V3h4.476v23.55Zm-4.476-8.574c0-.587-.119-1.153-.357-1.698a4.634 4.634 0 0 0-.944-1.464 4.516 4.516 0 0 0-1.417-1.022 3.806 3.806 0 0 0-1.708-.393c-.608 0-1.183.105-1.725.314a4.096 4.096 0 0 0-1.4.913c-.405.41-.721.898-.928 1.431-.228.567-.341 1.206-.341 1.92 0 1.19.452 2.34 1.27 3.224.4.42.867.75 1.399.991.541.241 1.13.365 1.725.362a3.93 3.93 0 0 0 1.708-.377 4.883 4.883 0 0 0 1.417-1.022c.401-.432.716-.92.944-1.464a4.296 4.296 0 0 0 .357-1.715Zm25.755 8.574h-1.074l-1.726-2.313c-.423.368-.873.714-1.35 1.039-.47.316-.965.595-1.481.834a9.892 9.892 0 0 1-1.611.55 6.79 6.79 0 0 1-1.66.205 9.99 9.99 0 0 1-3.468-.598 8.44 8.44 0 0 1-2.831-1.73c-.803-.766-1.438-1.7-1.904-2.801-.466-1.1-.7-2.354-.7-3.76 0-1.311.234-2.512.7-3.602a8.603 8.603 0 0 1 1.904-2.832 8.672 8.672 0 0 1 2.831-1.825 9.135 9.135 0 0 1 3.468-.66 6.96 6.96 0 0 1 1.676.205 8.9 8.9 0 0 1 1.611.566c.52.24 1.015.524 1.482.85.477.324.922.675 1.333 1.053l1.726-1.998h1.074V26.55Zm-4.476-8.574c0-.587-.119-1.153-.358-1.698a4.666 4.666 0 0 0-.943-1.464 4.527 4.527 0 0 0-1.417-1.022 3.81 3.81 0 0 0-1.708-.393c-.608 0-1.183.099-1.725.299a4.01 4.01 0 0 0-1.4.881 4.167 4.167 0 0 0-.928 1.447c-.228.566-.342 1.216-.342 1.95 0 .735.114 1.39.342 1.966a4.19 4.19 0 0 0 .928 1.432c.401.388.867.681 1.4.881a4.96 4.96 0 0 0 1.725.3c.607 0 1.177-.126 1.708-.378a4.883 4.883 0 0 0 1.417-1.022c.4-.432.715-.92.943-1.464a4.314 4.314 0 0 0 .358-1.715Zm13.076 14.992v-4.326l2.474.031c.434 0 .852-.067 1.254-.204a4.219 4.219 0 0 0 1.106-.566c.347-.241.65-.53.911-.866a4.45 4.45 0 0 0 .635-1.068c-.489.198-.987.397-1.498.597a4.048 4.048 0 0 1-1.513.299 8.29 8.29 0 0 1-3.028-.551 7.665 7.665 0 0 1-2.489-1.557 7.467 7.467 0 0 1-1.676-2.47c-.402-.975-.602-2.066-.602-3.272V9.7h4.426v9.313c0 .598.087 1.123.261 1.573.184.441.428.813.732 1.118.304.293.657.514 1.058.66.412.147.852.221 1.318.221.455 0 .884-.1 1.286-.3a3.702 3.702 0 0 0 1.074-.817c.303-.335.546-.718.717-1.133.173-.43.259-.87.259-1.322V9.701H151v14.726a8.21 8.21 0 0 1-.717 3.334 8.588 8.588 0 0 1-1.919 2.722 9.064 9.064 0 0 1-2.816 1.84 8.817 8.817 0 0 1-3.45.677l-2.279-.032Z" fill="#fff"/></svg>