<svg width="238" height="30" fill="none" xmlns="http://www.w3.org/2000/svg"><path fill-rule="evenodd" clip-rule="evenodd" d="M139.774 14.484c.938-.75 1.36-1.687 1.36-3.14 0-1.828-1.313-5.344-6.192-5.344-3.237 0-4.644 1.172-6.192 2.719l-.14.094 1.829 2.109.141-.14c1.266-1.313 2.298-1.97 4.362-1.97 1.314 0 3.378.657 3.378 2.391 0 1.36-.798 2.11-2.299 2.11h-2.955v2.859h2.955c1.407 0 3.143.375 3.143 2.25 0 1.734-1.501 2.672-4.222 2.672-2.205 0-4.55-1.032-5.676-2.532l-.14-.187-1.736 2.344.094.093c1.642 1.829 4.691 3.094 7.458 3.094 4.363 0 6.99-2.015 6.99-5.437 0-1.735-.704-3.047-2.158-3.985ZM65.612 8.438l-1.22-2.25h3.33l8.21 17.39h-3.097l-1.22-2.437H68.52c-2.955 0-5.91.328-6.755 1.547l-.47.89h-3.048l.14-.281 7.225-14.86Zm3.846 9.843h.938l-3.284-6.703-3.33 7.36c.844-.422 4.034-.657 5.676-.657Zm-18.529-4.875c.75 0 1.501-.14 2.064-.375V6.516h2.815v17.062h-2.815v-7.687c-.797.28-1.595.328-2.064.328-.844 0-2.158-.14-3.284-.282l-.243-.025c-.799-.085-1.53-.162-1.914-.162-.75 0-1.36.14-1.923.375v7.5H40.75V6.515h2.815v6.75c.562-.234 1.172-.328 1.923-.328.378 0 .968.061 1.674.134l.53.054c1.126.14 2.393.281 3.237.281Zm45.736 7.36h-6.286V7.172h-2.861v13.594h-6.333V6.516h-2.814v17.062h21.155V6.516h-2.861v14.25Zm14.166-4.5c-.891 0-3.846.047-4.831.562v3.985h9.334v2.812h-12.149V6.515h12.149v2.813H106v4.594c.985-.469 3.846-.516 4.831-.516h1.97v2.86h-1.97Zm33.54-1.453c0-4.876 4.128-8.813 9.194-8.813 5.16 0 9.194 3.984 9.194 9.094 0 4.922-4.128 8.906-9.194 8.906-5.16 0-9.194-4.031-9.194-9.188Zm2.767.28c0 3.329 2.862 6.048 6.427 6.048 3.565 0 6.379-2.72 6.426-6.188 0-3.422-2.814-6.094-6.426-6.094-3.753 0-6.427 2.625-6.427 6.235Zm20.968-5.765h1.83c-.329 3.235-.845 6.61-2.58 9.375-1.173 1.875-2.064 2.063-2.768 2.063h-.656v2.812h.656c1.689 0 3.002-.562 3.941-1.64 2.204-2.625 3.565-6.75 4.174-12.61h4.457v14.25h2.814V6.516h-13.087l1.219 2.812Zm15.527 5.485c0-4.876 4.128-8.813 9.194-8.813 5.16 0 9.194 3.984 9.194 9.094 0 4.922-4.128 8.906-9.194 8.906-5.16 0-9.194-4.031-9.194-9.188Zm2.768.28c0 3.329 2.861 6.048 6.426 6.048 3.612 0 6.38-2.72 6.427-6.188 0-3.422-2.815-6.094-6.427-6.094-3.753 0-6.426 2.625-6.426 6.235ZM228.806 6c-5.066 0-9.194 3.938-9.194 8.813 0 5.156 4.034 9.187 9.194 9.187 5.066 0 9.194-3.984 9.194-8.906C238 9.984 233.966 6 228.806 6Zm0 15.14c-3.565 0-6.427-2.718-6.427-6.046 0-3.61 2.674-6.235 6.427-6.235 3.612 0 6.426 2.672 6.426 6.094-.047 3.469-2.861 6.188-6.426 6.188ZM202.631 6.517h14.401l1.173 2.812h-6.052v14.25h-2.767V9.328h-5.582l-1.22-2.812h.047Z" fill="#BB9121"/><path d="M8.554.186h17.107L34.214 15l-8.553 14.813H8.554L.001 15 8.554.186Z" fill="#BB9121"/><path fill-rule="evenodd" clip-rule="evenodd" d="M10.27 26.842h13.686l6.843-11.833-6.843-11.85H10.27l-6.843 11.85 6.843 11.833ZM23.285 25.7H10.942l-6.17-10.69 6.17-10.69h12.342l6.171 10.69-6.17 10.69Zm-2.28-10.944c.49-.38.689-.853.689-1.579 0-.925-.654-2.686-3.122-2.686-1.434 0-2.178.472-2.85 1.107l.999.998c.508-.453 1.016-.671 1.851-.671.653 0 1.706.327 1.706 1.216 0 .69-.417 1.07-1.162 1.07v1.434c.727 0 1.58.2 1.58 1.144 0 .871-.745 1.343-2.124 1.343a4.023 4.023 0 0 1-2.105-.617l-1.017 1.034c.853.617 2.033.999 3.14.999 2.215 0 3.521-1.035 3.521-2.741-.018-.926-.363-1.579-1.107-2.05Zm-3.345-.562h-3.648v-3.485h-1.888l.49 1.071v7.532h1.398v-3.684h3.648v-1.434Z" fill="#fff"/></svg>