<svg width="56" height="66" viewBox="0 0 56 66" fill="none" xmlns="http://www.w3.org/2000/svg">
<path d="M49.6162 19.9753L54.8687 15.1452L51.8923 5.77398H42.8013L31.0707 0.187012L28 1.64568L24.9293 0.187012L13.1987 5.77398H4.12121L1.13131 15.1452L6.38384 19.9753L0 40.0526L28 65.8132L56 40.0526L49.6162 19.9753Z" fill="white"/>
<path d="M47.4882 19.3971L52.7408 14.567L50.5455 7.65896H42.3839L31.0707 2.26465L28 3.72331L24.9293 2.26465L13.6162 7.65896H5.45459L3.2593 14.567L8.51183 19.3971L2.12799 39.4744L28 63.2809L53.8721 39.4744L47.4882 19.3971Z" fill="#00205B"/>
<path d="M48.5387 10.48L49.5623 13.6863L46.5589 16.4523L44.6599 10.48H48.5387Z" fill="white"/>
<path d="M6.45117 13.6863L7.46127 10.48H11.3401L9.44107 16.4523L6.45117 13.6863Z" fill="white"/>
<path d="M14.2492 10.4665L24.9293 5.38867L22.2626 13.7966L17.5758 16.0259L17.4276 16.4938H38.5724L38.4242 16.0259L33.7374 13.7966L31.0707 5.38867L41.7508 10.4665L50.6936 38.594L40.0135 33.5161L37.2929 24.9706L40.3636 22.1496L40.2155 21.6679H15.7845L15.6364 22.1496L18.7071 24.9706L15.9865 33.5161L5.3064 38.594L14.2492 10.4665Z" fill="white"/>
<path d="M34.3973 42.0342L35.7576 37.7407H20.2424L21.6027 42.0342L22.3704 39.626H33.6296L34.3973 42.0342Z" fill="white"/>
<path d="M34.3838 24.9702H21.6162L18.8956 33.5158L19.3401 34.9057H26.6128L25.697 32.0296L22.5859 33.5158V29.1536H33.4141V33.5158L30.303 32.0296L29.3872 34.9057H36.6599L37.1044 33.5158L34.3838 24.9702Z" fill="white"/>
<path d="M30.734 10.1085L28.8619 9.21402L27.9865 6.47559L27.1111 9.21402L25.239 10.1085L27.1111 11.003L27.9865 13.7414L28.8619 11.003L30.734 10.1085Z" fill="#05C3DE"/>
<path d="M50.6936 38.5939L48.8754 37.7407L33.7912 51.6118L32.5657 47.7587L31.798 50.1669H24.202L23.4343 47.7587L22.2088 51.6118L7.12458 37.7407L5.3064 38.5939L28 59.4693L50.6936 38.5939Z" fill="#05C3DE"/>
</svg>
