<svg width="56" height="76" viewBox="0 0 56 76" fill="none" xmlns="http://www.w3.org/2000/svg">
<path d="M49.6162 24.9753L54.8687 20.1452L51.8923 10.774H42.8013L31.0707 5.18701L28 6.64568L24.9293 5.18701L13.1987 10.774H4.12121L1.13131 20.1452L6.38384 24.9753L0 45.0526L28 70.8132L56 45.0526L49.6162 24.9753Z" fill="white"/>
<path d="M47.4882 24.3971L52.7408 19.567L50.5455 12.659H42.3839L31.0707 7.26465L28 8.72331L24.9293 7.26465L13.6162 12.659H5.45459L3.2593 19.567L8.51183 24.3971L2.12799 44.4744L28 68.2809L53.8721 44.4744L47.4882 24.3971Z" fill="#00205B"/>
<path d="M48.5387 15.48L49.5623 18.6863L46.5589 21.4523L44.6599 15.48H48.5387Z" fill="white"/>
<path d="M6.45117 18.6863L7.46127 15.48H11.3401L9.44107 21.4523L6.45117 18.6863Z" fill="white"/>
<path d="M14.2492 15.4665L24.9293 10.3887L22.2626 18.7966L17.5758 21.0259L17.4276 21.4938H38.5724L38.4242 21.0259L33.7374 18.7966L31.0707 10.3887L41.7508 15.4665L50.6936 43.594L40.0135 38.5161L37.2929 29.9706L40.3636 27.1496L40.2155 26.6679H15.7845L15.6364 27.1496L18.7071 29.9706L15.9865 38.5161L5.3064 43.594L14.2492 15.4665Z" fill="white"/>
<path d="M34.3973 47.0342L35.7576 42.7407H20.2424L21.6027 47.0342L22.3704 44.626H33.6296L34.3973 47.0342Z" fill="white"/>
<path d="M34.3838 29.9702H21.6162L18.8956 38.5158L19.3401 39.9057H26.6128L25.697 37.0296L22.5859 38.5158V34.1536H33.4141V38.5158L30.303 37.0296L29.3872 39.9057H36.6599L37.1044 38.5158L34.3838 29.9702Z" fill="white"/>
<path d="M30.734 15.1085L28.8619 14.214L27.9865 11.4756L27.1111 14.214L25.239 15.1085L27.1111 16.003L27.9865 18.7414L28.8619 16.003L30.734 15.1085Z" fill="#05C3DE"/>
<path d="M50.6936 43.5939L48.8754 42.7407L33.7912 56.6118L32.5657 52.7587L31.798 55.1669H24.202L23.4343 52.7587L22.2088 56.6118L7.12458 42.7407L5.3064 43.5939L28 64.4693L50.6936 43.5939Z" fill="#05C3DE"/>
</svg>
