<svg width="290" height="290" viewBox="0 0 290 290" fill="none" xmlns="http://www.w3.org/2000/svg">
<g clip-path="url(#clip0_2029_5104)">
<mask id="mask0_2029_5104" style="mask-type:alpha" maskUnits="userSpaceOnUse" x="0" y="0" width="290" height="290">
<path d="M0 99.6875C0 64.7936 0 47.3467 6.79081 34.019C12.7642 22.2956 22.2956 12.7642 34.019 6.79081C47.3467 0 64.7936 0 99.6875 0H190.312C225.206 0 242.653 0 255.981 6.79081C267.704 12.7642 277.236 22.2956 283.209 34.019C290 47.3467 290 64.7936 290 99.6875V190.312C290 225.206 290 242.653 283.209 255.981C277.236 267.704 267.704 277.236 255.981 283.209C242.653 290 225.206 290 190.312 290H99.6875C64.7936 290 47.3467 290 34.019 283.209C22.2956 277.236 12.7642 267.704 6.79081 255.981C0 242.653 0 225.206 0 190.312V99.6875Z" fill="black"/>
</mask>
<g mask="url(#mask0_2029_5104)">
<g clip-path="url(#clip1_2029_5104)">
<rect width="291" height="291" fill="#FFDD2D"/>
<path d="M145.642 223.081C98.3343 223.081 63.6562 190.077 63.6562 145.5C63.6562 100.923 98.3343 67.9189 145.642 67.9189C192.736 67.9189 227.628 100.709 227.628 145.5C227.628 190.291 192.736 223.081 145.642 223.081ZM145.642 193.506C172.4 193.506 192.522 174.004 192.522 145.5C192.522 116.996 172.4 97.494 145.642 97.494C118.884 97.494 98.7625 116.996 98.7625 145.5C98.7625 174.004 118.884 193.506 145.642 193.506Z" fill="#333333"/>
</g>
</g>
</g>
<defs>
<clipPath id="clip0_2029_5104">
<rect width="290" height="290" fill="white"/>
</clipPath>
<clipPath id="clip1_2029_5104">
<rect width="291" height="291" fill="white"/>
</clipPath>
</defs>
</svg>
