<svg width="142" height="24" fill="none" xmlns="http://www.w3.org/2000/svg"><path d="M12.645 24c-1.822 0-3.512-.298-5.071-.895-1.537-.597-2.876-1.436-4.018-2.52a11.83 11.83 0 0 1-2.634-3.812C.307 15.315 0 13.723 0 12c0-1.724.307-3.315.922-4.773a11.588 11.588 0 0 1 2.667-3.813C4.731 2.331 6.07 1.492 7.607.895 9.143.298 10.812 0 12.612 0c1.822 0 3.49.298 5.005.895 1.537.597 2.865 1.436 3.985 2.52a11.587 11.587 0 0 1 2.667 3.812c.637 1.436.955 3.027.955 4.773 0 1.724-.318 3.326-.955 4.807a11.587 11.587 0 0 1-2.667 3.812c-1.12 1.06-2.448 1.89-3.985 2.486-1.514.597-3.172.895-4.972.895Zm-.033-4.575c1.032 0 1.976-.176 2.832-.53a6.767 6.767 0 0 0 3.82-3.878c.373-.907.56-1.912.56-3.017s-.187-2.11-.56-3.017a6.767 6.767 0 0 0-1.515-2.353 6.449 6.449 0 0 0-2.272-1.525c-.878-.354-1.833-.53-2.865-.53-1.032 0-1.987.176-2.865.53A6.87 6.87 0 0 0 7.475 6.63a7.179 7.179 0 0 0-1.548 2.353C5.577 9.89 5.4 10.895 5.4 12c0 1.083.176 2.088.527 3.017a7.46 7.46 0 0 0 1.515 2.353 6.788 6.788 0 0 0 2.305 1.525c.878.354 1.833.53 2.865.53ZM35.53 23.602 45.804.398h5.268L61.38 23.602h-5.598l-8.43-20.486h2.108l-8.463 20.486H35.53Zm5.137-4.972 1.416-4.077h11.854l1.45 4.077h-14.72ZM71.615 23.602v-3.48L85.874 2.818l.658 1.955H71.878V.398h19.396v3.48L77.048 21.182l-.658-1.955h15.378v4.375H71.615ZM104.515 23.602V.398h5.335v23.204h-5.335ZM132.22 24c-1.844 0-3.611-.243-5.302-.73-1.69-.508-3.051-1.16-4.083-1.955l1.811-4.044c.988.707 2.151 1.293 3.491 1.757 1.361.442 2.733.663 4.116.663 1.054 0 1.899-.1 2.535-.299.659-.22 1.142-.52 1.449-.895a1.98 1.98 0 0 0 .461-1.293c0-.618-.241-1.105-.724-1.458-.483-.376-1.12-.674-1.91-.895a28.696 28.696 0 0 0-2.634-.663 37.132 37.132 0 0 1-2.865-.796 12.206 12.206 0 0 1-2.602-1.193 6.003 6.003 0 0 1-1.943-1.923c-.483-.795-.724-1.812-.724-3.05 0-1.325.351-2.53 1.054-3.613.724-1.105 1.8-1.978 3.227-2.619C129.026.331 130.837 0 133.01 0c1.449 0 2.876.177 4.281.53 1.405.332 2.645.84 3.721 1.525l-1.646 4.078a13.441 13.441 0 0 0-3.227-1.36 11.41 11.41 0 0 0-3.162-.464c-1.032 0-1.877.122-2.535.365-.659.243-1.131.564-1.416.961a2.126 2.126 0 0 0-.428 1.326c0 .597.241 1.083.724 1.459.483.353 1.12.64 1.91.862.79.22 1.657.442 2.601.663.966.22 1.921.475 2.865.762.966.287 1.844.674 2.635 1.16a5.699 5.699 0 0 1 1.91 1.923c.505.796.757 1.801.757 3.017a6.298 6.298 0 0 1-1.087 3.58c-.724 1.083-1.811 1.956-3.26 2.619-1.427.663-3.238.994-5.433.994Z" fill="#fff"/></svg>