<svg width="75" height="30" viewBox="0 0 75 30" fill="none" xmlns="http://www.w3.org/2000/svg">
<g clip-path="url(#clip0_4682_11795)">
<path d="M17.626 2.598C16.8521 2.36563 16.0303 2.24202 15.1803 2.24202C10.4484 2.24202 6.61019 6.09119 6.61019 10.8388C6.61019 11.3281 6.61777 11.9278 6.64048 12.609V26.5397C6.64048 28.3804 5.15484 29.8709 3.32024 29.8709C1.48564 29.8709 0 28.3807 0 26.5397V10.9434C0 4.98112 4.83444 0.128906 10.7787 0.128906C13.378 0.128906 15.7629 1.05598 17.626 2.598Z" fill="url(#paint0_linear_4682_11795)"/>
<path d="M21.5552 10.6764V10.9429C21.5552 11.0552 21.5497 11.1657 21.5401 11.2741C21.229 16.9601 16.5215 21.4909 10.7785 21.4909C8.94395 21.4909 7.45831 19.9986 7.45831 18.1596C7.45831 16.3207 8.94395 14.8284 10.7785 14.8284C13.0154 14.8284 14.8425 13.0371 14.9127 10.8097C14.8425 8.58227 13.0154 6.79096 10.7785 6.79096C9.46738 6.79096 8.29697 7.4059 7.5378 8.36336C7.53608 8.36509 7.53608 8.36716 7.53608 8.36716C6.97651 9.07533 6.64064 9.96995 6.64064 10.9426V12.6082C6.61792 11.9266 6.61035 11.3272 6.61035 10.838C6.61035 6.09039 10.4485 2.24121 15.1804 2.24121C16.0304 2.24121 16.8519 2.36482 17.6262 2.59719C19.882 4.46274 21.3697 7.2305 21.5404 10.3432C21.5501 10.4537 21.5556 10.5642 21.5556 10.6764H21.5552Z" fill="url(#paint1_linear_4682_11795)"/>
<path d="M17.6259 2.59817C9.78433 1.51503 7.59837 8.16995 7.5378 8.36434C7.53608 8.36607 7.53608 8.36814 7.53608 8.36814C6.97651 9.07631 6.64064 9.97093 6.64064 10.9436V12.6092C6.61792 11.9276 6.61035 11.3282 6.61035 10.839C6.61035 6.09136 10.4485 2.24219 15.1804 2.24219C16.0304 2.24219 16.8519 2.3658 17.6262 2.59817H17.6259Z" fill="url(#paint2_linear_4682_11795)"/>
</g>
<path d="M73.5606 8.67682H72.0215V0.366211H73.5606V8.67682Z" fill="white"/>
<path d="M63.8125 8.67682V0.366211H65.5883L69.2229 6.23113V0.366211H70.762V8.67682H68.9861L65.3516 2.77629V8.67682H63.8125Z" fill="white"/>
<path d="M55.7847 4.48604C55.7847 5.32502 56.0491 6.01361 56.5779 6.55182C57.1067 7.08212 57.7539 7.34727 58.5195 7.34727C59.2851 7.34727 59.9323 7.08212 60.4611 6.55182C60.9899 6.01361 61.2543 5.32502 61.2543 4.48604C61.2543 3.6629 60.9899 2.99013 60.4611 2.46775C59.9323 1.93745 59.2851 1.67231 58.5195 1.67231C57.7539 1.67231 57.1067 1.93745 56.5779 2.46775C56.0491 2.99013 55.7847 3.6629 55.7847 4.48604ZM54.2456 4.48604C54.2456 3.64707 54.439 2.89515 54.8257 2.2303C55.2125 1.55754 55.7294 1.03912 56.3766 0.675032C57.0238 0.310948 57.7381 0.128906 58.5195 0.128906C59.3008 0.128906 60.0151 0.310948 60.6623 0.675032C61.3095 1.03912 61.8265 1.55754 62.2132 2.2303C62.6 2.89515 62.7933 3.64707 62.7933 4.48604C62.7933 5.11923 62.6789 5.71285 62.45 6.26689C62.229 6.81301 61.9252 7.27999 61.5384 7.66782C61.1517 8.04773 60.6978 8.3485 60.1769 8.57011C59.656 8.78382 59.1035 8.89067 58.5195 8.89067C57.9354 8.89067 57.3829 8.78382 56.862 8.57011C56.3411 8.3485 55.8873 8.04773 55.5005 7.66782C55.1138 7.27999 54.806 6.81301 54.5771 6.26689C54.3561 5.71285 54.2456 5.11923 54.2456 4.48604Z" fill="white"/>
<path d="M50.2689 5.28139C49.3376 5.11518 48.6233 4.81045 48.1261 4.36722C47.6367 3.91607 47.3921 3.35412 47.3921 2.68135C47.3921 1.9611 47.6565 1.37144 48.1853 0.91238C48.7141 0.445402 49.385 0.211914 50.1979 0.211914C50.9161 0.211914 51.5633 0.397914 52.1395 0.769913C52.7157 1.14191 53.13 1.64055 53.3826 2.26582L51.9027 2.81195C51.7528 2.46369 51.5278 2.19063 51.2279 1.99276C50.9359 1.78697 50.6083 1.68408 50.2453 1.68408C49.8743 1.68408 49.5704 1.7751 49.3337 1.95714C49.1048 2.13919 48.9903 2.37267 48.9903 2.65761C48.9903 2.92672 49.1127 3.14437 49.3573 3.31059C49.602 3.4768 50.0006 3.61135 50.5531 3.71424C51.4765 3.88837 52.1908 4.20892 52.6959 4.6759C53.209 5.13496 53.4655 5.69692 53.4655 6.36177C53.4655 7.07411 53.1892 7.65981 52.6367 8.11887C52.0921 8.57793 51.3936 8.80746 50.5412 8.80746C49.823 8.80746 49.1679 8.62938 48.576 8.27321C47.984 7.90913 47.5578 7.42236 47.2974 6.81292L48.7891 6.10058C48.939 6.48841 49.1679 6.79313 49.4757 7.01475C49.7835 7.22845 50.1269 7.3353 50.5057 7.3353C50.9004 7.3353 51.224 7.24032 51.4765 7.05036C51.7291 6.8604 51.8554 6.62296 51.8554 6.33802C51.8554 6.06892 51.7251 5.85126 51.4647 5.68505C51.2121 5.51092 50.8135 5.37637 50.2689 5.28139Z" fill="white"/>
<path d="M43.4896 1.88587H41.4888V4.24845H43.4896C43.8921 4.24845 44.2275 4.13369 44.4959 3.90416C44.7721 3.67463 44.9102 3.38969 44.9102 3.04935C44.9102 2.71693 44.7761 2.43991 44.5077 2.21829C44.2394 1.99667 43.9 1.88587 43.4896 1.88587ZM44.3656 5.59003L46.5203 8.67682H44.7445L42.6845 5.74437H41.4888V8.67682H39.9497V0.366211H43.6079C44.4604 0.366211 45.1589 0.61553 45.7034 1.11417C46.248 1.6128 46.5203 2.26974 46.5203 3.08497C46.5203 3.73399 46.3191 4.29199 45.9166 4.75896C45.514 5.21803 44.9971 5.49505 44.3656 5.59003Z" fill="white"/>
<path d="M34.6328 3.74982H38.6107V5.26947H34.6328V7.15717H38.8948V8.67682H33.0938V0.366211H38.8948V1.88587H34.6328V3.74982Z" fill="white"/>
<path d="M29.0245 1.88587H27.0947V4.64024H29.0245C29.4665 4.64024 29.8374 4.50569 30.1373 4.23658C30.4373 3.96748 30.5872 3.63505 30.5872 3.23931C30.5872 2.85148 30.4373 2.53093 30.1373 2.27765C29.8453 2.01646 29.4744 1.88587 29.0245 1.88587ZM29.0245 6.15989H27.0947V8.67682H25.5557V0.366211H29.1429C29.9953 0.366211 30.7056 0.639274 31.2739 1.1854C31.8422 1.73153 32.1263 2.41616 32.1263 3.23931C32.1263 4.05454 31.8224 4.74709 31.2147 5.31696C30.6149 5.87892 29.8848 6.15989 29.0245 6.15989Z" fill="white"/>
<path d="M66.0156 29.5065V24.1955L59.9263 13.1289H63.4959L67.5321 20.5222L71.1251 13.1289H74.6713L69.0486 24.1955V29.5065H66.0156Z" fill="url(#paint3_linear_4682_11795)"/>
<path d="M49.5171 22.8852H58.6628V25.7396H49.5171V22.8852ZM49.0505 29.5065H45.5742L52.0602 13.1289H56.0264L62.5591 29.5065H59.0828L54.09 16.264L49.0505 29.5065Z" fill="url(#paint4_linear_4682_11795)"/>
<path d="M44.6445 13.1289H47.9809L43.9913 29.5065H39.6051L36.4788 17.5508L33.6557 29.5065H29.2695L25 13.1289H28.313L31.5793 25.8566L34.7989 13.1289H38.1819L41.6115 25.8566L44.6445 13.1289Z" fill="url(#paint5_linear_4682_11795)"/>
<defs>
<linearGradient id="paint0_linear_4682_11795" x1="8.81302" y1="29.9756" x2="8.81302" y2="0.836729" gradientUnits="userSpaceOnUse">
<stop stop-color="#001E73"/>
<stop offset="1" stop-color="#0077E9"/>
</linearGradient>
<linearGradient id="paint1_linear_4682_11795" x1="7.75289" y1="6.22781" x2="19.0003" y2="17.438" gradientUnits="userSpaceOnUse">
<stop stop-color="#001458"/>
<stop offset="1" stop-color="#007BFF"/>
</linearGradient>
<linearGradient id="paint2_linear_4682_11795" x1="6.71325" y1="7.42552" x2="17.8805" y2="7.42552" gradientUnits="userSpaceOnUse">
<stop stop-color="#0F0094"/>
<stop offset="1" stop-color="#0064E9"/>
</linearGradient>
<linearGradient id="paint3_linear_4682_11795" x1="24.3234" y1="18.4746" x2="75.2726" y2="18.4746" gradientUnits="userSpaceOnUse">
<stop offset="0.25" stop-color="#0138C3"/>
<stop offset="1" stop-color="#0178FB"/>
</linearGradient>
<linearGradient id="paint4_linear_4682_11795" x1="24.3237" y1="18.4746" x2="75.2728" y2="18.4746" gradientUnits="userSpaceOnUse">
<stop offset="0.25" stop-color="#0138C3"/>
<stop offset="1" stop-color="#0178FB"/>
</linearGradient>
<linearGradient id="paint5_linear_4682_11795" x1="24.3234" y1="18.4746" x2="75.2725" y2="18.4746" gradientUnits="userSpaceOnUse">
<stop offset="0.25" stop-color="#0138C3"/>
<stop offset="1" stop-color="#0178FB"/>
</linearGradient>
<clipPath id="clip0_4682_11795">
<rect width="21.5554" height="29.742" fill="white" transform="translate(0 0.128906)"/>
</clipPath>
</defs>
</svg>
