<svg width="52" height="46" viewBox="0 0 52 46" fill="none" xmlns="http://www.w3.org/2000/svg">
<path d="M3.22531 31.2142L16.1246 11.4997H35.0704L25.3959 22.1784L20.5587 23.4105H36.6828L1.2098 46L13.3029 29.5713L3.22531 31.2142Z" fill="white"/>
<path d="M0 3.94987e-07L35.0704 11.4997L17.3334 17.2502L0 3.94987e-07Z" fill="white"/>
<path d="M28.6201 21.3572L37.4883 12.3214L52 18.0715L28.6201 21.3572Z" fill="white"/>
<path d="M22.1148 4.44526C22.3889 3.6287 22.8181 2.87513 23.378 2.22758C23.9378 1.58003 24.6174 1.05118 25.3779 0.671224C26.1383 0.291267 26.9648 0.0676454 27.8101 0.013127C28.6554 -0.0413914 29.5029 0.074261 30.3044 0.353481C31.1058 0.632701 31.8454 1.07002 32.4809 1.64047C33.1165 2.21092 33.6355 2.90333 34.0084 3.67816C34.3813 4.453 34.6008 5.29508 34.6543 6.15634C34.7078 7.01759 34.5943 7.88115 34.3203 8.69771L22.1148 4.44526Z" fill="white"/>
</svg>
