<svg width="260" height="36" fill="none" xmlns="http://www.w3.org/2000/svg"><path d="M2.14 24.357 10.7 11.5h12.57l-6.419 6.964-3.21.804h10.7L.802 34l8.024-10.714-6.687 1.071Z" fill="#fff"/><path d="m0 4 23.27 7.5-11.769 3.75L0 4ZM18.99 17.929l5.885-5.893 9.629 3.75-15.514 2.143ZM14.674 6.9a4.286 4.286 0 0 1 3.779-2.891 4.274 4.274 0 0 1 4.113 2.39 4.291 4.291 0 0 1 .207 3.273l-8.1-2.773ZM51.916 28.864c-1.498 0-2.79-.286-3.878-.857a6.022 6.022 0 0 1-2.515-2.438c-.588-1.053-.882-2.303-.882-3.75h3.825c0 1.233.285 2.179.855 2.84.589.66 1.454.99 2.595.99.91 0 1.631-.196 2.166-.588.553-.411.83-.992.83-1.742 0-.535-.179-.964-.535-1.285-.357-.322-.839-.58-1.445-.777-.588-.214-1.239-.41-1.952-.59-.696-.178-1.4-.392-2.113-.642a9.248 9.248 0 0 1-1.98-.965 4.402 4.402 0 0 1-1.417-1.553c-.357-.66-.535-1.491-.535-2.491 0-1.036.276-1.965.829-2.786.57-.84 1.364-1.5 2.38-1.982 1.017-.482 2.212-.723 3.585-.723 1.266 0 2.425.24 3.477.723 1.07.482 1.934 1.178 2.594 2.09.66.91 1.008 2.017 1.043 3.32h-3.905c-.018-.642-.187-1.178-.508-1.607a2.82 2.82 0 0 0-1.177-.964 3.356 3.356 0 0 0-1.524-.348c-.803 0-1.471.187-2.006.562-.517.375-.776.911-.776 1.608 0 .5.178.901.535 1.205.357.303.829.553 1.418.75.606.178 1.266.357 1.979.536.713.16 1.417.366 2.113.616a6.943 6.943 0 0 1 1.952.99c.607.412 1.088.965 1.445 1.662.356.696.535 1.58.535 2.651 0 1.09-.303 2.054-.91 2.893-.606.84-1.435 1.491-2.487 1.956-1.052.464-2.256.696-3.611.696ZM66.53 28.543V13.06h-5.643V9.846h15.165v3.214H70.41v15.483H66.53ZM85.237 28.864c-1.623 0-3.05-.393-4.28-1.178-1.212-.786-2.157-1.902-2.835-3.349-.66-1.446-.99-3.16-.99-5.143 0-2 .33-3.723.99-5.17.678-1.446 1.623-2.553 2.835-3.32 1.23-.787 2.657-1.18 4.28-1.18 1.623 0 3.04.393 4.253 1.18 1.212.767 2.148 1.874 2.808 3.32.678 1.43 1.016 3.153 1.016 5.17 0 1.983-.338 3.697-1.016 5.143-.66 1.447-1.596 2.563-2.808 3.349-1.213.785-2.63 1.178-4.253 1.178Zm0-3.214c.785 0 1.48-.25 2.086-.75.624-.518 1.106-1.26 1.445-2.223.356-.965.534-2.125.534-3.483 0-1.375-.178-2.535-.535-3.482-.338-.964-.82-1.696-1.444-2.196a3.12 3.12 0 0 0-2.086-.777c-.785 0-1.489.259-2.113.777-.624.5-1.115 1.232-1.471 2.196-.339.965-.508 2.125-.508 3.482 0 1.358.169 2.518.508 3.483.356.964.847 1.705 1.47 2.223.625.5 1.33.75 2.114.75ZM102.178 28.864c-1.676 0-3.12-.402-4.333-1.205-1.212-.804-2.148-1.929-2.808-3.375-.66-1.465-.99-3.161-.99-5.09 0-1.964.339-3.67 1.017-5.116.677-1.446 1.631-2.562 2.862-3.348 1.248-.804 2.71-1.205 4.386-1.205 1.32 0 2.532.259 3.638.776a6.77 6.77 0 0 1 2.701 2.25c.713.965 1.115 2.134 1.204 3.51h-4.253c-.107-1-.446-1.804-1.016-2.411-.571-.607-1.329-.911-2.274-.911-.82 0-1.551.25-2.193.75-.642.5-1.15 1.232-1.525 2.196-.356.965-.535 2.134-.535 3.51 0 1.374.178 2.544.535 3.508.357.965.838 1.697 1.445 2.197.624.5 1.337.75 2.139.75.66 0 1.24-.134 1.739-.402a3.25 3.25 0 0 0 1.203-1.205c.321-.518.518-1.134.589-1.849h4.226c-.125 1.358-.517 2.536-1.177 3.536a6.704 6.704 0 0 1-2.648 2.33c-1.105.536-2.416.804-3.932.804ZM111.523 28.543V9.846h3.906v4.232l-.348 3.51 2.728-3.322 3.825-4.42h4.654l-10.859 12.67v6.027h-3.906Zm10.78 0-5.965-10.233 3.29-1.875 7.222 12.108h-4.547ZM135.553 28.864c-1.498 0-2.791-.286-3.879-.857a6.029 6.029 0 0 1-2.514-2.438c-.588-1.053-.882-2.303-.882-3.75h3.824c0 1.233.286 2.179.856 2.84.589.66 1.454.99 2.595.99.909 0 1.631-.196 2.166-.588.553-.411.829-.992.829-1.742 0-.535-.178-.964-.534-1.285-.357-.322-.839-.58-1.445-.777a19.667 19.667 0 0 0-1.952-.59c-.696-.178-1.4-.392-2.113-.642a9.253 9.253 0 0 1-1.98-.965 4.399 4.399 0 0 1-1.417-1.553c-.357-.66-.535-1.491-.535-2.491 0-1.036.276-1.965.829-2.786.571-.84 1.364-1.5 2.38-1.982 1.017-.482 2.212-.723 3.585-.723 1.266 0 2.425.24 3.477.723 1.07.482 1.934 1.178 2.594 2.09.66.91 1.008 2.017 1.043 3.32h-3.905c-.018-.642-.187-1.178-.508-1.607a2.816 2.816 0 0 0-1.177-.964 3.354 3.354 0 0 0-1.524-.348c-.803 0-1.471.187-2.006.562-.518.375-.776.911-.776 1.608 0 .5.178.901.535 1.205.356.303.829.553 1.417.75.607.178 1.266.357 1.98.536.713.16 1.417.366 2.113.616a6.937 6.937 0 0 1 1.952.99c.607.412 1.088.965 1.445 1.662.356.696.535 1.58.535 2.651 0 1.09-.304 2.054-.91 2.893-.606.84-1.435 1.491-2.487 1.956-1.052.464-2.256.696-3.611.696ZM149.953 28.543v-4.179h4.333v4.179h-4.333ZM169.008 28.864c-1.498 0-2.791-.286-3.879-.857a6.023 6.023 0 0 1-2.514-2.438c-.588-1.053-.883-2.303-.883-3.75h3.825c0 1.233.286 2.179.856 2.84.589.66 1.453.99 2.595.99.909 0 1.631-.196 2.166-.588.553-.411.829-.992.829-1.742 0-.535-.178-.964-.535-1.285-.356-.322-.838-.58-1.444-.777a19.61 19.61 0 0 0-1.953-.59 25.909 25.909 0 0 1-2.113-.642 9.245 9.245 0 0 1-1.979-.965 4.399 4.399 0 0 1-1.417-1.553c-.357-.66-.535-1.491-.535-2.491 0-1.036.276-1.965.829-2.786.57-.84 1.364-1.5 2.38-1.982 1.017-.482 2.211-.723 3.584-.723 1.266 0 2.425.24 3.477.723 1.07.482 1.935 1.178 2.595 2.09.66.91 1.007 2.017 1.043 3.32h-3.905c-.018-.642-.187-1.178-.508-1.607a2.822 2.822 0 0 0-1.177-.964 3.358 3.358 0 0 0-1.525-.348c-.802 0-1.471.187-2.006.562-.517.375-.775.911-.775 1.608 0 .5.178.901.535 1.205.356.303.829.553 1.417.75.606.178 1.266.357 1.979.536.714.16 1.418.366 2.114.616a6.937 6.937 0 0 1 1.952.99c.606.412 1.088.965 1.444 1.662.357.696.535 1.58.535 2.651 0 1.09-.303 2.054-.909 2.893-.606.84-1.435 1.491-2.488 1.956-1.052.464-2.255.696-3.61.696ZM185.601 28.864c-1.622 0-3.049-.393-4.279-1.178-1.213-.786-2.158-1.902-2.835-3.349-.66-1.446-.99-3.16-.99-5.143 0-2 .33-3.723.99-5.17.677-1.446 1.622-2.553 2.835-3.32 1.23-.787 2.657-1.18 4.279-1.18 1.623 0 3.041.393 4.253 1.18 1.213.767 2.149 1.874 2.808 3.32.678 1.43 1.017 3.153 1.017 5.17 0 1.983-.339 3.697-1.017 5.143-.659 1.447-1.595 2.563-2.808 3.349-1.212.785-2.63 1.178-4.253 1.178Zm0-3.214c.785 0 1.48-.25 2.087-.75.624-.518 1.105-1.26 1.444-2.223.356-.965.535-2.125.535-3.483 0-1.375-.179-2.535-.535-3.482-.339-.964-.82-1.696-1.444-2.196a3.122 3.122 0 0 0-2.087-.777c-.784 0-1.489.259-2.113.777-.624.5-1.114 1.232-1.471 2.196-.339.965-.508 2.125-.508 3.482 0 1.358.169 2.518.508 3.483.357.964.847 1.705 1.471 2.223.624.5 1.329.75 2.113.75ZM202.543 28.864c-1.677 0-3.121-.402-4.333-1.205-1.213-.804-2.149-1.929-2.809-3.375-.66-1.465-.99-3.161-.99-5.09 0-1.964.339-3.67 1.017-5.116.677-1.446 1.631-2.562 2.862-3.348 1.248-.804 2.71-1.205 4.386-1.205 1.32 0 2.532.259 3.638.776a6.763 6.763 0 0 1 2.701 2.25c.714.965 1.115 2.134 1.204 3.51h-4.253c-.107-1-.446-1.804-1.016-2.411-.571-.607-1.329-.911-2.274-.911-.82 0-1.551.25-2.193.75-.642.5-1.15 1.232-1.524 2.196-.357.965-.535 2.134-.535 3.51 0 1.374.178 2.544.535 3.508.356.965.838 1.697 1.444 2.197.624.5 1.337.75 2.14.75.659 0 1.239-.134 1.738-.402a3.252 3.252 0 0 0 1.204-1.205c.321-.518.517-1.134.588-1.849h4.226c-.125 1.358-.517 2.536-1.177 3.536a6.697 6.697 0 0 1-2.648 2.33c-1.105.536-2.416.804-3.931.804ZM219.27 28.864c-1.676 0-3.12-.402-4.333-1.205-1.213-.804-2.149-1.929-2.808-3.375-.66-1.465-.99-3.161-.99-5.09 0-1.964.339-3.67 1.016-5.116.678-1.446 1.632-2.562 2.862-3.348 1.248-.804 2.711-1.205 4.387-1.205 1.319 0 2.532.259 3.637.776a6.773 6.773 0 0 1 2.702 2.25c.713.965 1.114 2.134 1.203 3.51h-4.252c-.107-1-.446-1.804-1.017-2.411-.57-.607-1.328-.911-2.273-.911-.821 0-1.552.25-2.194.75-.641.5-1.15 1.232-1.524 2.196-.357.965-.535 2.134-.535 3.51 0 1.374.178 2.544.535 3.508.357.965.838 1.697 1.444 2.197.624.5 1.338.75 2.14.75.66 0 1.239-.134 1.739-.402a3.25 3.25 0 0 0 1.203-1.205c.321-.518.517-1.134.589-1.849h4.226c-.125 1.358-.517 2.536-1.177 3.536a6.71 6.71 0 0 1-2.648 2.33c-1.106.536-2.416.804-3.932.804ZM229.097 28.543V9.846h13.694v3.214h-9.789v4.206h6.473v3.214h-6.473v4.848h9.896v3.215h-13.801ZM248.445 21.284v-3.215h4.387c.624 0 1.168-.107 1.631-.321.464-.214.83-.518 1.097-.91a2.5 2.5 0 0 0 .401-1.394c0-.482-.125-.902-.374-1.259a2.308 2.308 0 0 0-.963-.83 3.181 3.181 0 0 0-1.391-.295h-4.788V9.846h4.788c1.302 0 2.461.223 3.477.67 1.017.446 1.81 1.089 2.381 1.928.588.822.882 1.822.882 3 0 .732-.169 1.447-.508 2.143-.339.679-.829 1.304-1.471 1.875-.642.554-1.418 1-2.327 1.34-.892.32-1.908.482-3.049.482h-4.173Zm-2.781 7.259V9.846h3.878v18.697h-3.878Zm10.351 0a7.356 7.356 0 0 0-.535-2.411 9.514 9.514 0 0 0-1.284-2.357 9.45 9.45 0 0 0-2.086-2.036 12.046 12.046 0 0 0-2.836-1.58l4.307-.884c1.087.535 2.024 1.17 2.808 1.902a10.769 10.769 0 0 1 1.979 2.303 8.952 8.952 0 0 1 1.177 2.518c.268.857.419 1.705.455 2.545h-3.985Z" fill="#fff"/></svg>