<svg width="132" height="52" viewBox="0 0 132 52" fill="none" xmlns="http://www.w3.org/2000/svg">
<g clip-path="url(#clip0_2524_28599)">
<path d="M126.189 0.0927734H5.81093C2.60164 0.0927734 0 2.69442 0 5.90371V46.0966C0 49.3059 2.60164 51.9076 5.81093 51.9076H126.189C129.398 51.9076 132 49.3059 132 46.0966V5.90371C132 2.69442 129.398 0.0927734 126.189 0.0927734Z" fill="#FFDD2D"/>
<path d="M64.5987 25.0745C63.9453 24.8232 63.0907 24.7478 62.1608 24.7478H56.9829V23.1392H65.8806V20.3745H53.3385V32.3384H61.8339C63.0153 32.3384 63.8948 32.2379 64.5485 31.9864C65.9309 31.4586 66.8608 30.1768 66.8608 28.4928C66.8608 26.7838 65.9811 25.6024 64.5987 25.0745ZM62.789 29.2217C62.588 29.2972 62.3115 29.3222 61.9595 29.3222H56.9829V27.4121H61.9595C62.3618 27.4121 62.6884 27.4373 62.9399 27.5629C63.2414 27.7137 63.3922 27.9902 63.3922 28.342C63.3922 28.6938 63.2164 29.0709 62.789 29.2217Z" fill="#333333"/>
<path d="M77.0795 20.3745H71.7511L66.8499 32.3384H70.972L71.6505 30.6041H77.18L77.8838 32.3384H81.9808L77.0795 20.3745ZM72.5553 27.9649L74.2897 23.1392H74.5661L76.3004 27.9649H72.5553Z" fill="#333333"/>
<path d="M86.6717 27.8893V32.3379H83.0273V20.374H86.6717V24.7474H92.528V20.374H96.1725V32.3379H92.528V27.8893H86.6717Z" fill="#333333"/>
<path d="M101.941 27.8138V32.3379H98.2966V20.374H101.941V24.8731H102.947L107.345 20.374H111.919L106.088 26.1046L112.146 32.3379H107.295L102.947 27.8138H101.941Z" fill="#333333"/>
<path d="M17.447 12.6836H46.5019V27.2961C46.5019 31.0421 44.5035 34.5036 41.2596 36.3768L31.9745 41.7385L22.6894 36.3768C19.4454 34.5036 17.447 31.0421 17.447 27.2961V12.6836Z" fill="white"/>
<path fill-rule="evenodd" clip-rule="evenodd" d="M25.421 20.374V24.9188C26.0425 24.217 27.1725 23.742 28.4644 23.742H29.8684V29.0253C29.8684 30.4309 29.4865 31.6612 28.9199 32.3379H35.027C34.4615 31.6605 34.0805 30.4318 34.0805 29.028V23.742H35.4846C36.7766 23.742 37.9065 24.217 38.528 24.9188V20.374H25.421Z" fill="#333333"/>
</g>
<defs>
<clipPath id="clip0_2524_28599">
<rect width="132" height="51.8148" fill="white" transform="translate(0 0.0927734)"/>
</clipPath>
</defs>
</svg>
