<svg width="60" height="60" viewBox="0 0 60 60" fill="none" xmlns="http://www.w3.org/2000/svg">
<rect x="0.736328" y="0.736328" width="58.5274" height="58.5273" rx="4.41259" fill="#FFDD2D"/>
<path d="M13.9741 13.9741H46.026V30.0939C46.026 34.2263 43.8215 38.0449 40.2429 40.1113L30 46.0259L19.7572 40.1113C16.1786 38.0449 13.9741 34.2263 13.9741 30.0939V13.9741Z" fill="white"/>
<path fill-rule="evenodd" clip-rule="evenodd" d="M22.7705 22.458V27.4716C23.4561 26.6974 24.7026 26.1734 26.1278 26.1734H27.6767V32.0017C27.6767 33.5522 27.2554 34.9094 26.6303 35.656H33.3673C32.7435 34.9087 32.3232 33.5532 32.3232 32.0046V26.1734H33.8721C35.2973 26.1734 36.5438 26.6974 37.2294 27.4716V22.458H22.7705Z" fill="#333333"/>
</svg>
