<?xml version="1.0" encoding="UTF-8"?> <svg viewBox="0 0 245 24" fill="none"> <path d="M1.68447 16.2107L8.42131 6.10547H18.316L13.2634 11.5792L10.7371 12.2107H12.6318H19.1582L0.631836 23.7897L6.94763 15.3686L1.68447 16.2107Z" fill="white"></path> <path d="M0 0.210938L18.3158 6.10567L9.05263 9.05304L0 0.210938Z" fill="white"></path> <path d="M14.9475 11.1579L19.5791 6.52637L27.158 9.47374L14.9475 11.1579Z" fill="white"></path> <path d="M11.5498 2.48949C11.6929 2.07094 11.9171 1.68468 12.2095 1.35275C12.5019 1.02083 12.8568 0.749753 13.254 0.554994C13.6511 0.360235 14.0828 0.245611 14.5242 0.217666C14.9657 0.189721 15.4084 0.249002 15.8269 0.392125C16.2455 0.535248 16.6317 0.75941 16.9637 1.05181C17.2956 1.34421 17.5667 1.69913 17.7614 2.09629C17.9562 2.49346 18.0708 2.9251 18.0987 3.36656C18.1267 3.80802 18.0674 4.25067 17.9243 4.66922L14.737 3.57936L11.5498 2.48949Z" fill="white"></path> <path d="M40.8632 19.7526C39.6842 19.7526 38.6667 19.5281 37.8106 19.0789C36.9544 18.6298 36.2948 17.9912 35.8316 17.1632C35.3685 16.3351 35.1369 15.3526 35.1369 14.2158H38.1474C38.1474 15.1842 38.372 15.9281 38.8211 16.4474C39.2842 16.9667 39.965 17.2263 40.8632 17.2263C41.579 17.2263 42.1474 17.0719 42.5685 16.7632C43.0035 16.4404 43.2211 15.9842 43.2211 15.3947C43.2211 14.9737 43.0807 14.6368 42.8 14.3842C42.5193 14.1316 42.1404 13.9281 41.6632 13.7737C41.2 13.6053 40.6878 13.4509 40.1264 13.3105C39.579 13.1702 39.0246 13.0018 38.4632 12.8053C37.9018 12.6088 37.3825 12.3561 36.9053 12.0474C36.4421 11.7386 36.0702 11.3316 35.7895 10.8263C35.5088 10.307 35.3685 9.65439 35.3685 8.86842C35.3685 8.05439 35.586 7.32456 36.0211 6.67895C36.4702 6.0193 37.0948 5.5 37.8948 5.12105C38.6948 4.7421 39.6351 4.55263 40.7158 4.55263C41.7123 4.55263 42.6246 4.7421 43.4527 5.12105C44.2948 5.5 44.9755 6.04737 45.4948 6.76316C46.0141 7.47895 46.2878 8.34912 46.3158 9.37368H43.2421C43.2281 8.86842 43.0948 8.44737 42.8421 8.11053C42.6035 7.77368 42.2948 7.52105 41.9158 7.35263C41.5509 7.17017 41.1509 7.07895 40.7158 7.07895C40.0842 7.07895 39.5579 7.22632 39.1369 7.52105C38.7299 7.81579 38.5264 8.23684 38.5264 8.78421C38.5264 9.17719 38.6667 9.49298 38.9474 9.73158C39.2281 9.97018 39.6 10.1667 40.0632 10.3211C40.5404 10.4614 41.0597 10.6018 41.6211 10.7421C42.1825 10.8684 42.7369 11.0298 43.2842 11.2263C43.8457 11.4088 44.3579 11.6684 44.8211 12.0053C45.2983 12.3281 45.6772 12.7632 45.9579 13.3105C46.2386 13.8579 46.379 14.5526 46.379 15.3947C46.379 16.2509 46.1404 17.0088 45.6632 17.6684C45.186 18.3281 44.5334 18.8404 43.7053 19.2053C42.8772 19.5702 41.9299 19.7526 40.8632 19.7526ZM52.3662 19.5V7.33158H47.9241V4.80526H59.8609V7.33158H55.4188V19.5H52.3662ZM67.0902 19.7526C65.813 19.7526 64.6902 19.4439 63.7217 18.8263C62.7674 18.2088 62.0235 17.3316 61.4902 16.1947C60.9709 15.0579 60.7112 13.7105 60.7112 12.1526C60.7112 10.5807 60.9709 9.22632 61.4902 8.08947C62.0235 6.95263 62.7674 6.08246 63.7217 5.47895C64.6902 4.8614 65.813 4.55263 67.0902 4.55263C68.3674 4.55263 69.4832 4.8614 70.4375 5.47895C71.3919 6.08246 72.1288 6.95263 72.6481 8.08947C73.1814 9.21228 73.4481 10.5667 73.4481 12.1526C73.4481 13.7105 73.1814 15.0579 72.6481 16.1947C72.1288 17.3316 71.3919 18.2088 70.4375 18.8263C69.4832 19.4439 68.3674 19.7526 67.0902 19.7526ZM67.0902 17.2263C67.7077 17.2263 68.2551 17.0298 68.7323 16.6368C69.2235 16.2298 69.6025 15.6474 69.8691 14.8895C70.1498 14.1316 70.2902 13.2193 70.2902 12.1526C70.2902 11.0719 70.1498 10.1596 69.8691 9.41579C69.6025 8.65789 69.2235 8.08246 68.7323 7.68947C68.2551 7.28246 67.7077 7.07895 67.0902 7.07895C66.4726 7.07895 65.9182 7.28246 65.427 7.68947C64.9358 8.08246 64.5498 8.65789 64.2691 9.41579C64.0025 10.1737 63.8691 11.086 63.8691 12.1526C63.8691 13.2193 64.0025 14.1316 64.2691 14.8895C64.5498 15.6474 64.9358 16.2298 65.427 16.6368C65.9182 17.0298 66.4726 17.2263 67.0902 17.2263ZM80.4247 19.7526C79.1054 19.7526 77.9686 19.4368 77.0142 18.8053C76.0598 18.1737 75.323 17.2895 74.8037 16.1526C74.2844 15.0018 74.0247 13.6684 74.0247 12.1526C74.0247 10.6088 74.2914 9.26842 74.8247 8.13158C75.358 6.99474 76.1089 6.11754 77.0773 5.5C78.0598 4.86842 79.2107 4.55263 80.53 4.55263C81.5686 4.55263 82.523 4.75614 83.3931 5.16316C84.2633 5.57018 84.9721 6.15965 85.5194 6.93158C86.0809 7.68947 86.3966 8.60877 86.4668 9.68947H83.1194C83.0352 8.90351 82.7686 8.27193 82.3194 7.79474C81.8703 7.31754 81.2738 7.07895 80.53 7.07895C79.8844 7.07895 79.3089 7.27544 78.8037 7.66842C78.2984 8.0614 77.8984 8.63684 77.6037 9.39474C77.323 10.1526 77.1826 11.0719 77.1826 12.1526C77.1826 13.2333 77.323 14.1526 77.6037 14.9105C77.8844 15.6684 78.2633 16.2439 78.7405 16.6368C79.2317 17.0298 79.7931 17.2263 80.4247 17.2263C80.944 17.2263 81.4001 17.1211 81.7931 16.9105C82.1861 16.686 82.5019 16.3702 82.7405 15.9632C82.9931 15.5561 83.1475 15.0719 83.2037 14.5105H86.53C86.4317 15.5772 86.123 16.5035 85.6037 17.2895C85.0844 18.0754 84.3896 18.686 83.5194 19.1211C82.6493 19.5421 81.6177 19.7526 80.4247 19.7526ZM87.7803 19.5V4.80526H90.854V8.13158L90.5803 10.8895L92.7277 8.27895L95.7382 4.80526H99.4014L90.854 14.7632V19.5H87.7803ZM96.2645 19.5L91.5698 11.4579L94.1593 9.98421L99.8435 19.5H96.2645ZM106.694 19.7526C105.515 19.7526 104.497 19.5281 103.641 19.0789C102.785 18.6298 102.125 17.9912 101.662 17.1632C101.199 16.3351 100.967 15.3526 100.967 14.2158H103.978C103.978 15.1842 104.203 15.9281 104.652 16.4474C105.115 16.9667 105.796 17.2263 106.694 17.2263C107.41 17.2263 107.978 17.0719 108.399 16.7632C108.834 16.4404 109.052 15.9842 109.052 15.3947C109.052 14.9737 108.911 14.6368 108.631 14.3842C108.35 14.1316 107.971 13.9281 107.494 13.7737C107.031 13.6053 106.518 13.4509 105.957 13.3105C105.41 13.1702 104.855 13.0018 104.294 12.8053C103.732 12.6088 103.213 12.3561 102.736 12.0474C102.273 11.7386 101.901 11.3316 101.62 10.8263C101.339 10.307 101.199 9.65439 101.199 8.86842C101.199 8.05439 101.417 7.32456 101.852 6.67895C102.301 6.0193 102.925 5.5 103.725 5.12105C104.525 4.7421 105.466 4.55263 106.546 4.55263C107.543 4.55263 108.455 4.7421 109.283 5.12105C110.125 5.5 110.806 6.04737 111.325 6.76316C111.845 7.47895 112.118 8.34912 112.146 9.37368H109.073C109.059 8.86842 108.925 8.44737 108.673 8.11053C108.434 7.77368 108.125 7.52105 107.746 7.35263C107.382 7.17017 106.982 7.07895 106.546 7.07895C105.915 7.07895 105.389 7.22632 104.967 7.52105C104.56 7.81579 104.357 8.23684 104.357 8.78421C104.357 9.17719 104.497 9.49298 104.778 9.73158C105.059 9.97018 105.431 10.1667 105.894 10.3211C106.371 10.4614 106.89 10.6018 107.452 10.7421C108.013 10.8684 108.567 11.0298 109.115 11.2263C109.676 11.4088 110.189 11.6684 110.652 12.0053C111.129 12.3281 111.508 12.7632 111.789 13.3105C112.069 13.8579 112.21 14.5526 112.21 15.3947C112.21 16.2509 111.971 17.0088 111.494 17.6684C111.017 18.3281 110.364 18.8404 109.536 19.2053C108.708 19.5702 107.76 19.7526 106.694 19.7526ZM118.028 19.5V16.2158H121.439V19.5H118.028ZM133.026 19.7526C131.847 19.7526 130.83 19.5281 129.973 19.0789C129.117 18.6298 128.458 17.9912 127.994 17.1632C127.531 16.3351 127.3 15.3526 127.3 14.2158H130.31C130.31 15.1842 130.535 15.9281 130.984 16.4474C131.447 16.9667 132.128 17.2263 133.026 17.2263C133.742 17.2263 134.31 17.0719 134.731 16.7632C135.166 16.4404 135.384 15.9842 135.384 15.3947C135.384 14.9737 135.244 14.6368 134.963 14.3842C134.682 14.1316 134.303 13.9281 133.826 13.7737C133.363 13.6053 132.851 13.4509 132.289 13.3105C131.742 13.1702 131.187 13.0018 130.626 12.8053C130.065 12.6088 129.545 12.3561 129.068 12.0474C128.605 11.7386 128.233 11.3316 127.952 10.8263C127.672 10.307 127.531 9.65439 127.531 8.86842C127.531 8.05439 127.749 7.32456 128.184 6.67895C128.633 6.0193 129.258 5.5 130.058 5.12105C130.858 4.7421 131.798 4.55263 132.879 4.55263C133.875 4.55263 134.787 4.7421 135.615 5.12105C136.458 5.5 137.138 6.04737 137.658 6.76316C138.177 7.47895 138.451 8.34912 138.479 9.37368H135.405C135.391 8.86842 135.258 8.44737 135.005 8.11053C134.766 7.77368 134.458 7.52105 134.079 7.35263C133.714 7.17017 133.314 7.07895 132.879 7.07895C132.247 7.07895 131.721 7.22632 131.3 7.52105C130.893 7.81579 130.689 8.23684 130.689 8.78421C130.689 9.17719 130.83 9.49298 131.11 9.73158C131.391 9.97018 131.763 10.1667 132.226 10.3211C132.703 10.4614 133.223 10.6018 133.784 10.7421C134.345 10.8684 134.9 11.0298 135.447 11.2263C136.008 11.4088 136.521 11.6684 136.984 12.0053C137.461 12.3281 137.84 12.7632 138.121 13.3105C138.401 13.8579 138.542 14.5526 138.542 15.3947C138.542 16.2509 138.303 17.0088 137.826 17.6684C137.349 18.3281 136.696 18.8404 135.868 19.2053C135.04 19.5702 134.093 19.7526 133.026 19.7526ZM146.087 19.7526C144.81 19.7526 143.687 19.4439 142.718 18.8263C141.764 18.2088 141.02 17.3316 140.487 16.1947C139.968 15.0579 139.708 13.7105 139.708 12.1526C139.708 10.5807 139.968 9.22632 140.487 8.08947C141.02 6.95263 141.764 6.08246 142.718 5.47895C143.687 4.8614 144.81 4.55263 146.087 4.55263C147.364 4.55263 148.48 4.8614 149.434 5.47895C150.389 6.08246 151.125 6.95263 151.645 8.08947C152.178 9.21228 152.445 10.5667 152.445 12.1526C152.445 13.7105 152.178 15.0579 151.645 16.1947C151.125 17.3316 150.389 18.2088 149.434 18.8263C148.48 19.4439 147.364 19.7526 146.087 19.7526ZM146.087 17.2263C146.704 17.2263 147.252 17.0298 147.729 16.6368C148.22 16.2298 148.599 15.6474 148.866 14.8895C149.147 14.1316 149.287 13.2193 149.287 12.1526C149.287 11.0719 149.147 10.1596 148.866 9.41579C148.599 8.65789 148.22 8.08246 147.729 7.68947C147.252 7.28246 146.704 7.07895 146.087 7.07895C145.469 7.07895 144.915 7.28246 144.424 7.68947C143.932 8.08246 143.547 8.65789 143.266 9.41579C142.999 10.1737 142.866 11.086 142.866 12.1526C142.866 13.2193 142.999 14.1316 143.266 14.8895C143.547 15.6474 143.932 16.2298 144.424 16.6368C144.915 17.0298 145.469 17.2263 146.087 17.2263ZM159.421 19.7526C158.102 19.7526 156.965 19.4368 156.011 18.8053C155.057 18.1737 154.32 17.2895 153.8 16.1526C153.281 15.0018 153.021 13.6684 153.021 12.1526C153.021 10.6088 153.288 9.26842 153.821 8.13158C154.355 6.99474 155.106 6.11754 156.074 5.5C157.057 4.86842 158.207 4.55263 159.527 4.55263C160.565 4.55263 161.52 4.75614 162.39 5.16316C163.26 5.57018 163.969 6.15965 164.516 6.93158C165.078 7.68947 165.393 8.60877 165.464 9.68947H162.116C162.032 8.90351 161.765 8.27193 161.316 7.79474C160.867 7.31754 160.271 7.07895 159.527 7.07895C158.881 7.07895 158.306 7.27544 157.8 7.66842C157.295 8.0614 156.895 8.63684 156.6 9.39474C156.32 10.1526 156.179 11.0719 156.179 12.1526C156.179 13.2333 156.32 14.1526 156.6 14.9105C156.881 15.6684 157.26 16.2439 157.737 16.6368C158.228 17.0298 158.79 17.2263 159.421 17.2263C159.941 17.2263 160.397 17.1211 160.79 16.9105C161.183 16.686 161.499 16.3702 161.737 15.9632C161.99 15.5561 162.144 15.0719 162.2 14.5105H165.527C165.428 15.5772 165.12 16.5035 164.6 17.2895C164.081 18.0754 163.386 18.686 162.516 19.1211C161.646 19.5421 160.614 19.7526 159.421 19.7526ZM172.588 19.7526C171.268 19.7526 170.131 19.4368 169.177 18.8053C168.223 18.1737 167.486 17.2895 166.966 16.1526C166.447 15.0018 166.188 13.6684 166.188 12.1526C166.188 10.6088 166.454 9.26842 166.988 8.13158C167.521 6.99474 168.272 6.11754 169.24 5.5C170.223 4.86842 171.373 4.55263 172.693 4.55263C173.731 4.55263 174.686 4.75614 175.556 5.16316C176.426 5.57018 177.135 6.15965 177.682 6.93158C178.244 7.68947 178.559 8.60877 178.63 9.68947H175.282C175.198 8.90351 174.931 8.27193 174.482 7.79474C174.033 7.31754 173.437 7.07895 172.693 7.07895C172.047 7.07895 171.472 7.27544 170.966 7.66842C170.461 8.0614 170.061 8.63684 169.766 9.39474C169.486 10.1526 169.345 11.0719 169.345 12.1526C169.345 13.2333 169.486 14.1526 169.766 14.9105C170.047 15.6684 170.426 16.2439 170.903 16.6368C171.395 17.0298 171.956 17.2263 172.588 17.2263C173.107 17.2263 173.563 17.1211 173.956 16.9105C174.349 16.686 174.665 16.3702 174.903 15.9632C175.156 15.5561 175.31 15.0719 175.366 14.5105H178.693C178.595 15.5772 178.286 16.5035 177.766 17.2895C177.247 18.0754 176.552 18.686 175.682 19.1211C174.812 19.5421 173.781 19.7526 172.588 19.7526ZM180.322 19.5V4.80526H191.101V7.33158H183.396V10.6368H188.49V13.1632H183.396V16.9737H191.185V19.5H180.322ZM195.551 13.7947V11.2684H199.004C199.495 11.2684 199.923 11.1842 200.288 11.0158C200.653 10.8474 200.941 10.6088 201.151 10.3C201.362 9.97719 201.467 9.61228 201.467 9.20526C201.467 8.82632 201.369 8.49649 201.172 8.21579C200.99 7.93509 200.737 7.71754 200.415 7.56316C200.092 7.40877 199.727 7.33158 199.32 7.33158H195.551V4.80526H199.32C200.344 4.80526 201.257 4.9807 202.057 5.33158C202.857 5.68246 203.481 6.18772 203.93 6.84737C204.393 7.49298 204.625 8.27895 204.625 9.20526C204.625 9.7807 204.492 10.3421 204.225 10.8895C203.958 11.4228 203.572 11.914 203.067 12.3632C202.562 12.7982 201.951 13.1491 201.236 13.4158C200.534 13.6684 199.734 13.7947 198.836 13.7947H195.551ZM193.362 19.5V4.80526H196.415V19.5H193.362ZM201.509 19.5C201.481 18.8684 201.341 18.2368 201.088 17.6053C200.85 16.9596 200.513 16.3421 200.078 15.7526C199.643 15.1632 199.095 14.6298 198.436 14.1526C197.79 13.6614 197.046 13.2474 196.204 12.9105L199.593 12.2158C200.45 12.6368 201.186 13.1351 201.804 13.7105C202.436 14.2719 202.955 14.8754 203.362 15.5211C203.783 16.1526 204.092 16.8123 204.288 17.5C204.499 18.1737 204.618 18.8404 204.646 19.5H201.509Z" fill="white"></path> </svg> 