<svg viewBox="0 0 75 75" xmlns="http://www.w3.org/2000/svg">
<path d="M48.375 6C44.2958 6 40.3081 7.20964 36.9164 9.47594C33.5246 11.7422 30.8811 14.9634 29.32 18.7322C27.7589 22.5009 27.3505 26.6479 28.1463 30.6487C28.9421 34.6496 30.9065 38.3246 33.7909 41.2091C36.6754 44.0935 40.3504 46.0579 44.3513 46.8537C48.3521 47.6495 52.4991 47.2411 56.2679 45.68C60.0366 44.119 63.2578 41.4754 65.5241 38.0836C67.7904 34.6919 69 30.7042 69 26.625C68.9941 21.1567 66.8192 15.9141 62.9525 12.0475C59.0859 8.18085 53.8433 6.00596 48.375 6ZM48.375 45C44.7408 45 41.1882 43.9223 38.1664 41.9033C35.1447 39.8842 32.7895 37.0144 31.3987 33.6568C30.008 30.2992 29.6441 26.6046 30.3531 23.0402C31.0621 19.4758 32.8121 16.2017 35.3819 13.6319C37.9517 11.0621 41.2258 9.31207 44.7902 8.60307C48.3546 7.89407 52.0492 8.25795 55.4068 9.64871C58.7644 11.0395 61.6342 13.3946 63.6533 16.4164C65.6723 19.4381 66.75 22.9908 66.75 26.625C66.7441 31.4965 64.8062 36.1668 61.3615 39.6115C57.9168 43.0562 53.2465 44.994 48.375 45Z" fill="#F8AE3C"/>
<path d="M19.3198 34.4552C19.4606 34.5047 19.6098 34.5256 19.7588 34.5169C19.9077 34.5081 20.0534 34.4698 20.1875 34.4042C20.3215 34.3386 20.4411 34.247 20.5394 34.1347C20.6376 34.0224 20.7126 33.8917 20.7598 33.7502C21.5631 31.4933 22.8774 29.4527 24.5998 27.7877C24.8044 27.5786 24.9195 27.298 24.9207 27.0054C24.9218 26.7129 24.809 26.4314 24.606 26.2206C24.4031 26.0099 24.1261 25.8865 23.8337 25.8766C23.5413 25.8667 23.2565 25.9712 23.0398 26.1677C21.065 28.0751 19.5582 30.4136 18.6373 33.0002C18.585 33.1404 18.5612 33.2897 18.5673 33.4392C18.5734 33.5888 18.6093 33.7356 18.6729 33.8711C18.7365 34.0066 18.8264 34.1281 18.9375 34.2284C19.0486 34.3287 19.1786 34.4058 19.3198 34.4552Z" fill="#F8AE3C"/>
<path d="M21.3227 48.9224C21.524 48.9225 21.7216 48.8687 21.895 48.7665C22.0684 48.6642 22.2111 48.5174 22.3084 48.3412C22.4057 48.165 22.4539 47.9659 22.4481 47.7648C22.4423 47.5636 22.3826 47.3676 22.2752 47.1974C20.7652 44.8214 19.9351 42.077 19.8752 39.2624C19.8693 38.964 19.745 38.6802 19.5298 38.4735C19.3146 38.2667 19.0261 38.1539 18.7277 38.1599C18.4294 38.1659 18.1456 38.2901 17.9388 38.5053C17.7321 38.7205 17.6193 39.009 17.6252 39.3074C17.6911 42.5304 18.6378 45.674 20.3627 48.3974C20.4648 48.5594 20.6066 48.6926 20.7746 48.7845C20.9426 48.8763 21.1313 48.9238 21.3227 48.9224Z" fill="#F8AE3C"/>
<path d="M46.4393 49.6576C44.4874 51.6847 42.0184 53.1397 39.2993 53.8651C39.0109 53.9416 38.7647 54.1297 38.6149 54.3878C38.4651 54.6459 38.424 54.9529 38.5006 55.2413C38.5772 55.5297 38.7652 55.7759 39.0233 55.9257C39.2814 56.0755 39.5884 56.1166 39.8768 56.0401C42.9924 55.2112 45.8219 53.5462 48.0593 51.2251C48.1669 51.1198 48.2523 50.9939 48.3104 50.855C48.3685 50.7162 48.3982 50.567 48.3976 50.4164C48.397 50.2659 48.3662 50.117 48.307 49.9785C48.2478 49.8401 48.1614 49.715 48.0529 49.6105C47.9445 49.5061 47.8162 49.4245 47.6756 49.3706C47.535 49.3166 47.3851 49.2915 47.2346 49.2965C47.0841 49.3016 46.9362 49.3369 46.7996 49.4002C46.663 49.4635 46.5405 49.5535 46.4393 49.6651V49.6576Z" fill="#F8AE3C"/>
<path d="M33.7502 54.3002C30.9545 54.023 28.2881 52.9855 26.0402 51.3002C25.922 51.2116 25.7876 51.1471 25.6444 51.1104C25.5013 51.0737 25.3524 51.0656 25.2061 51.0865C25.0599 51.1074 24.9192 51.1569 24.7921 51.2322C24.6649 51.3074 24.5539 51.407 24.4652 51.5252C24.3766 51.6434 24.3121 51.7779 24.2754 51.921C24.2388 52.0641 24.2306 52.213 24.2515 52.3593C24.2724 52.5055 24.3219 52.6463 24.3972 52.7734C24.4725 52.9005 24.572 53.0116 24.6902 53.1002C27.2664 55.0392 30.3246 56.235 33.5327 56.5577H33.6452C33.9436 56.5726 34.2357 56.4684 34.4572 56.268C34.6787 56.0675 34.8116 55.7873 34.8265 55.4889C34.8414 55.1906 34.7372 54.8985 34.5368 54.677C34.3363 54.4554 34.0561 54.3226 33.7577 54.3077L33.7502 54.3002Z" fill="#F8AE3C"/>
<path d="M10.8379 55.2148C10.6123 54.3097 10.4989 53.3802 10.5004 52.4473C10.501 52.0138 10.5261 51.5806 10.5754 51.1498C10.6093 50.8515 10.5232 50.5519 10.3361 50.317C10.2435 50.2007 10.1288 50.1038 9.99876 50.0318C9.86868 49.9598 9.72568 49.9141 9.57795 49.8973C9.43021 49.8806 9.28062 49.8931 9.13772 49.9342C8.99482 49.9753 8.86141 50.0441 8.74511 50.1367C8.51022 50.3238 8.35926 50.5965 8.32545 50.8948C8.27132 51.4105 8.24628 51.9288 8.25045 52.4473C8.2488 53.5648 8.38482 54.6782 8.65545 55.7623C8.71733 56.0055 8.85871 56.221 9.05711 56.3745C9.25552 56.5281 9.49956 56.6109 9.75045 56.6098C9.92222 56.6106 10.0919 56.5719 10.2464 56.497C10.4009 56.422 10.5362 56.3126 10.642 56.1772C10.7477 56.0418 10.821 55.884 10.8562 55.7159C10.8915 55.5478 10.8878 55.3738 10.8454 55.2073L10.8379 55.2148Z" fill="#F8AE3C"/>
<path d="M10.2455 47.7377C10.5086 47.8699 10.8131 47.8937 11.0935 47.8039C11.374 47.7142 11.6081 47.518 11.7455 47.2577C12.3784 46.0421 13.2272 44.9518 14.2505 44.0402C14.4538 43.8366 14.5714 43.5629 14.5792 43.2753C14.5869 42.9878 14.4842 42.7082 14.2921 42.494C14.1 42.2798 13.8332 42.1474 13.5465 42.1239C13.2597 42.1004 12.9749 42.1876 12.7505 42.3677C11.5244 43.4625 10.5079 44.7713 9.75053 46.2302C9.61709 46.4958 9.59425 46.8036 9.68701 47.086C9.77976 47.3685 9.98056 47.6028 10.2455 47.7377Z" fill="#F8AE3C"/>
<path d="M30.2842 59.9251C29.3804 60.9515 28.2979 61.8053 27.0892 62.4451C26.9519 62.5101 26.8291 62.6022 26.7284 62.7159C26.6276 62.8296 26.5509 62.9625 26.5029 63.1066C26.4549 63.2508 26.4366 63.4031 26.4491 63.5545C26.4616 63.7059 26.5046 63.8532 26.5756 63.9876C26.6466 64.1219 26.744 64.2404 26.862 64.3361C26.98 64.4317 27.1162 64.5025 27.2623 64.5441C27.4084 64.5856 27.5614 64.5972 27.7122 64.5781C27.8629 64.5589 28.0081 64.5094 28.1392 64.4326C29.5872 63.6719 30.8856 62.6556 31.9717 61.4326C32.1706 61.2088 32.2725 60.9152 32.2549 60.6163C32.2373 60.3174 32.1017 60.0378 31.8779 59.8389C31.6542 59.64 31.3605 59.5381 31.0616 59.5557C30.7627 59.5732 30.4831 59.7088 30.2842 59.9326V59.9251Z" fill="#F8AE3C"/>
<path d="M15.4197 61.7773C14.2896 61.0049 13.3087 60.0343 12.5247 58.9123C12.44 58.7911 12.3323 58.6878 12.2076 58.6083C12.083 58.5288 11.944 58.4746 11.7984 58.4489C11.6529 58.4231 11.5037 58.4263 11.3593 58.4582C11.215 58.4901 11.0783 58.5501 10.9572 58.6348C10.836 58.7195 10.7328 58.8272 10.6533 58.9518C10.5738 59.0764 10.5196 59.2155 10.4938 59.361C10.4418 59.655 10.5086 59.9576 10.6797 60.2023C11.6176 61.5472 12.7916 62.7111 14.1447 63.6373C14.2661 63.7266 14.4042 63.7907 14.5509 63.8257C14.6975 63.8606 14.8497 63.8657 14.9983 63.8407C15.147 63.8157 15.2891 63.7611 15.4162 63.68C15.5434 63.599 15.6529 63.4933 15.7384 63.3691C15.8238 63.2449 15.8835 63.1049 15.9138 62.9572C15.944 62.8095 15.9443 62.6572 15.9146 62.5095C15.8848 62.3617 15.8257 62.2214 15.7407 62.0969C15.6557 61.9724 15.5465 61.8662 15.4197 61.7848V61.7773Z" fill="#F8AE3C"/>
<path d="M23.2043 63.6677C21.8462 63.8333 20.4695 63.7546 19.1393 63.4352C18.8488 63.3646 18.5423 63.4123 18.287 63.5677C18.0317 63.7231 17.8486 63.9736 17.778 64.264C17.7074 64.5544 17.755 64.861 17.9105 65.1162C18.0659 65.3715 18.3163 65.5546 18.6068 65.6252C20.1996 66.0083 21.8482 66.1023 23.4743 65.9027C23.7726 65.8659 24.0442 65.7121 24.2291 65.4751C24.4141 65.2381 24.4973 64.9373 24.4605 64.639C24.4237 64.3406 24.2699 64.0691 24.0329 63.8841C23.7959 63.6992 23.4951 63.6159 23.1968 63.6527L23.2043 63.6677Z" fill="#F8AE3C"/>
</svg>
