<svg viewBox="0 0 40 40" fill="none" xmlns="http://www.w3.org/2000/svg">
<path d="M26.7255 24.148C25.578 23.2107 23.9466 23.2525 22.8481 24.1667L15.5796 18.384C15.6704 18.037 15.7022 17.6736 15.6652 17.3058C15.5832 16.4955 15.1908 15.7655 14.5595 15.2505C13.2572 14.1874 11.3324 14.3824 10.2694 15.6847C9.31454 16.8545 9.37742 18.5241 10.3434 19.623L5.83871 24.7546C5.21304 24.2586 4.43294 24.0262 3.63931 24.1098C2.82896 24.1914 2.09901 24.5842 1.58399 25.2151C0.520903 26.5178 0.715928 28.4421 2.01822 29.5052C2.56787 29.9538 3.24051 30.1926 3.9406 30.1926C4.04449 30.1926 4.14876 30.1874 4.25344 30.1767C5.06379 30.0947 5.79374 29.7022 6.30876 29.071C6.82379 28.4401 7.0622 27.6465 6.98021 26.8362C6.93842 26.4222 6.81424 26.0294 6.61961 25.6752L11.299 20.3446C11.7209 20.5504 12.1742 20.6606 12.6292 20.6606C13.5143 20.6606 14.3923 20.2782 14.9941 19.541C15.0105 19.5211 15.0236 19.5 15.0391 19.4797L22.0962 25.0945C21.4375 26.3502 21.7289 27.9414 22.8692 28.8724C23.4343 29.3333 24.1161 29.5578 24.7943 29.5578C25.6795 29.5578 26.5575 29.1757 27.1593 28.4382C27.6743 27.8073 27.9127 27.0137 27.8308 26.2033C27.7492 25.393 27.3559 24.663 26.7255 24.148ZM5.38339 28.3164C5.07016 28.7004 4.62598 28.9392 4.13284 28.989C3.6417 29.0403 3.15732 28.8939 2.77284 28.5806C1.98041 27.9339 1.8622 26.7633 2.50856 25.9701C3.15533 25.1777 4.32667 25.0594 5.11871 25.7062C5.19513 25.7687 5.2612 25.8399 5.32608 25.912C5.35911 25.9765 5.40369 26.0366 5.4618 26.0875C5.64051 26.3434 5.75911 26.6376 5.79175 26.9568C5.8419 27.4495 5.69702 27.9323 5.38339 28.3164ZM14.0688 18.786C13.7555 19.1697 13.3114 19.4085 12.8186 19.4586C12.3255 19.5084 11.8427 19.3635 11.4586 19.0503C10.6662 18.4035 10.5476 17.2326 11.1943 16.4401C11.8411 15.6473 13.0124 15.5291 13.8045 16.1759C14.1886 16.4891 14.4274 16.9333 14.4771 17.4264C14.5273 17.9191 14.382 18.4019 14.0688 18.786ZM26.2343 27.6831C25.588 28.4752 24.417 28.5946 23.6242 27.9474C22.8318 27.3006 22.7131 26.1297 23.3599 25.3369C23.7261 24.8883 24.2602 24.6559 24.7987 24.6559C25.2111 24.6559 25.6262 24.7924 25.9701 25.073C26.7625 25.7197 26.8811 26.8903 26.2343 27.6831Z" fill="white"/>
<path d="M29.479 21.5803C29.2211 21.3749 28.8454 21.4187 28.6404 21.6758L27.7353 22.8145C27.5299 23.0724 27.5729 23.4485 27.8308 23.6531C27.9407 23.7407 28.0716 23.7829 28.2022 23.7829C28.3777 23.7829 28.552 23.7056 28.6698 23.5576L29.5749 22.4189C29.7799 22.161 29.7373 21.7849 29.479 21.5803Z" fill="white"/>
<path d="M33.242 16.8518C32.9849 16.6469 32.6084 16.6895 32.4034 16.9474L30.5224 19.3115C30.317 19.5695 30.36 19.9452 30.6179 20.1505C30.7274 20.2381 30.8587 20.2803 30.9893 20.2803C31.1648 20.2803 31.3391 20.2031 31.4569 20.055L33.3379 17.6908C33.5425 17.4329 33.4999 17.0572 33.242 16.8518Z" fill="white"/>
<path d="M36.0286 13.349C35.7715 13.1436 35.395 13.187 35.19 13.4445L34.2841 14.5832C34.0788 14.8411 34.1217 15.2168 34.3797 15.4222C34.4891 15.5097 34.6205 15.5519 34.751 15.5519C34.9265 15.5519 35.1009 15.4747 35.2187 15.3267L36.1245 14.188C36.3291 13.93 36.2865 13.5543 36.0286 13.349Z" fill="white"/>
<path d="M38.6535 9.71267C38.4923 9.59804 38.285 9.57137 38.1007 9.63983L33.6298 11.2963C33.321 11.411 33.163 11.7545 33.2776 12.0637C33.3918 12.3726 33.7349 12.5306 34.045 12.4163L37.6967 11.0635L37.6294 14.9572C37.6239 15.2872 37.8866 15.5586 38.2165 15.5646C38.2201 15.5646 38.2237 15.5646 38.2269 15.5646C38.5516 15.5646 38.8175 15.3039 38.8235 14.9779L38.9055 10.2106C38.9086 10.0128 38.8147 9.8265 38.6535 9.71267Z" fill="white"/>
</svg>
