<svg viewBox="0 0 79 66" fill="none" xmlns="http://www.w3.org/2000/svg">
<path d="M74.44 13H72V5.06C71.9974 3.71882 71.4634 2.43332 70.515 1.48496C69.5667 0.536597 68.2812 0.00264273 66.94 0H5.06C3.71882 0.00264273 2.43332 0.536597 1.48496 1.48496C0.536597 2.43332 0.00264273 3.71882 0 5.06V44.94C0.00264273 46.2812 0.536597 47.5667 1.48496 48.515C2.43332 49.4634 3.71882 49.9974 5.06 50H9V61.44C9.00264 62.6486 9.48392 63.8069 10.3385 64.6615C11.1931 65.5161 12.3514 65.9974 13.56 66H27.44C28.6486 65.9974 29.8069 65.5161 30.6615 64.6615C31.5161 63.8069 31.9974 62.6486 32 61.44V50H39V61.44C39.0026 62.6486 39.4839 63.8069 40.3385 64.6615C41.1931 65.5161 42.3514 65.9974 43.56 66H74.44C75.6486 65.9974 76.8069 65.5161 77.6615 64.6615C78.5161 63.8069 78.9974 62.6486 79 61.44V17.56C78.9974 16.3514 78.5161 15.1931 77.6615 14.3385C76.8069 13.4839 75.6486 13.0026 74.44 13ZM27.44 63H13.56C13.1471 62.9974 12.7518 62.8322 12.4598 62.5402C12.1678 62.2482 12.0026 61.8529 12 61.44V31.56C12.0026 31.1471 12.1678 30.7518 12.4598 30.4598C12.7518 30.1678 13.1471 30.0026 13.56 30H27.44C27.8529 30.0026 28.2482 30.1678 28.5402 30.4598C28.8322 30.7518 28.9974 31.1471 29 31.56V48.49V61.44C28.9974 61.8529 28.8322 62.2482 28.5402 62.5402C28.2482 62.8322 27.8529 62.9974 27.44 63ZM32 47V31.56C31.9974 30.3514 31.5161 29.1931 30.6615 28.3385C29.8069 27.4839 28.6486 27.0026 27.44 27H13.56C12.3514 27.0026 11.1931 27.4839 10.3385 28.3385C9.48392 29.1931 9.00264 30.3514 9 31.56V47H5.06C4.51365 47 3.98969 46.783 3.60336 46.3966C3.21704 46.0103 3 45.4863 3 44.94V5.06C3 4.51365 3.21704 3.98968 3.60336 3.60336C3.98969 3.21703 4.51365 3 5.06 3H66.94C67.4864 3 68.0103 3.21703 68.3966 3.60336C68.783 3.98968 69 4.51365 69 5.06V13H43.56C42.3514 13.0026 41.1931 13.4839 40.3385 14.3385C39.4839 15.1931 39.0026 16.3514 39 17.56V47H32ZM76 61.44C75.9974 61.8529 75.8322 62.2482 75.5402 62.5402C75.2482 62.8322 74.8529 62.9974 74.44 63H43.56C43.1471 62.9974 42.7518 62.8322 42.4598 62.5402C42.1678 62.2482 42.0026 61.8529 42 61.44V17.56C42.0026 17.1471 42.1678 16.7518 42.4598 16.4598C42.7518 16.1678 43.1471 16.0026 43.56 16H74.44C74.8529 16.0026 75.2482 16.1678 75.5402 16.4598C75.8322 16.7518 75.9974 17.1471 76 17.56V61.44Z" fill="#F8AE3C"/>
</svg>
