<svg viewBox="0 0 75 75" fill="none" xmlns="http://www.w3.org/2000/svg">
<path d="M57.661 37.4401C57.5754 37.2361 57.4316 37.0618 57.2475 36.939C57.0634 36.8163 56.8472 36.7506 56.626 36.7501H43.6735L51.1735 6.2851C51.2262 6.04701 51.2001 5.79825 51.0991 5.57627C50.9982 5.3543 50.8278 5.17113 50.6138 5.05436C50.3997 4.93759 50.1535 4.89354 49.9122 4.92885C49.6709 4.96415 49.4476 5.07689 49.276 5.2501L17.581 37.0801C17.4238 37.2374 17.3168 37.4378 17.2735 37.6559C17.2302 37.874 17.2525 38.1 17.3375 38.3055C17.4226 38.5109 17.5666 38.6866 17.7515 38.8102C17.9363 38.9338 18.1536 38.9999 18.376 39.0001H31.3285L23.8285 69.4651C23.7758 69.7032 23.8019 69.952 23.9028 70.1739C24.0038 70.3959 24.1741 70.5791 24.3882 70.6958C24.6023 70.8126 24.8485 70.8567 25.0898 70.8214C25.331 70.786 25.5543 70.6733 25.726 70.5001L57.421 38.6701C57.5784 38.512 57.6854 38.3106 57.7281 38.0916C57.7708 37.8726 57.7475 37.6458 57.661 37.4401ZM27.001 66.0676L33.871 38.1451C33.9122 37.9785 33.9147 37.8047 33.8784 37.637C33.8421 37.4693 33.7679 37.3121 33.6615 37.1775C33.5551 37.0429 33.4193 36.9344 33.2645 36.8603C33.1097 36.7862 32.9401 36.7485 32.7685 36.7501H21.0835L48.001 9.6826L41.146 37.6051C41.1051 37.7704 41.1023 37.9429 41.1378 38.1095C41.1733 38.2761 41.2461 38.4325 41.3508 38.5668C41.4556 38.7011 41.5894 38.8099 41.7423 38.885C41.8952 38.96 42.0631 38.9994 42.2335 39.0001H53.9185L27.001 66.0676Z" fill="#F8AE3C"/>
<path d="M53.2943 51.7048C53.081 51.5061 52.7989 51.3979 52.5075 51.403C52.216 51.4081 51.938 51.5262 51.7318 51.7323C51.5257 51.9385 51.4077 52.2165 51.4025 52.508C51.3974 52.7994 51.5056 53.0815 51.7043 53.2948L60.7043 62.2948C60.9175 62.4935 61.1996 62.6017 61.4911 62.5965C61.7825 62.5914 62.0606 62.4733 62.2667 62.2672C62.4728 62.0611 62.5909 61.783 62.596 61.4916C62.6012 61.2001 62.493 60.918 62.2943 60.7048L53.2943 51.7048Z" fill="#F8AE3C"/>
<path d="M20.9993 22.8748C21.2216 22.8746 21.439 22.8085 21.6238 22.6849C21.8086 22.5612 21.9526 22.3856 22.0377 22.1802C22.1228 21.9747 22.1451 21.7487 22.1017 21.5306C22.0584 21.3125 21.9514 21.1121 21.7943 20.9548L12.7943 11.9548C12.581 11.756 12.2989 11.6479 12.0075 11.653C11.716 11.6581 11.438 11.7762 11.2318 11.9823C11.0257 12.1885 10.9077 12.4665 10.9025 12.758C10.8974 13.0494 11.0056 13.3315 11.2043 13.5448L20.2043 22.5448C20.4151 22.7558 20.701 22.8745 20.9993 22.8748Z" fill="#F8AE3C"/>
<path d="M51.331 22.1698C51.5419 22.3804 51.8278 22.4988 52.126 22.4988C52.4241 22.4988 52.71 22.3804 52.921 22.1698L61.921 13.1698C62.1197 12.9565 62.2279 12.6744 62.2227 12.383C62.2176 12.0915 62.0995 11.8135 61.8934 11.6073C61.6873 11.4012 61.4092 11.2831 61.1177 11.278C60.8263 11.2729 60.5442 11.381 60.331 11.5798L51.331 20.5798C51.1203 20.7907 51.002 21.0766 51.002 21.3748C51.002 21.6729 51.1203 21.9588 51.331 22.1698Z" fill="#F8AE3C"/>
<path d="M20.5807 52.0798L11.5807 61.0798C11.4702 61.1828 11.3815 61.307 11.32 61.445C11.2586 61.583 11.2255 61.7319 11.2228 61.883C11.2202 62.034 11.248 62.1841 11.3045 62.3242C11.3611 62.4643 11.4453 62.5915 11.5522 62.6983C11.659 62.8052 11.7862 62.8894 11.9263 62.946C12.0664 63.0025 12.2164 63.0303 12.3675 63.0277C12.5186 63.025 12.6675 62.9919 12.8055 62.9304C12.9435 62.869 13.0677 62.7803 13.1707 62.6698L22.1707 53.6698C22.3694 53.4565 22.4776 53.1744 22.4725 52.883C22.4673 52.5915 22.3493 52.3135 22.1432 52.1073C21.937 51.9012 21.659 51.7831 21.3675 51.778C21.076 51.7729 20.794 51.8811 20.5807 52.0798Z" fill="#F8AE3C"/>
<path d="M13.875 48.75C14.9105 48.75 15.75 47.9105 15.75 46.875C15.75 45.8395 14.9105 45 13.875 45C12.8395 45 12 45.8395 12 46.875C12 47.9105 12.8395 48.75 13.875 48.75Z" fill="#F8AE3C"/>
<path d="M7.125 43.5C8.16053 43.5 9 42.6605 9 41.625C9 40.5895 8.16053 39.75 7.125 39.75C6.08947 39.75 5.25 40.5895 5.25 41.625C5.25 42.6605 6.08947 43.5 7.125 43.5Z" fill="#F8AE3C"/>
<path d="M67.125 33.75C68.1605 33.75 69 32.9105 69 31.875C69 30.8395 68.1605 30 67.125 30C66.0895 30 65.25 30.8395 65.25 31.875C65.25 32.9105 66.0895 33.75 67.125 33.75Z" fill="#F8AE3C"/>
<path d="M23.625 15C24.6605 15 25.5 14.1605 25.5 13.125C25.5 12.0895 24.6605 11.25 23.625 11.25C22.5895 11.25 21.75 12.0895 21.75 13.125C21.75 14.1605 22.5895 15 23.625 15Z" fill="#F8AE3C"/>
</svg>
