<svg viewBox="0 0 75 75" fill="none" xmlns="http://www.w3.org/2000/svg">
<path d="M27.9227 24.2777L26.0852 35.0027C26.047 35.2134 26.0698 35.4307 26.1508 35.6289C26.2318 35.8272 26.3677 35.9982 26.5426 36.1219C26.7175 36.2455 26.924 36.3167 27.1379 36.327C27.3518 36.3374 27.5643 36.2864 27.7502 36.1802L37.3502 31.1177L46.9802 36.1802C47.166 36.2785 47.3757 36.3229 47.5854 36.3081C47.7951 36.2934 47.9965 36.2202 48.1667 36.0968C48.3369 35.9734 48.4692 35.8048 48.5484 35.6101C48.6277 35.4154 48.6509 35.2024 48.6152 34.9952L46.7777 24.2702L54.5627 16.6802C54.7133 16.5338 54.82 16.3481 54.8705 16.1442C54.9211 15.9403 54.9135 15.7264 54.8487 15.5266C54.7839 15.3267 54.6645 15.149 54.5039 15.0136C54.3434 14.8782 54.1481 14.7904 53.9402 14.7602L43.1702 13.2002L38.3552 3.4502C38.2623 3.262 38.1186 3.10354 37.9403 2.99275C37.7621 2.88196 37.5564 2.82324 37.3465 2.82324C37.1366 2.82324 36.9309 2.88196 36.7526 2.99275C36.5744 3.10354 36.4306 3.262 36.3377 3.4502L31.5002 13.2002L20.7602 14.7602C20.5523 14.7904 20.3571 14.8782 20.1965 15.0136C20.0359 15.149 19.9165 15.3267 19.8517 15.5266C19.7869 15.7264 19.7794 15.9403 19.8299 16.1442C19.8805 16.3481 19.9871 16.5338 20.1377 16.6802L27.9227 24.2777ZM32.4227 15.3377C32.6033 15.3116 32.7747 15.242 32.9224 15.1348C33.07 15.0277 33.1894 14.8862 33.2702 14.7227L37.3352 6.4727L41.4002 14.7227C41.481 14.8862 41.6004 15.0277 41.7481 15.1348C41.8957 15.242 42.0672 15.3116 42.2477 15.3377L51.3452 16.6577L44.7752 23.0777C44.6445 23.2053 44.5469 23.3628 44.4907 23.5366C44.4345 23.7104 44.4215 23.8952 44.4527 24.0752L46.0052 33.1352L37.8752 28.8527C37.7134 28.7673 37.5332 28.7227 37.3502 28.7227C37.1672 28.7227 36.987 28.7673 36.8252 28.8527L28.6877 33.1277L30.2402 24.0752C30.2715 23.8952 30.2584 23.7104 30.2023 23.5366C30.1461 23.3628 30.0484 23.2053 29.9177 23.0777L23.3327 16.6652L32.4227 15.3377Z" fill="#F8AE3C"/>
<path d="M63.7504 33.75C63.7601 33.6653 63.7601 33.5797 63.7504 33.495V33.4425C63.7311 33.3779 63.706 33.3151 63.6754 33.255L63.6379 33.1875C63.6047 33.1344 63.5671 33.0842 63.5254 33.0375L63.4804 32.985C63.4196 32.9223 63.3517 32.8669 63.2779 32.82L53.7004 26.8875C53.4468 26.7284 53.1404 26.6765 52.8485 26.7433C52.5567 26.8101 52.3033 26.9901 52.1442 27.2437C51.9851 27.4974 51.9332 27.8038 52 28.0957C52.0668 28.3875 52.2468 28.6409 52.5004 28.8L60.3079 33.645L30.5554 48.525L14.3854 34.0425L22.1029 30.375C22.3725 30.2467 22.58 30.0166 22.6799 29.7353C22.7797 29.454 22.7637 29.1445 22.6354 28.875C22.5071 28.6055 22.277 28.3979 21.9957 28.2981C21.7144 28.1982 21.405 28.2142 21.1354 28.3425L11.8954 32.7375C11.8147 32.7782 11.7391 32.8286 11.6704 32.8875L11.6179 32.9325C11.5591 32.9866 11.5063 33.047 11.4604 33.1125V33.1575C11.4099 33.2371 11.3696 33.3228 11.3404 33.4125V33.4725C11.3318 33.5523 11.3318 33.6327 11.3404 33.7125C11.3404 33.7125 11.3404 33.7125 11.3404 33.75V56.4C11.3398 56.5641 11.3751 56.7263 11.4437 56.8752C11.5124 57.0242 11.6128 57.1564 11.7379 57.2625L29.7379 73.2375C29.8284 73.3102 29.9296 73.3684 30.0379 73.41H30.0829C30.1964 73.4489 30.3155 73.4692 30.4354 73.47C30.5152 73.4786 30.5957 73.4786 30.6754 73.47H30.7279L30.9004 73.41L63.1504 57.435C63.3377 57.3364 63.4933 57.1869 63.5994 57.0039C63.7056 56.8208 63.7579 56.6115 63.7504 56.4V33.75ZM13.5004 36.27L29.2504 50.3775V69.9525L13.5004 55.875V36.27ZM61.5004 55.6875L31.5004 70.5975V50.5725L61.5004 35.5725V55.6875Z" fill="#F8AE3C"/>
</svg>
